<?xml version="1.0" standalone="no"?>
<!DOCTYPE svg PUBLIC "-//W3C//DTD SVG 1.1//EN" "http://www.w3.org/Graphics/SVG/1.1/DTD/svg11.dtd" >
<svg xmlns="http://www.w3.org/2000/svg" xmlns:xlink="http://www.w3.org/1999/xlink" version="1.1">
<metadata>
Created by FontForge 20190801 at Mon Apr 12 18:30:08 2021
 By www-data
Copyright (c) 2020 by Muhittin Gu:nes. All rights reserved.
</metadata>
<defs>
<font id="RanuaTrialsMedium" horiz-adv-x="0" >
  <font-face 
    font-family="RanuaTrialsMedium"
    font-weight="500"
    font-stretch="normal"
    units-per-em="1000"
    panose-1="0 0 6 0 0 0 0 0 0 0"
    ascent="800"
    descent="-200"
    x-height="505"
    cap-height="700"
    bbox="-738 -210 1049 807"
    underline-thickness="50"
    underline-position="-100"
    unicode-range="U+0020-25CF"
  />
<missing-glyph horiz-adv-x="480" 
d="M89 750h305v-960h-305v960zM320 654v32h-159v-32h63v-36h-64v-31h160v31h-64v36h64zM256 495v67h-96v-100h160v33h-64zM192 529h32v-34h-32v34zM320 404v32h-160v-32h64v-35h-64v-32h96v67h64zM320 282v96h-32v-63h-128v-33h160zM320 153v108h-96v-53h32v22h32v-45h-96
v76h-32v-108h160zM320 -13v108h-160v-108h160zM192 64h96v-46h-96v46zM320 -67v32h-160v-32h68l-68 -45v-32h160v32h-98l67 45h31z" />
    <glyph glyph-name=".notdef" horiz-adv-x="480" 
d="M89 750h305v-960h-305v960zM320 654v32h-159v-32h63v-36h-64v-31h160v31h-64v36h64zM256 495v67h-96v-100h160v33h-64zM192 529h32v-34h-32v34zM320 404v32h-160v-32h64v-35h-64v-32h96v67h64zM320 282v96h-32v-63h-128v-33h160zM320 153v108h-96v-53h32v22h32v-45h-96
v76h-32v-108h160zM320 -13v108h-160v-108h160zM192 64h96v-46h-96v46zM320 -67v32h-160v-32h68l-68 -45v-32h160v32h-98l67 45h31z" />
    <glyph glyph-name=".null" 
 />
    <glyph glyph-name="nonmarkingreturn" horiz-adv-x="333" 
 />
    <glyph glyph-name="space" unicode=" " horiz-adv-x="310" 
 />
    <glyph glyph-name="exclam" unicode="!" horiz-adv-x="271" 
d="M170 225h-72l-21 475h116zM197 0h-122v165h122v-165z" />
    <glyph glyph-name="quotedbl" unicode="&#x22;" horiz-adv-x="430" 
d="M45 700h123l-35 -240h-54zM262 700h123l-34 -240h-54z" />
    <glyph glyph-name="percent" unicode="%" horiz-adv-x="871" 
d="M212 360q-79 0 -125 48t-46 122t46 122t125 48t124.5 -48t45.5 -122t-45.5 -122t-124.5 -48zM255 0h-105l473 700h105zM212 438q40 0 62.5 26t22.5 66t-22.5 66t-62.5 26t-63 -26t-23 -66t23 -66t63 -26zM660 -5q-79 0 -125 48t-46 122t46 122t125 48t124.5 -48
t45.5 -122t-45.5 -122t-124.5 -48zM660 73q40 0 63 26t23 66t-23 66t-63 26t-63 -26t-23 -66t23 -66t63 -26z" />
    <glyph glyph-name="ampersand" unicode="&#x26;" horiz-adv-x="669" 
d="M608 107h38v-107h-41q-75 0 -135 47q-83 -62 -192 -62q-102 0 -171 52t-69 144q0 70 40.5 112.5t95.5 54.5l14 3v20l-15 8q-49 21 -80.5 62.5t-31.5 96.5q0 76 63.5 126.5t169.5 50.5q102 0 165 -47.5t63 -125.5q0 -62 -43.5 -103.5t-128.5 -69.5l-12 -3v-18l129 -148
l5 -5q32 58 40 139l96 -19q-8 -106 -63 -188q31 -20 63 -20zM185 522q0 -33 18 -57t52 -48l8 -6l15 6q28 11 45 19t37.5 21.5t30 30.5t9.5 39q0 44 -30.5 66.5t-74.5 22.5q-46 0 -78 -25t-32 -69zM172 188q0 -47 35 -74t90 -27q58 0 104 30l-12 15l-134 157l-9 -5
q-23 -12 -36.5 -21.5t-25.5 -29.5t-12 -45z" />
    <glyph glyph-name="quotesingle" unicode="'" horiz-adv-x="213" 
d="M45 700h123l-35 -240h-54z" />
    <glyph glyph-name="parenleft" unicode="(" horiz-adv-x="326" 
d="M290 -60h-102q-151 182 -151 405t151 405h102q-70 -98 -103 -195t-33 -210q0 -114 33 -210t103 -195z" />
    <glyph glyph-name="parenright" unicode=")" horiz-adv-x="326" 
d="M138 -60h-101q70 99 102.5 195.5t32.5 209.5t-32.5 209.5t-102.5 195.5h101q152 -181 152 -405t-152 -405z" />
    <glyph glyph-name="comma" unicode="," horiz-adv-x="271" 
d="M104 -122h-29v55h19q19 0 26.5 8t7.5 32v27h-53v155h122v-179q0 -50 -21.5 -74t-71.5 -24z" />
    <glyph glyph-name="period" unicode="." horiz-adv-x="271" 
d="M197 0h-122v165h122v-165z" />
    <glyph glyph-name="zero" unicode="0" horiz-adv-x="690" 
d="M346 -13q-147 0 -221.5 101t-74.5 262q0 77 18 142t53 115.5t92.5 78.5t132.5 28q145 0 220 -101.5t75 -262.5q0 -104 -30.5 -184t-98.5 -129.5t-166 -49.5zM346 597q-82 0 -121.5 -65.5t-39.5 -181.5t39.5 -181t121.5 -65q159 0 159 246q0 247 -159 247z" />
    <glyph glyph-name="one" unicode="1" horiz-adv-x="461" 
d="M366 0h-128v538h-20l-4 -8q-36 -75 -142 -75h-25v122h30q125 0 153 123h136v-700z" />
    <glyph glyph-name="two" unicode="2" horiz-adv-x="587" 
d="M520 0h-448v116l187 163q80 71 119 122.5t39 108.5q0 47 -29.5 74t-81.5 27q-58 0 -93 -33t-35 -93h-128q0 107 70 168.5t185 61.5q104 0 173 -53t69 -153q0 -94 -60 -165.5t-168 -140.5l-86 -76v-15h287v-112z" />
    <glyph glyph-name="three" unicode="3" horiz-adv-x="591" 
d="M37 207h128q3 -51 37 -82.5t91 -31.5q53 0 89.5 28t36.5 76q0 50 -42 77t-102 27h-68v112h59q22 0 43.5 3.5t46 13t39.5 30.5t15 51q0 45 -32 73.5t-86 28.5q-55 0 -87.5 -31t-35.5 -87h-128q5 104 75.5 162t183.5 58q109 0 177 -52t68 -139q0 -60 -34 -99.5t-94 -50.5
l-17 -2v-21l17 -2q62 -12 99.5 -54t37.5 -110q0 -91 -74.5 -145.5t-185.5 -54.5q-110 0 -181 62t-76 160z" />
    <glyph glyph-name="four" unicode="4" horiz-adv-x="683" 
d="M543 700v-452h104v-107h-104v-141h-133v141h-373v136l317 423h189zM410 248v351h-21q-5 -42 -33 -83l-134 -187q-37 -52 -68 -60v-21h256z" />
    <glyph glyph-name="five" unicode="5" horiz-adv-x="633" 
d="M47 226l127 -1q3 -59 37.5 -99t95.5 -40q62 0 99 39.5t37 114.5t-35 111.5t-90 36.5q-47 0 -78 -25.5t-41 -64.5h-131l1 402h465v-112h-353l-1 -199h21l6 11q50 90 166 90q94 0 150 -63.5t56 -176.5q0 -120 -72.5 -193t-201.5 -73q-117 0 -186.5 65.5t-71.5 176.5z" />
    <glyph glyph-name="six" unicode="6" horiz-adv-x="605" 
d="M37 330q0 80 14 145t44.5 121t87.5 87.5t136 31.5q102 0 166.5 -53.5t79.5 -145.5h-133q-6 37 -32.5 67t-80.5 30q-73 0 -109 -68t-38 -173h20l4 10q43 106 168 106q95 0 148.5 -63.5t53.5 -169.5q0 -127 -70.5 -198.5t-189.5 -71.5q-71 0 -124 27t-84 75t-46 109
t-15 134zM305 385q-60 0 -95 -39t-35 -107t36 -109t95 -41q58 0 92.5 40.5t34.5 108.5t-34.5 107.5t-93.5 39.5z" />
    <glyph glyph-name="seven" unicode="7" horiz-adv-x="563" 
d="M252 0h-144l197 431q28 61 55.5 91t60.5 41l10 4v20h-394v112h490v-124z" />
    <glyph glyph-name="eight" unicode="8" horiz-adv-x="599" 
d="M300 -15q-120 0 -191 51.5t-71 145.5q0 73 41 116.5t102 55.5l10 3v20l-11 4q-54 12 -86.5 52.5t-32.5 100.5q0 79 64 130t174 51q108 0 172.5 -50t64.5 -131q0 -60 -31.5 -99.5t-84.5 -53.5l-12 -4v-20l11 -3q61 -13 101.5 -56.5t40.5 -116.5q0 -93 -71 -144.5
t-190 -51.5zM300 418q48 0 81.5 27t33.5 73q0 47 -33 72.5t-82 25.5q-50 0 -82.5 -25.5t-32.5 -72.5q0 -46 33 -73t82 -27zM300 87q58 0 92.5 27t34.5 78q0 50 -35 78.5t-92 28.5q-58 0 -93 -28.5t-35 -78.5q0 -51 34.5 -78t93.5 -27z" />
    <glyph glyph-name="nine" unicode="9" horiz-adv-x="605" 
d="M568 370q0 -79 -14 -144.5t-45 -121.5t-87.5 -87.5t-135.5 -31.5q-103 0 -167 53.5t-79 145.5h133q6 -37 32.5 -67t80.5 -30q72 0 108.5 68t38.5 173h-20l-4 -10q-43 -106 -169 -106q-95 0 -148 63.5t-53 169.5q0 127 70.5 198.5t189.5 71.5q71 0 124 -27t84 -75t46 -109
t15 -134zM300 315q59 0 94.5 39t35.5 107t-36 109t-95 41q-58 0 -92.5 -40.5t-34.5 -108.5t34.5 -107.5t93.5 -39.5z" />
    <glyph glyph-name="colon" unicode=":" horiz-adv-x="271" 
d="M197 350h-122v165h122v-165zM197 0h-122v165h122v-165z" />
    <glyph glyph-name="semicolon" unicode=";" horiz-adv-x="272" 
d="M197 350h-122v165h122v-165zM105 -122h-29v55h19q19 0 26.5 8t7.5 32v27h-53v155h122v-179q0 -50 -21.5 -74t-71.5 -24z" />
    <glyph glyph-name="question" unicode="?" horiz-adv-x="571" 
d="M312 207h-101v29q0 45 20 78.5t48.5 54t56.5 39.5t48 45t20 60q0 44 -29.5 71t-81.5 27q-58 0 -93 -33t-35 -93h-128q0 107 69.5 168.5t185.5 61.5q104 0 173 -51t69 -146q0 -45 -16.5 -79.5t-41 -53t-53.5 -36.5t-53.5 -31.5t-41 -37t-16.5 -53.5v-20zM323 0h-122v165
h122v-165z" />
    <glyph glyph-name="at" unicode="@" horiz-adv-x="1088" 
d="M549 736q211 0 350 -120.5t139 -318.5q0 -144 -59 -228t-152 -84q-65 0 -111 36.5t-47 109.5h-18l-6 -13q-49 -114 -161 -114q-88 0 -142.5 67.5t-54.5 181.5q0 113 55 180.5t142 67.5q113 0 161 -113l6 -13h18v105h113v-323q0 -69 54 -69q50 0 75 55.5t25 149.5
q0 156 -107 253t-281 98q-168 0 -282 -103.5t-114 -285.5q0 -165 105 -269.5t257 -104.5q112 0 226 63l37 -87q-121 -67 -263 -67q-204 0 -334 131t-130 334q0 98 29 179.5t77 136.5t113 93t135 55t145 17zM539 97q64 0 97 45.5t33 109.5t-33 110t-97 46t-96.5 -45.5
t-32.5 -110.5t32.5 -110t96.5 -45z" />
    <glyph glyph-name="A" unicode="A" horiz-adv-x="705" 
d="M690 0h-140l-62 160h-272l-62 -160h-140l268 700h140zM294 363l-35 -91h186l-35 90q-40 107 -46 176l-2 20h-20l-2 -20q-6 -71 -46 -175z" />
    <glyph glyph-name="B" unicode="B" horiz-adv-x="697" 
d="M412 0h-327v700h313q113 0 174 -48t61 -130q0 -117 -127 -144l-23 -3v-21l22 -2q66 -9 108 -51t42 -110q0 -88 -67 -139.5t-176 -51.5zM218 409h165q50 0 81 26t31 69t-30 70t-91 27h-156v-192zM392 310h-174v-209h174q62 0 93.5 31t31.5 77t-32.5 73.5t-92.5 27.5z" />
    <glyph glyph-name="C" unicode="C" horiz-adv-x="749" 
d="M378 -15q-157 0 -242.5 103t-85.5 261q0 159 86.5 262.5t241.5 103.5q135 0 221.5 -79.5t100.5 -205.5h-138q-9 75 -58.5 121.5t-125.5 46.5q-93 0 -142.5 -68.5t-49.5 -178.5q0 -112 49.5 -180.5t142.5 -68.5q76 0 125 46.5t59 122.5h138q-13 -126 -98.5 -206
t-223.5 -80z" />
    <glyph glyph-name="D" unicode="D" horiz-adv-x="718" 
d="M668 350q0 -158 -86.5 -254t-242.5 -96h-254v700h254q156 0 242.5 -96t86.5 -254zM532 350q0 109 -53.5 171t-156.5 62h-104v-466h104q103 0 156.5 62t53.5 171z" />
    <glyph glyph-name="E" unicode="E" horiz-adv-x="603" 
d="M85 0v700h449v-115h-316v-173h290v-110h-290v-187h320v-115h-453z" />
    <glyph glyph-name="F" unicode="F" horiz-adv-x="588" 
d="M85 0v700h449v-115h-316v-189h290v-109h-290v-287h-133z" />
    <glyph glyph-name="G" unicode="G" horiz-adv-x="811" 
d="M344 -15q-135 0 -214.5 104t-79.5 258q0 164 94 266t256 102q131 0 222 -71.5t114 -189.5h-137q-18 66 -70.5 105t-128.5 39q-99 0 -156.5 -66.5t-57.5 -180.5q0 -111 53.5 -181t150.5 -70q79 0 133 46.5t61 123.5l2 18h-177v93h310v-381h-133v158h-20
q-24 -81 -80.5 -127t-141.5 -46z" />
    <glyph glyph-name="H" unicode="H" horiz-adv-x="733" 
d="M218 0h-133v700h133v-277h297v277h133v-700h-133v306h-297v-306z" />
    <glyph glyph-name="I" unicode="I" horiz-adv-x="302" 
d="M218 700v-700h-133v700h133z" />
    <glyph glyph-name="J" unicode="J" horiz-adv-x="625" 
d="M287 -15q-126 0 -192.5 70.5t-70.5 182.5h133q9 -136 130 -136q70 0 100 39t30 113v446h133v-448q0 -121 -65.5 -194t-197.5 -73z" />
    <glyph glyph-name="K" unicode="K" horiz-adv-x="687" 
d="M462 476l201 -476h-147l-148 368l-150 -174v-194h-133v700h133v-352h20q4 46 17.5 80.5t53.5 77.5l170 194h176z" />
    <glyph glyph-name="L" unicode="L" horiz-adv-x="545" 
d="M521 0h-436v700h133v-583h303v-117z" />
    <glyph glyph-name="M" unicode="M" horiz-adv-x="1015" 
d="M218 0h-133v700h208l153 -363q52 -139 52 -217h19q0 83 51 217l153 363h209v-700h-133v563h-20q0 -70 -41 -181l-157 -382h-144l-156 381q-43 115 -43 182h-18v-563z" />
    <glyph glyph-name="N" unicode="N" horiz-adv-x="788" 
d="M216 0h-131v700h185l226 -383q50 -93 57 -163h19v546h131v-700h-186l-224 383q-49 94 -59 163h-18v-546z" />
    <glyph glyph-name="O" unicode="O" horiz-adv-x="777" 
d="M388 -15q-158 0 -248.5 103.5t-90.5 260.5q0 158 91.5 262t247.5 104t247.5 -103t91.5 -262q0 -157 -90 -261t-249 -104zM388 102q96 0 149.5 69t53.5 180q0 109 -53.5 178t-149.5 69q-95 0 -148.5 -69t-53.5 -179t53 -179t149 -69z" />
    <glyph glyph-name="P" unicode="P" horiz-adv-x="682" 
d="M218 -2l-133 2v700h309q112 0 175 -61.5t63 -161.5q0 -105 -62.5 -164.5t-175.5 -59.5h-176v-255zM218 585v-218h159q59 0 89 29t30 80t-30.5 80t-89.5 29h-158z" />
    <glyph glyph-name="Q" unicode="Q" horiz-adv-x="777" 
d="M561 -210h-75q-87 0 -125 39t-38 117v20h59v20q-39 2 -59 6q-128 20 -200.5 119t-72.5 238q0 157 91 261.5t247 104.5t247.5 -103.5t91.5 -261.5q0 -142 -74 -241t-202 -117v-35q0 -78 63 -78h47v-89zM388 102q95 0 149 69.5t54 179.5q0 109 -54.5 178t-148.5 69
t-148 -69t-54 -178q0 -110 54 -179.5t148 -69.5z" />
    <glyph glyph-name="R" unicode="R" horiz-adv-x="702" 
d="M218 0h-133v700h341q104 0 158 -48.5t54 -126.5q0 -77 -47 -120.5t-112 -49.5v-21h11q77 -4 114.5 -48.5t42.5 -129.5l8 -156h-133l-9 157q-4 64 -34.5 93.5t-97.5 29.5h-163v-280zM218 587v-195h161q59 0 89.5 27t30.5 75q0 93 -112 93h-169z" />
    <glyph glyph-name="S" unicode="S" horiz-adv-x="637" 
d="M40 219h138q3 -57 40.5 -90t103.5 -33q126 0 126 97q0 73 -97 92l-125 22q-89 17 -139 69.5t-50 132.5q0 98 73 152t189 54q129 0 211.5 -63t90.5 -175h-139q-4 63 -46.5 95t-112.5 32q-63 0 -96.5 -25t-33.5 -66q0 -36 25 -61t71 -34l129 -24q89 -16 138 -65t49 -128
q0 -103 -75.5 -159.5t-188.5 -56.5q-117 0 -196 62t-85 172z" />
    <glyph glyph-name="T" unicode="T" horiz-adv-x="549" 
d="M526 700v-115h-185v-585h-133v585h-185v115h503z" />
    <glyph glyph-name="U" unicode="U" horiz-adv-x="710" 
d="M355 -15q-280 0 -280 269v446h133v-450q0 -73 34.5 -110.5t112.5 -37.5q79 0 113.5 37t34.5 111v450h133v-446q0 -269 -281 -269z" />
    <glyph glyph-name="V" unicode="V" horiz-adv-x="684" 
d="M413 0h-142l-257 700h139l131 -363q40 -115 48 -174h20q8 60 48 175l131 362h140z" />
    <glyph glyph-name="W" unicode="W" horiz-adv-x="1036" 
d="M375 0h-156l-205 700h138l113 -386q22 -75 24 -149h19q2 67 26 152l118 383h130l120 -387q22 -77 24 -148h18q2 66 24 144l115 391h138l-205 -700h-156l-108 353q-23 77 -26 158h-18q-3 -81 -26 -158z" />
    <glyph glyph-name="X" unicode="X" horiz-adv-x="703" 
d="M195 0h-148l202 349v12l-196 339h149l92 -156q42 -80 47 -121h21q5 43 47 121l92 156h149l-196 -339v-12l203 -349h-149l-96 163q-45 86 -50 124h-20q-5 -35 -51 -124z" />
    <glyph glyph-name="Y" unicode="Y" horiz-adv-x="630" 
d="M468 700h148l-235 -465v-235h-133v236l-234 464h148l107 -216q34 -75 37 -137h19q5 73 35 137z" />
    <glyph glyph-name="Z" unicode="Z" horiz-adv-x="622" 
d="M55 700h512v-148l-274 -335q-59 -68 -108 -84v-18h382v-115h-512v148l274 336q56 67 108 83v18h-382v115z" />
    <glyph glyph-name="bracketleft" unicode="[" horiz-adv-x="325" 
d="M85 -60v810h203v-81h-101v-648h101v-81h-203z" />
    <glyph glyph-name="bracketright" unicode="]" horiz-adv-x="325" 
d="M37 750h203v-810h-203v81h101v648h-101v81z" />
    <glyph glyph-name="a" unicode="a" horiz-adv-x="597" 
d="M207 -15q-70 0 -116 42t-46 113q0 79 65 124t171 47l123 4v13q0 88 -114 88q-110 0 -115 -85h-128q1 91 67 140t177 49q112 0 176.5 -48.5t64.5 -144.5v-327h-128v107h-21q-19 -59 -68 -90.5t-108 -31.5zM260 87q59 0 101.5 39t42.5 99v13l-113 -3q-117 -2 -117 -74
q0 -36 24 -55t62 -19z" />
    <glyph glyph-name="b" unicode="b" horiz-adv-x="639" 
d="M400 520q93 0 147.5 -73t54.5 -194t-54 -194.5t-148 -73.5q-57 0 -101.5 28.5t-64.5 84.5l-4 13h-22v-111h-128v700h128v-306h22l4 13q20 56 64.5 84.5t101.5 28.5zM338 99q63 0 95.5 43.5t32.5 109.5q0 65 -32.5 109.5t-95.5 44.5t-96.5 -45t-33.5 -109t33.5 -108.5
t96.5 -44.5z" />
    <glyph glyph-name="c" unicode="c" horiz-adv-x="592" 
d="M301 -15q-121 0 -192.5 75.5t-71.5 193.5q0 119 71 192.5t193 73.5q107 0 177 -60.5t78 -157.5h-131q-6 50 -41 78t-84 28q-58 0 -94 -41t-36 -114t36.5 -114.5t94.5 -41.5q48 0 83 28t41 78h131q-9 -96 -79 -157t-176 -61z" />
    <glyph glyph-name="d" unicode="d" horiz-adv-x="639" 
d="M431 394v306h128v-700h-128v111h-22l-5 -13q-20 -56 -64 -84.5t-101 -28.5q-94 0 -148.5 73.5t-54.5 194.5t55 194t148 73q57 0 101 -28.5t64 -84.5l5 -13h22zM301 99q63 0 96.5 44.5t33.5 108.5t-33.5 109t-96.5 45t-96 -44.5t-33 -109.5t33 -109t96 -44z" />
    <glyph glyph-name="e" unicode="e" horiz-adv-x="602" 
d="M437 164h128q-27 -90 -100 -134.5t-165 -44.5q-121 0 -192.5 75.5t-71.5 192.5q0 120 69.5 193.5t193.5 73.5q121 0 188.5 -70.5t67.5 -190.5v-41h-395q4 -69 43 -100.5t99 -31.5q104 0 135 78zM299 424q-57 0 -94 -29t-44 -85h269q-9 114 -131 114z" />
    <glyph glyph-name="f" unicode="f" horiz-adv-x="420" 
d="M245 0h-123v409h-98v96h98v63q0 147 142 147q60 0 118 -23v-90q-41 19 -77 19q-60 0 -60 -65v-51h137v-96h-137v-409z" />
    <glyph glyph-name="g" unicode="g" horiz-adv-x="601" 
d="M407 -210h-209q-50 0 -84 14t-50 39.5t-22 51.5t-6 60v132q0 95 94 108l8 1v21l-5 3q-66 45 -66 126q0 82 60.5 128.5t158.5 46.5h290v-79l-140 1v-20l7 -2q69 -30 69 -111q0 -53 -33.5 -90t-80.5 -52t-103 -15q-30 0 -62.5 5.5t-39.5 5.5q-43 0 -43 -39q0 -41 48 -41
h208q87 0 129 -40.5t42 -107.5q0 -63 -38.5 -104.5t-131.5 -41.5zM285 250q41 0 68 23t27 63q0 41 -27 64t-68 23t-68.5 -23t-27.5 -64t27 -63.5t69 -22.5zM173 -112h231q49 0 49 49t-49 49h-231q-49 0 -49 -49t49 -49z" />
    <glyph glyph-name="h" unicode="h" horiz-adv-x="606" 
d="M398 520q68 0 106 -41.5t38 -126.5v-352h-128v300q0 108 -85 108q-56 0 -89 -40.5t-33 -108.5v-259h-128v505h1v195h128v-225h-1v-77h21l5 13q22 49 64 79t101 30z" />
    <glyph glyph-name="i" unicode="i" horiz-adv-x="267" 
d="M208 565h-148v135h148v-135zM198 0h-128v505h128v-505z" />
    <glyph glyph-name="j" unicode="j" horiz-adv-x="273" 
d="M213 565h-148v135h148v-135zM40 -208h-75v94h47q63 0 63 76v543h128v-555q0 -81 -36.5 -119.5t-126.5 -38.5z" />
    <glyph glyph-name="k" unicode="k" horiz-adv-x="610" 
d="M435 364l142 -364h-140l-98 268l-131 -132v-136h-128v700h128v-438h20l2 11q11 64 57 115l119 117h169z" />
    <glyph glyph-name="l" unicode="l" horiz-adv-x="311" 
d="M70 168v532h128v-530q0 -73 60 -73h21v-97h-68q-75 0 -108 40.5t-33 127.5z" />
    <glyph glyph-name="m" unicode="m" horiz-adv-x="887" 
d="M197 0h-128v505h128v-94h21l3 8q38 101 146 101q62 0 96.5 -32.5t38.5 -83.5h20l5 12q42 104 152 104q66 0 104.5 -42.5t38.5 -135.5v-342h-128v287q0 22 -2 37.5t-9 37.5t-25 34t-46 12q-50 0 -76.5 -34t-26.5 -87v-287h-127v301q0 107 -81 107q-50 0 -77 -34.5
t-27 -86.5v-287z" />
    <glyph glyph-name="n" unicode="n" horiz-adv-x="597" 
d="M69 505h128v-107h21l5 13q22 49 64 79t101 30q68 0 106 -41.5t38 -126.5v-352h-128v300q0 108 -85 108q-56 0 -89 -40.5t-33 -108.5v-259h-128v505z" />
    <glyph glyph-name="o" unicode="o" horiz-adv-x="616" 
d="M308 -15q-122 0 -197 75.5t-75 192.5q0 118 75 192.5t197 74.5t196.5 -74.5t74.5 -192.5q0 -117 -75 -192.5t-196 -75.5zM308 406q-60 0 -99 -41t-39 -112q0 -72 39 -113t99 -41t99 41t39 113q0 71 -39 112t-99 41z" />
    <glyph glyph-name="p" unicode="p" horiz-adv-x="629" 
d="M390 520q93 0 147.5 -73t54.5 -194t-54 -194.5t-148 -73.5q-57 0 -101.5 28.5t-64.5 84.5l-4 13h-22v-318h-128v712h128v-111h22l4 13q20 56 64.5 84.5t101.5 28.5zM328 99q63 0 95.5 43.5t32.5 109.5q0 65 -32.5 109.5t-95.5 44.5t-96.5 -45t-33.5 -109t33.5 -108.5
t96.5 -44.5z" />
    <glyph glyph-name="q" unicode="q" horiz-adv-x="629" 
d="M431 394v111h128v-712h-128v318h-22l-5 -13q-20 -56 -64 -84.5t-101 -28.5q-94 0 -148.5 73.5t-54.5 194.5t55 194t148 73q57 0 101 -28.5t64 -84.5l5 -13h22zM301 99q63 0 96.5 44.5t33.5 108.5t-33.5 109t-96.5 45t-96 -44.5t-33 -109.5t33 -109t96 -44z" />
    <glyph glyph-name="r" unicode="r" horiz-adv-x="451" 
d="M197 0h-128v505h128v-119h21l3 12q15 61 56.5 91.5t96.5 30.5q22 0 44 -5v-117h-82q-41 0 -70 -15.5t-43 -42.5t-20 -54t-6 -58v-228z" />
    <glyph glyph-name="s" unicode="s" horiz-adv-x="531" 
d="M44 157h125q19 -76 102 -76q38 0 60.5 17t22.5 46q0 49 -67 59l-76 10q-85 13 -127 55t-42 101q0 72 58 111.5t154 39.5q101 0 163.5 -45t72.5 -134h-129q-11 83 -111 83q-85 0 -85 -54q0 -24 18 -39t44 -20l88 -13q159 -26 163 -148q2 -75 -54 -120t-152 -45
q-94 0 -157 45.5t-71 126.5z" />
    <glyph glyph-name="t" unicode="t" horiz-adv-x="421" 
d="M266 -15q-144 0 -144 167v256h-98v97h98v110l128 20v-130h132v-97h-132v-225q0 -50 12.5 -72t48.5 -22q32 0 71 16v-97q-56 -23 -116 -23z" />
    <glyph glyph-name="u" unicode="u" horiz-adv-x="597" 
d="M528 0h-128v107h-21l-5 -13q-22 -49 -64 -79t-101 -30q-68 0 -106 41.5t-38 126.5v352h128v-300q0 -108 85 -108q56 0 89 40.5t33 108.5v259h128v-505z" />
    <glyph glyph-name="v" unicode="v" horiz-adv-x="562" 
d="M358 0h-153l-181 505h133l78 -209q35 -97 37 -162h20q2 65 37 162l77 209h133z" />
    <glyph glyph-name="w" unicode="w" horiz-adv-x="827" 
d="M598 243l76 262h129l-135 -505h-159l-72 243q-14 64 -14 109h-20q0 -56 -13 -109l-73 -243h-159l-134 505h129l76 -270q5 -21 5 -87h20q0 53 9 87l82 270h135l80 -263q11 -42 11 -94h20q0 62 7 95z" />
    <glyph glyph-name="x" unicode="x" horiz-adv-x="578" 
d="M544 505l-154 -253l154 -252h-146l-66 106q-27 53 -34 100h-18q-8 -50 -34 -101l-67 -105h-145l155 252l-155 253h145l65 -101q27 -51 36 -104h18q9 54 36 104l64 101h146z" />
    <glyph glyph-name="y" unicode="y" horiz-adv-x="562" 
d="M272 -210h-138l79 216l-189 499h133l78 -209q35 -97 37 -162h20q2 65 37 162l77 209h133z" />
    <glyph glyph-name="z" unicode="z" horiz-adv-x="499" 
d="M46 505h406v-105l-180 -218q-45 -56 -93 -67v-20h273v-95h-406v105l179 217q46 55 99 68v21h-278v94z" />
    <glyph glyph-name="braceleft" unicode="{" horiz-adv-x="341" 
d="M305 -71h-65q-132 0 -132 141v150q0 35 -18.5 53t-52.5 18v97q34 0 52.5 18t18.5 53v149q0 142 132 142h65v-112h-27q-28 0 -42.5 -12.5t-14.5 -45.5v-132q0 -87 -76 -96v-26q76 -7 76 -95v-132q0 -33 14.5 -45.5t42.5 -12.5h27v-112z" />
    <glyph glyph-name="braceright" unicode="}" horiz-adv-x="341" 
d="M101 -71h-64v112h27q28 0 42 12.5t14 45.5v132q0 88 77 95v26q-77 9 -77 96v132q0 33 -14 45.5t-42 12.5h-27v112h64q132 0 132 -142v-149q0 -71 72 -71v-97q-72 0 -72 -71v-150q0 -72 -32 -106.5t-100 -34.5z" />
    <glyph glyph-name="exclamdown" unicode="&#xa1;" horiz-adv-x="271" 
d="M75 535v165h122v-165h-122zM77 0l21 475h72l23 -475h-116z" />
    <glyph glyph-name="questiondown" unicode="&#xbf;" horiz-adv-x="571" 
d="M248 705h122v-165h-122v165zM259 498h101v-29q0 -45 -20 -78.5t-48 -54t-56.5 -39.5t-48.5 -45t-20 -60q0 -44 29.5 -71t81.5 -27q58 0 93 33t35 93h128q0 -107 -69.5 -168.5t-185.5 -61.5q-104 0 -173 51t-69 146q0 45 16.5 79.5t41 53t53.5 36.5t53.5 31.5t41 37
t16.5 53.5v20z" />
    <glyph glyph-name="AE" unicode="&#xc6;" horiz-adv-x="984" 
d="M598 302v-187h321v-115h-454v169h-222l-84 -169h-145l342 700h558v-115h-316v-173h291v-110h-291zM380 443l-81 -162h166v304h-30q-5 -39 -55 -142z" />
    <glyph glyph-name="germandbls" unicode="&#xdf;" horiz-adv-x="662" 
d="M218 0h-133v456q0 259 266 259q121 0 184.5 -51t63.5 -133q0 -64 -36.5 -102.5t-96.5 -50.5l-22 -3v-21l22 -2q69 -9 111.5 -51.5t42.5 -109.5q0 -87 -66 -140t-162 -51l-46 1v100h20q55 0 85.5 31.5t30.5 76.5t-34 73t-99 28v99q49 0 80 29.5t31 74.5q0 41 -28.5 68.5
t-87.5 27.5q-126 0 -126 -144v-465z" />
    <glyph glyph-name="ae" unicode="&#xe6;" horiz-adv-x="977" 
d="M220 -15q-80 0 -127.5 42t-47.5 115q0 79 60.5 122.5t173.5 46.5l125 3v17q0 85 -114 85q-110 0 -115 -85h-128q1 91 67 140t173 49q51 0 91 -13.5t54.5 -25t37.5 -32.5h20q81 71 193 71q115 0 180.5 -71t65.5 -190v-41h-396q3 -67 42.5 -99.5t101.5 -32.5q47 0 84 19
t52 59h128q-28 -90 -101 -134.5t-166 -44.5q-154 0 -233 126h-21q-28 -64 -82 -95t-118 -31zM534 310h273q-9 114 -134 114q-59 0 -97 -29.5t-42 -84.5zM268 87q61 0 98.5 41.5t37.5 105.5v4l-113 -3q-117 -2 -117 -74q0 -36 26.5 -55t67.5 -19z" />
    <glyph glyph-name="Hbar" unicode="&#x126;" horiz-adv-x="733" 
d="M648 631h60v-95h-60v-536h-133v306h-297v-306h-133v536h-60v95h60v69h133v-69h297v69h133v-69zM218 423h297v113h-297v-113z" />
    <glyph glyph-name="dotlessi" unicode="&#x131;" horiz-adv-x="267" 
d="M70 0v505h128v-505h-128z" />
    <glyph glyph-name="Eng" unicode="&#x14a;" horiz-adv-x="784" 
d="M572 700h131v-700h-3v-50q0 -81 -37 -119.5t-127 -38.5h-75v94h48q63 0 63 76v38h-55l-224 383q-49 94 -59 163h-18v-546h-131v700h185l226 -383q50 -93 57 -163h19v546z" />
    <glyph glyph-name="OE" unicode="&#x152;" horiz-adv-x="1113" 
d="M362 -15q-141 0 -226.5 104t-85.5 260q0 158 85.5 262t226.5 104q75 0 130.5 -32t81.5 -82h21v99h449v-115h-316v-173h291v-110h-291v-187h321v-115h-454v99h-21q-26 -51 -81 -82.5t-131 -31.5zM388 102q97 0 150 69t53 180q0 110 -53 178.5t-150 68.5t-149.5 -68.5
t-52.5 -178.5q0 -111 52.5 -180t149.5 -69z" />
    <glyph glyph-name="oe" unicode="&#x153;" horiz-adv-x="1020" 
d="M303 -15q-121 0 -194 75t-73 193q0 119 72.5 193t194.5 74q135 0 198 -110h20q20 52 75.5 81t126.5 29q116 0 182.5 -70.5t66.5 -190.5v-41h-394q3 -65 40.5 -98.5t100.5 -33.5q107 0 137 78h128q-29 -90 -99.5 -134.5t-161.5 -44.5q-145 0 -202 118h-20
q-55 -118 -198 -118zM580 310h267q-10 114 -131 114q-60 0 -96 -29.5t-40 -84.5zM308 99q60 0 99 41t39 113q0 71 -39 112t-99 41t-99 -41t-39 -112q0 -72 39 -113t99 -41z" />
    <glyph glyph-name="gravecomb" unicode="&#x300;" 
d="M-36 564h-80l-111 136h135z" />
    <glyph glyph-name="acutecomb" unicode="&#x301;" 
d="M-148 564h-79l55 136h136z" />
    <glyph glyph-name="uni0302" unicode="&#x302;" 
d="M-263 700h152l75 -141h-103l-40 80h-17l-39 -80h-103z" />
    <glyph glyph-name="tildecomb" unicode="&#x303;" 
d="M-105 700h68v-20q0 -59 -25 -89.5t-67 -30.5q-37 0 -79.5 31.5t-66.5 31.5q-39 0 -39 -55h-68v20q0 59 25 89.5t67 30.5q37 0 80 -31.5t66 -31.5q39 0 39 55z" />
    <glyph glyph-name="uni0304" unicode="&#x304;" 
d="M-326 614v86h290v-86h-290z" />
    <glyph glyph-name="uni0306" unicode="&#x306;" 
d="M-274 700h86q0 -68 57 -68q55 0 55 68h86q0 -70 -36.5 -108.5t-104.5 -38.5q-69 0 -106 38.5t-37 108.5z" />
    <glyph glyph-name="uni0307" unicode="&#x307;" 
d="M-36 565h-122v135h122v-135z" />
    <glyph glyph-name="uni0308" unicode="&#x308;" 
d="M-278 565h-122v135h122v-135zM-37 565h-122v135h122v-135z" />
    <glyph glyph-name="uni030A" unicode="&#x30a;" 
d="M-226 593q0 47 33 77t81 30t80 -30t32 -77t-32 -76.5t-80 -29.5t-81 30t-33 76zM-70 593q0 19 -11.5 31t-30.5 12t-31.5 -12t-12.5 -31t12.5 -30.5t31.5 -11.5t30.5 11.5t11.5 30.5z" />
    <glyph glyph-name="uni030B" unicode="&#x30b;" 
d="M-342 564h-69l55 136h125zM-148 564h-69l55 136h125z" />
    <glyph glyph-name="uni030C" unicode="&#x30c;" 
d="M-36 700l-75 -141h-152l-75 141h103l39 -80h17l40 80h103z" />
    <glyph glyph-name="uni0312" unicode="&#x312;" 
d="M-66 807h30v-55h-19q-20 0 -27.5 -8t-7.5 -32v-27h54v-130h-122v154q0 50 21 74t71 24z" />
    <glyph glyph-name="dotbelowcomb" unicode="&#x323;" 
d="M-36 -210h-122v135h122v-135z" />
    <glyph glyph-name="uni0326" unicode="&#x326;" 
d="M-153 -210l56 169h108l-93 -169h-71z" />
    <glyph glyph-name="uni0327" unicode="&#x327;" 
d="M-225 -101l14 102l61 -1l-10 -73h21l1 4q15 44 63 44q32 0 53.5 -22t21.5 -61q0 -50 -34 -76t-82 -26q-46 0 -76 22.5t-33 61.5l64 2q7 -35 45 -35q20 0 32.5 12t12.5 34q0 20 -11.5 30.5t-28.5 10.5q-30 0 -39 -33z" />
    <glyph glyph-name="uni0328" unicode="&#x328;" 
d="M-76 -209q-44 0 -75.5 24t-30.5 68q2 85 135 128l38 -1l9 -10l-29 -14q-61 -30 -61 -74q-1 -19 10.5 -30t30.5 -11q21 0 41 12v-78q-42 -14 -68 -14z" />
    <glyph glyph-name="uni0335" unicode="&#x335;" 
d="M-51 311h-357v95h357v-95z" />
    <glyph glyph-name="uni0336" unicode="&#x336;" 
d="M-36 296h-702v71h702v-71z" />
    <glyph glyph-name="uni0337" unicode="&#x337;" 
d="M15 403l-252 -136v81l252 136v-81z" />
    <glyph glyph-name="uni0338" unicode="&#x338;" 
d="M-581 0h-60l580 700h61z" />
    <glyph glyph-name="uni1E24" unicode="&#x1e24;" horiz-adv-x="733" 
d="M218 0h-133v700h133v-277h297v277h133v-700h-133v306h-297v-306zM430 -210h-122v135h122v-135z" />
    <glyph glyph-name="uni1E9E" unicode="&#x1e9e;" horiz-adv-x="662" 
d="M218 0h-133v456q0 259 266 259q121 0 184.5 -51t63.5 -133q0 -64 -36.5 -102.5t-96.5 -50.5l-22 -3v-21l22 -2q69 -9 111.5 -51.5t42.5 -109.5q0 -87 -66 -140t-162 -51l-46 1v100h20q55 0 85.5 31.5t30.5 76.5t-34 73t-99 28v99q49 0 80 29.5t31 74.5q0 41 -28.5 68.5
t-87.5 27.5q-126 0 -126 -144v-465z" />
    <glyph glyph-name="ellipsis" unicode="&#x2026;" horiz-adv-x="694" 
d="M197 0h-122v165h122v-165zM408 0h-122v165h122v-165zM619 0h-122v165h122v-165z" />
    <glyph glyph-name="filledbox" unicode="&#x25a0;" horiz-adv-x="645" 
d="M70 0v505h505v-505h-505z" />
    <glyph glyph-name="uni25CF" unicode="&#x25cf;" horiz-adv-x="609" 
d="M305 520q114 0 191 -78t77 -188q0 -111 -77 -189t-191 -78q-115 0 -191.5 78t-76.5 189q0 110 76.5 188t191.5 78z" />
    <glyph glyph-name="a.ss01" horiz-adv-x="629" 
d="M431 394v111h128v-505h-128v111h-22l-5 -13q-20 -56 -64 -84.5t-101 -28.5q-94 0 -148.5 73.5t-54.5 194.5t55 194t148 73q57 0 101 -28.5t64 -84.5l5 -13h22zM301 99q63 0 96.5 44.5t33.5 108.5t-33.5 109t-96.5 45t-96 -44.5t-33 -109.5t33 -109t96 -44z" />
    <glyph glyph-name="g.ss01" horiz-adv-x="629" 
d="M431 394v111h128v-516q0 -95 -64.5 -147t-175.5 -52q-109 0 -176 47t-68 130h128q8 -84 115 -84q113 0 113 106v122h-22l-5 -13q-20 -56 -64 -84.5t-101 -28.5q-94 0 -148.5 73.5t-54.5 194.5t55 194t148 73q57 0 101 -28.5t64 -84.5l5 -13h22zM301 99q63 0 96.5 44.5
t33.5 108.5t-33.5 109t-96.5 45t-96 -44.5t-33 -109.5t33 -109t96 -44z" />
    <glyph glyph-name="l.ss01" horiz-adv-x="287" 
d="M208 700v-700h-128v700h128z" />
    <glyph glyph-name="y.ss01" horiz-adv-x="565" 
d="M139 -209h-97v98h61q39 0 55 13.5t28 48.5l20 56l-180 498h134l78 -209q35 -101 37 -162h19q2 65 37 162l78 209h132l-189 -526q-36 -104 -80.5 -146t-132.5 -42z" />
    <glyph glyph-name="a.ss02" horiz-adv-x="618" 
d="M203 -15q-67 0 -112.5 42t-45.5 113q0 77 57 124t154 49l148 4v5q0 94 -114 94q-110 0 -114 -85h-129q1 91 67.5 140t176.5 49t173.5 -51t67.5 -147v-161q0 -34 12 -49t41 -15h9v-97h-49q-60 0 -95 26.5t-44 71.5l-2 15h-18q-21 -59 -72 -93.5t-111 -34.5zM265 87
q59 0 99 42.5t40 100.5v11l-113 -2q-48 -1 -82.5 -19.5t-34.5 -58.5q0 -34 26 -54t65 -20z" />
    <glyph glyph-name="f.ss02" horiz-adv-x="411" 
d="M231 0h-115v283q0 90 87 104l15 3v18l-194 1v96h98v46q0 149 142 149h108v-89h-52q-41 0 -58 -17.5t-17 -53.5v-35h127v-96h-141v-409z" />
    <glyph glyph-name="t.ss02" horiz-adv-x="401" 
d="M362 0h-98q-72 0 -107 38.5t-35 118.5v252h-98v96h168v19h-9q-70 8 -70 67v39h123v-125h126v-96h-117v-224q0 -96 76 -96h41v-89z" />
    <glyph glyph-name="at.ss01" horiz-adv-x="1088" 
d="M509 -210q-201 0 -330 131t-129 334q0 98 29 179.5t77 136.5t113 93t135 55t145 17q211 0 350 -120.5t139 -318.5q0 -144 -59 -228t-152 -84q-60 0 -107 31t-58 86l-2 26h-17q-20 -69 -71 -106t-112 -37q-67 0 -113 42t-46 110q0 78 60 122t160 47l139 3v13
q0 105 -113 105q-111 0 -115 -96h-128q1 91 67.5 140t176.5 49q111 0 175.5 -52t64.5 -146v-166q0 -68 55 -68q93 0 93 205q0 156 -107 253t-281 98q-168 0 -282 -103.5t-114 -285.5q0 -165 105 -269.5t257 -104.5q112 0 226 63l37 -82q-106 -72 -268 -72zM525 87
q58 0 96.5 41.5t38.5 104.5v21l-97 -1q-132 -4 -132 -86q0 -36 26 -58t68 -22z" />
    </font>
</defs>
</svg>
