<?xml version="1.0" standalone="no"?>
<!DOCTYPE svg PUBLIC "-//W3C//DTD SVG 1.1//EN" "http://www.w3.org/Graphics/SVG/1.1/DTD/svg11.dtd" >
<svg xmlns="http://www.w3.org/2000/svg" xmlns:xlink="http://www.w3.org/1999/xlink" version="1.1">
<metadata>
Created by FontForge 20190801 at Mon Oct 11 08:34:21 2021
 By www-data
Copyright 2018 The Baskervville Project Authors (https://github.com/anrt-type/ANRT-Baskervville)
</metadata>
<defs>
<font id="BaskervvilleItalic" horiz-adv-x="0" >
  <font-face 
    font-family="BaskervvilleItalic"
    font-weight="400"
    font-style="italic"
    font-stretch="normal"
    units-per-em="1000"
    panose-1="0 0 0 0 0 0 0 0 0 0"
    ascent="800"
    descent="-200"
    x-height="443"
    cap-height="713"
    bbox="-267 -300 1177 1138"
    underline-thickness="35"
    underline-position="-166"
    slope="-20"
    unicode-range="U+000D-FB02"
  />
<missing-glyph horiz-adv-x="870" 
d="M9 0l231 710h710l-231 -710h-710zM483 379l398 301h-601zM59 58l400 302l-205 303zM705 49l197 609l-402 -304zM72 30h610l-207 306z" />
    <glyph glyph-name="fi" unicode="fi" horiz-adv-x="585" 
d="M-99 -290q-61 0 -86 22.5t-25 51.5q0 20 14 33t35 13q22 0 31.5 -15t14 -34t11.5 -34t23 -15q26 0 49 38.5t45 102.5l180 543h-81l7 24h82l34 101q24 72 55 111.5t72 55.5t95 16q51 0 82 -9.5t46.5 -23.5t21 -28.5t5.5 -24.5q0 -21 -15.5 -38.5t-43.5 -17.5
q-22 0 -34.5 14.5t-12.5 36.5q0 40 -14 54.5t-43 14.5q-37 0 -72.5 -29.5t-55.5 -91.5l-47 -141h117l162 3l-126 -358q-4 -15 -7 -26.5t-3 -19.5q0 -20 16 -20q22 0 43 23t34 45l18 -12q-19 -31 -49 -60t-73 -29q-31 0 -43.5 15t-12.5 40q0 16 4 34.5t11 37.5l87 234
q8 22 8 35q0 24 -19.5 29t-44.5 5v0h-130l-181 -543q-22 -65 -48 -100.5t-59 -49t-77 -13.5z" />
    <glyph glyph-name="fl" unicode="fl" horiz-adv-x="610" 
d="M-100 -290q-61 0 -86 22t-25 47q0 20 14 33.5t35 13.5q22 0 31.5 -14t14 -33t11.5 -33t23 -14q26 0 49.5 37.5t44.5 99.5l181 547h-87l7 24h88l27 80q23 69 51 114t73.5 67.5t118.5 22.5q59 0 105 -17.5t68 -49.5l-192 -588q-3 -10 -5 -17.5t-2 -13.5q0 -19 16 -19
q23 0 44 22t34 46l18 -12q-25 -40 -54.5 -64.5t-70.5 -24.5q-22 0 -38 14.5t-16 42.5q0 20 11 51l180 551q-21 29 -47.5 41.5t-56.5 12.5q-50 0 -83 -29t-54 -74t-36 -92l-21 -64h109l-7 -24h-110l-179 -547q-21 -65 -47.5 -99.5t-59.5 -47t-77 -12.5z" />
    <glyph glyph-name="f_b.liga" unicode="fb" horiz-adv-x="878" 
d="M-100 -290q-61 0 -86 22t-25 47q0 20 14 33.5t35 13.5q22 0 31.5 -14t14 -33t11.5 -33t23 -14q26 0 49.5 37.5t44.5 98.5l183 548h-87l7 24h88l27 80q25 68 53.5 113.5t75 68t123.5 22.5q32 0 70 -6.5t70.5 -17t46.5 -22.5l-92 -280q21 28 52.5 42t64.5 14q43 0 76 -22.5
t52 -60t19 -84.5q0 -62 -23.5 -116.5t-62.5 -96t-86.5 -65t-95.5 -23.5q-68 0 -107 33t-39 97q0 25 7 54t18 63l136 413q-22 30 -54 41.5t-61 11.5q-53 0 -86.5 -29.5t-54.5 -74t-38 -91.5l-21 -64h109l-7 -24h-110l-181 -549q-21 -64 -47 -98t-59.5 -46.5t-77.5 -12.5z
M573 10q37 0 72 29t63 76t44.5 102.5t16.5 108.5t-25 78.5t-56 25.5q-38 0 -66.5 -21.5t-49 -57t-35.5 -77.5l-19 -53q-27 -75 -27 -125q0 -41 19.5 -63.5t62.5 -22.5z" />
    <glyph glyph-name="f_f.liga" unicode="ff" horiz-adv-x="634" 
d="M-100 -290q-61 0 -86 22t-25 47q0 20 14 33.5t35 13.5q22 0 31.5 -14t14 -33t11.5 -33t23 -14q26 0 49 37.5t45 99.5l180 547h-98l7 24h99l26 80q24 68 52.5 113.5t69 68t101.5 22.5q36 0 77 -8.5t72 -35.5q25 23 56 33.5t65 10.5q46 0 70 -12t33 -29t9 -33
q0 -20 -12.5 -36.5t-35.5 -16.5q-22 0 -30.5 14t-8.5 36q0 31 -7.5 43t-25.5 12q-25 0 -49 -21t-38 -66l-58 -175h109l-7 -24h-110l-168 -506q-34 -101 -85.5 -150.5t-144.5 -49.5q-47 0 -80 19.5t-41 47.5q-27 -39 -60.5 -53t-78.5 -14zM290 504l-21 -64h225l52 156l1 2
q-8 39 -34 70t-72 31q-41 0 -69 -29.5t-47 -74t-35 -91.5zM322 -74l164 490h-225l-177 -547l-1 -4q12 -58 33 -94t64 -36q37 0 63 28t45 72t34 91z" />
    <glyph glyph-name="f_f_b.liga" unicode="ffb" horiz-adv-x="1137" 
d="M-100 -290q-61 0 -86 22t-25 47q0 20 14 33.5t35 13.5q22 0 31.5 -14t14 -33t11.5 -33t23 -14q26 0 49.5 37t44.5 100l181 547h-104l7 24h105l26 80q22 69 50.5 114t71 67.5t104.5 22.5q35 0 77 -9t73 -38q28 24 66 35.5t91 11.5q31 0 65.5 -7t62.5 -17.5t40 -21.5
l-92 -280q21 28 52.5 42t64.5 14q43 0 76 -22.5t52 -60t19 -84.5q0 -62 -23.5 -116.5t-62.5 -96t-86.5 -65t-95.5 -23.5q-68 0 -107 33t-39 97q0 25 7 54t18 63l138 418q-18 27 -43 37.5t-48 10.5q-53 0 -87 -29t-55.5 -74t-36.5 -92l-21 -64h109l-7 -24h-110l-164 -504
q-26 -79 -61.5 -123t-81 -61.5t-100.5 -17.5q-43 0 -71 17t-39 38q-26 -33 -58.5 -44t-74.5 -11zM291 504l-21 -64h219l26 80q7 23 15 43.5t17 38.5q-8 38 -33 67.5t-68 29.5t-72 -29t-48.5 -74t-34.5 -92zM832 10q37 0 72 29t63 76t44.5 102.5t16.5 108.5t-25 78.5
t-56 25.5q-38 0 -66.5 -21.5t-49 -57t-35.5 -77.5l-19 -53q-27 -75 -27 -125q0 -41 19.5 -63.5t62.5 -22.5zM84 -131q-5 -16 -11 -31q8 -23 20 -47t29.5 -40t41.5 -16q41 0 78.5 37.5t60.5 107.5l178 536h-219z" />
    <glyph glyph-name="f_f_h.liga" unicode="ffh" horiz-adv-x="1156" 
d="M-100 -290q-61 0 -86 22t-25 47q0 20 14 33.5t35 13.5q22 0 31.5 -14t14 -33t11.5 -33t23 -14q26 0 49.5 37t44.5 100l181 547h-104l7 24h105l26 80q33 103 82.5 153.5t140.5 50.5q37 0 79 -9t73 -37q28 23 65.5 34.5t89.5 11.5q59 0 105 -17.5t68 -49.5l-101 -311
q32 42 80 75t107 33q50 0 68.5 -18.5t18.5 -47.5q0 -26 -11 -57l-90 -251q-9 -25 -9 -41q0 -20 16 -20q22 0 43 21.5t34 43.5l18 -12q-19 -31 -49 -58.5t-73 -27.5q-31 0 -43.5 15t-12.5 39q0 15 4 33t11 37l87 246q7 20 7 35q0 20 -11 29t-27 9q-27 0 -56.5 -15
t-56.5 -39.5t-48.5 -53.5t-32.5 -55l-87 -266h-72l210 647q-21 27 -47 39.5t-56 12.5q-50 0 -83 -29t-54 -74t-36 -92l-21 -64h110l-7 -24h-111l-167 -506q-34 -101 -87.5 -150.5t-146.5 -49.5q-41 0 -72 15.5t-44 38.5q-25 -32 -57.5 -43t-74.5 -11zM291 504l-21 -64h218
l26 80q8 23 16 44t17 39q-9 38 -34.5 67t-70.5 29q-41 0 -69.5 -29t-47.5 -74t-34 -92zM84 -131q-5 -16 -11 -30q15 -45 36 -74.5t59 -29.5q37 0 65 28t49 72t36 91l162 490h-218z" />
    <glyph glyph-name="f_f_i.liga" unicode="ffi" horiz-adv-x="868" 
d="M-100 -290q-61 0 -86 22t-25 47q0 20 14 33.5t35 13.5q22 0 31.5 -14t14 -33t11.5 -33t23 -14q26 0 49 37.5t45 99.5l180 547h-98l7 24h99l26 80q24 68 52.5 113.5t69 68t101.5 22.5q36 0 78.5 -9t73.5 -37q29 26 64.5 36t76.5 10q50 0 80 -9.5t45 -23.5t20.5 -28.5
t5.5 -24.5q0 -21 -15.5 -38.5t-43.5 -17.5q-22 0 -34.5 14.5t-12.5 36.5q0 40 -14 54.5t-43 14.5q-37 0 -70.5 -29.5t-53.5 -91.5l-47 -141h115l162 3l-126 -358q-4 -15 -7 -26.5t-3 -19.5q0 -20 16 -20q22 0 43 23t34 45l18 -12q-19 -31 -49 -60t-73 -29q-31 0 -43.5 15
t-12.5 40q0 16 4 34.5t11 37.5l87 234q8 22 8 35q0 18 -11 25t-28 8t-36 1v0h-118l-170 -506q-34 -100 -85.5 -150t-144.5 -50q-43 0 -74.5 16.5t-42.5 41.5q-26 -34 -58 -46t-75 -12zM290 504l-21 -64h217l34 101q12 35 25 62q-8 38 -33.5 67t-70.5 29q-41 0 -69 -29.5
t-47 -74t-35 -91.5zM312 -74l166 490h-217l-177 -547q-4 -11 -8 -20q12 -52 33 -83t61 -31q37 0 62.5 27t44 70.5t35.5 93.5z" />
    <glyph glyph-name="f_f_j.liga" unicode="ffj" horiz-adv-x="871" 
d="M-100 -290q-61 0 -86 22t-25 47q0 20 14 33.5t35 13.5q22 0 31.5 -14t14 -33t11.5 -33t23 -14q26 0 49.5 37t44.5 100l180 547h-98l7 24h99l26 80q33 103 82.5 153.5t140.5 50.5q36 0 77.5 -8.5t72.5 -35.5q27 25 61.5 34.5t77.5 9.5q51 0 82 -9.5t46.5 -23.5t21 -28.5
t5.5 -24.5q0 -21 -15.5 -38.5t-43.5 -17.5q-22 0 -34.5 14.5t-12.5 36.5q0 40 -15 54.5t-47 14.5q-33 0 -66 -29.5t-53 -91.5l-47 -141h136l162 3l-174 -533q-37 -99 -89.5 -149.5t-144.5 -50.5q-57 0 -92 22.5t-39 52.5q-30 -38 -70.5 -56.5t-97.5 -18.5q-42 0 -73 16
t-43 39q-26 -32 -59 -43.5t-75 -11.5zM290 504l-21 -64h217l34 101q12 36 25 63q-8 38 -34 66.5t-70 28.5q-41 0 -69.5 -29t-47.5 -74t-34 -92zM380 -90q-8 -25 -17 -45q12 -59 33 -94.5t64 -35.5q41 0 70.5 26.5t51 70t37.5 94.5l140 434q5 17 5 24q0 25 -24 28.5t-52 3.5
h-138zM312 -74l166 490h-217l-177 -547q-4 -11 -7 -22q12 -51 32.5 -81.5t60.5 -30.5q37 0 62.5 27t44 70.5t35.5 93.5z" />
    <glyph glyph-name="f_f_k.liga" unicode="ffk" horiz-adv-x="1126" 
d="M-100 -290q-61 0 -86 22t-25 47q0 20 14 33.5t35 13.5q22 0 31.5 -14t14 -33t11.5 -33t23 -14q26 0 49.5 37t44.5 100l181 547h-104l7 24h105l26 80q33 103 82.5 153.5t140.5 50.5q37 0 79 -9t73 -37q28 23 65.5 34.5t89.5 11.5q59 0 105 -17.5t68 -49.5l-121 -372
q40 5 64.5 23t52.5 47l37 39q28 29 49 44.5t46 15.5q27 0 39.5 -11.5t16.5 -26t4 -24.5q0 -22 -11.5 -38.5t-31.5 -16.5q-13 0 -25 8.5t-12 27.5q0 17 -1 24.5t-4 11.5q-3 5 -10 5q-10 0 -20 -8.5t-24 -22.5l-41 -43q-20 -21 -36.5 -36t-39.5 -23q65 -8 87.5 -41t23.5 -104
q1 -49 2.5 -74.5t7.5 -34t19 -8.5t33.5 15.5t40.5 49.5l17 -12q-26 -47 -59 -66.5t-62 -19.5q-43 0 -55 32t-12 114q0 52 -8.5 82t-30.5 42.5t-62 12.5l-88 -269h-72l211 645q-20 28 -47 41t-57 13q-50 0 -83 -29t-54 -74t-36 -92l-21 -64h110l-7 -24h-111l-167 -506
q-34 -101 -87.5 -150.5t-146.5 -49.5q-41 0 -72 15.5t-44 38.5q-25 -32 -57.5 -43t-74.5 -11zM291 504l-21 -64h218l26 80q8 23 16 44t17 39q-9 38 -34.5 67t-70.5 29q-41 0 -69.5 -29t-47.5 -74t-34 -92zM84 -131q-5 -16 -11 -30q15 -45 36 -74.5t59 -29.5q37 0 65 28
t49 72t36 91l162 490h-218z" />
    <glyph glyph-name="f_f_l.liga" unicode="ffl" horiz-adv-x="896" 
d="M-100 -290q-61 0 -86 22t-25 47q0 20 14 33.5t35 13.5q22 0 31.5 -14t14 -33t11.5 -33t23 -14q26 0 49.5 37t44.5 100l181 547h-104l7 24h105l26 80q33 103 82.5 153.5t140.5 50.5q37 0 79 -9t73 -37q28 23 65.5 34.5t89.5 11.5q59 0 105 -17.5t68 -49.5l-192 -588
q-3 -10 -5 -17.5t-2 -13.5q0 -19 16 -19q23 0 44 22t34 46l18 -12q-25 -40 -54.5 -64.5t-70.5 -24.5q-22 0 -38 14.5t-16 42.5q0 11 3.5 23.5t7.5 27.5l180 551q-21 29 -47.5 41.5t-56.5 12.5q-50 0 -83 -29t-54 -74t-36 -92l-21 -64h104l-7 -24h-105l-167 -506
q-34 -101 -87.5 -150.5t-146.5 -49.5q-41 0 -72 15.5t-44 38.5q-25 -32 -57.5 -43t-74.5 -11zM291 504l-21 -64h218l26 80q8 23 16 44t17 39q-9 38 -34.5 67t-70.5 29q-41 0 -69.5 -29t-47.5 -74t-34 -92zM318 -74l162 490h-218l-178 -547q-5 -16 -11 -30q15 -45 36 -74.5
t59 -29.5q37 0 65 28t49 72t36 91z" />
    <glyph glyph-name="f_h.liga" unicode="fh" horiz-adv-x="856" 
d="M-100 -290q-61 0 -86 22t-25 47q0 20 14 33.5t35 13.5q22 0 31.5 -14t14 -33t11.5 -33t23 -14q26 0 49 37.5t45 99.5l184 547h-87l7 24h88l27 80q25 68 53.5 113.5t75 68.5t123.5 23q55 0 97.5 -18t62.5 -50l-111 -306q33 40 80 71.5t104 31.5q50 0 68.5 -18.5
t18.5 -47.5q0 -26 -11 -57l-90 -251q-9 -25 -9 -41q0 -20 16 -20q22 0 43 21.5t34 43.5l18 -12q-19 -31 -49 -58.5t-73 -27.5q-31 0 -43.5 15t-12.5 39q0 15 4 33t11 37l87 246q7 20 7 35q0 20 -11 29t-27 9q-28 0 -58.5 -16.5t-58.5 -42.5t-49.5 -56t-31.5 -57v0l-93 -257
h-72l237 643q-20 30 -45.5 43.5t-51.5 13.5q-53 0 -87 -29.5t-55 -74.5t-36 -92l-21 -64h108l-7 -24h-109l-181 -547q-21 -65 -48 -99.5t-60.5 -47t-77.5 -12.5z" />
    <glyph glyph-name="f_j.liga" unicode="fj" horiz-adv-x="583" 
d="M-100 -290q-61 0 -86 22t-25 47q0 20 14 33.5t35 13.5q22 0 31.5 -14t14 -33t11.5 -33t23 -14q26 0 49 37.5t45 99.5l196 547h-83l7 24h84l56 156q23 65 70 96.5t128 31.5q54 0 85 -9.5t45 -23t17.5 -27t3.5 -22.5q0 -22 -15.5 -41t-43.5 -19q-22 0 -34.5 14.5
t-12.5 36.5q0 40 -14.5 54.5t-43.5 14.5q-33 0 -62.5 -21t-44.5 -66l-62 -175h132l162 3l-187 -533q-34 -100 -85.5 -150t-144.5 -50q-49 0 -83 21.5t-39 50.5q-28 -42 -62 -57t-81 -15zM86 -126q12 -62 33 -100.5t66 -38.5q37 0 62 27t43.5 70.5t36.5 93.5l157 434
q3 8 4 14t1 10q0 23 -21 27.5t-47 4.5h-142l-194 -543z" />
    <glyph glyph-name="f_k.liga" unicode="fk" horiz-adv-x="816" 
d="M-100 -290q-61 0 -86 22t-25 47q0 20 14 33.5t35 13.5q22 0 31.5 -14t14 -33t11.5 -33t23 -14q26 0 49 37.5t45 99.5l185 547h-105l7 24h106l27 80q25 68 53.5 113.5t75 68t123.5 22.5q55 0 97.5 -17.5t62.5 -49.5l-133 -370q34 6 56.5 23.5t48.5 44.5l37 39
q28 29 49.5 44.5t50.5 15.5q27 0 38 -15.5t11 -31.5q0 -19 -8.5 -34.5t-28.5 -15.5q-11 0 -21 7t-10 23t-5 22q-3 5 -11 5q-12 0 -23 -8t-26 -23l-41 -43q-20 -21 -36.5 -36t-40.5 -23q52 -7 81 -32.5t30 -82.5l1 -52q1 -25 1.5 -46.5t6 -35t21.5 -13.5q13 0 33.5 15.5
t40.5 49.5l17 -12q-26 -47 -59 -66.5t-62 -19.5q-42 0 -54.5 31t-12.5 94v48q0 52 -20 79.5t-71 30.5l-97 -269h-72l237 642q-20 30 -45.5 43.5t-51.5 13.5q-53 0 -86.5 -29.5t-54.5 -74t-38 -91.5l-21 -64h91l-7 -24h-92l-183 -547q-24 -64 -49.5 -98.5t-58 -47.5
t-76.5 -13z" />
    <glyph glyph-name="f_t.liga" unicode="ft" horiz-adv-x="607" 
d="M-99 -290q-61 0 -86 23t-25 50q0 20 14 33.5t35 13.5q22 0 31.5 -15t14 -34t11.5 -34t23 -15q26 0 49.5 38.5t44.5 102.5l177 543h-87l8 24h87l36 112q32 98 85 135t117 37q55 0 79.5 -22t24.5 -48q0 -20 -10.5 -36.5t-35.5 -16.5q-23 0 -32 14t-9 36q0 29 -7.5 40
t-27.5 11q-19 0 -46 -18t-45 -73l-56 -171h209l31 86h67l-30 -86h92l-8 -24h-93l-117 -334q-8 -24 -8 -36q0 -27 24 -27q23 0 44 21.5t34 43.5l18 -12q-19 -31 -51.5 -58.5t-81.5 -27.5q-29 0 -42 15.5t-13 40.5q0 14 4 31.5t11 36.5l110 306h-208l-178 -543
q-22 -66 -48 -101.5t-59 -48.5t-77 -13z" />
    <glyph glyph-name="t_t.liga" unicode="tt" horiz-adv-x="584" 
d="M104 -14q-33 0 -46.5 15.5t-13.5 40.5q0 14 4 31.5t11 36.5l67 179l46 127h-65l8 24h66l31 86h67l-31 -86h209l31 86h67l-30 -86h92l-8 -24h-93l-117 -334q-8 -24 -8 -36q0 -27 24 -27q23 0 44 21.5t34 43.5l18 -12q-19 -31 -51.5 -58.5t-81.5 -27.5q-29 0 -42 15.5
t-13 40.5q0 14 4 31.5t11 36.5l110 306h-208l-120 -334q-8 -24 -8 -36q0 -27 24 -27q23 0 44 21.5t34 43.5l18 -12q-19 -31 -50 -58.5t-78 -27.5z" />
    <glyph glyph-name=".notdef" horiz-adv-x="870" 
d="M9 0l231 710h710l-231 -710h-710zM483 379l398 301h-601zM59 58l400 302l-205 303zM705 49l197 609l-402 -304zM72 30h610l-207 306z" />
    <glyph glyph-name=".null" 
 />
    <glyph glyph-name="nonmarkingreturn" horiz-adv-x="333" 
 />
    <glyph glyph-name="CR" unicode="&#xd;" horiz-adv-x="250" 
 />
    <glyph glyph-name="space" unicode=" " horiz-adv-x="250" 
 />
    <glyph glyph-name="exclam" unicode="!" horiz-adv-x="275" 
d="M146 199l-28 9l103 452q8 34 25.5 47t39.5 13q16 0 29.5 -11t13.5 -34q0 -16 -7 -33zM91 -11q-26 0 -43 17.5t-17 42.5q0 23 17 40.5t43 17.5q24 0 41 -17.5t17 -40.5q0 -25 -17 -42.5t-41 -17.5z" />
    <glyph glyph-name="quotedbl" unicode="&#x22;" horiz-adv-x="327" 
d="M222 507l-23 4l21 137q5 32 16.5 52t31.5 20q24 0 24 -30q0 -21 -10 -42zM345 507l-23 4l21 137q5 32 16.5 52t31.5 20q24 0 24 -30q0 -21 -10 -42z" />
    <glyph glyph-name="numbersign" unicode="#" horiz-adv-x="707" 
d="M162 0l69 237h-175l9 31h175l52 179h-177l9 32h177l67 231h36l-67 -231h196l67 231h37l-67 -231h192l-9 -32h-192l-52 -179h193l-9 -31h-193l-68 -237h-37l68 237h-196l-68 -237h-37zM276 268h196l52 179h-196z" />
    <glyph glyph-name="dollar" unicode="$" horiz-adv-x="589" 
d="M171 -115l38 116q-31 10 -52.5 23t-37 22.5t-27.5 9.5q-15 0 -25.5 -17t-18.5 -35l-26 15l44 130l31 122l27 -2l-3 -40v-29q5 -135 97 -172l102 316l-26 25q-23 23 -49.5 49t-45 58t-18.5 73q0 51 26 89.5t71.5 60t105.5 21.5q16 0 30 -2t26 -5l38 117h25l-40 -124
q39 -15 61.5 -34t35.5 -19q8 0 14.5 9.5t12.5 31.5l27 -1l-27 -112l-17 -111l-26 1v30q-1 58 -20.5 108.5t-68.5 71.5l-89 -273l36 -35q52 -49 79.5 -94t27.5 -92q0 -55 -27.5 -100t-76 -71.5t-112.5 -26.5q-17 0 -32.5 1.5t-28.5 4.5l-36 -110h-25zM265 567q0 -47 24 -78
t58 -63l85 262q-17 4 -37 4q-34 0 -64 -15.5t-48 -43.5t-18 -66zM340 325l-1 1l-99 -305q19 -4 41 -4q66 0 105.5 40t39.5 97q0 56 -21 93t-65 78z" />
    <glyph glyph-name="percent" unicode="%" horiz-adv-x="819" 
d="M224 309q-52 0 -79 25t-27 68q0 34 16.5 67t44.5 59.5t64 42t74 15.5q53 0 80 -25t27 -65q0 -36 -16.5 -69.5t-45 -60t-64.5 -42t-74 -15.5zM61 0l682 575h55l-682 -575h-55zM229 336q30 0 55 16.5t43.5 42.5t28.5 54.5t10 52.5q0 57 -57 57q-29 0 -53.5 -16.5
t-42.5 -42.5t-28 -54.5t-10 -52.5q0 -57 54 -57zM550 -14q-52 0 -79 25t-27 68q0 34 16.5 67t44.5 59.5t64 42t74 15.5q53 0 80 -25t27 -65q0 -36 -16.5 -69.5t-45 -60t-64.5 -42t-74 -15.5zM555 13q30 0 55 16.5t43.5 42.5t28.5 54.5t10 52.5q0 57 -57 57
q-29 0 -53.5 -16.5t-42.5 -42.5t-28 -54.5t-10 -52.5q0 -57 54 -57z" />
    <glyph glyph-name="ampersand" unicode="&#x26;" horiz-adv-x="793" 
d="M227 -14q-45 0 -90 17t-74.5 56t-29.5 103q0 53 21 94.5t56.5 73t78.5 55t86 40.5q-9 26 -13.5 50.5t-4.5 48.5q0 59 28 104t74.5 70.5t102.5 25.5q53 0 82.5 -26.5t29.5 -58.5q0 -35 -20.5 -66t-52 -57.5t-66 -47.5t-62.5 -36q12 -31 29.5 -64.5t36.5 -67.5l24 -42
t24 -41q15 23 33 53q39 65 81 105t102 40q39 0 59 -13.5t26.5 -31t6.5 -30.5q0 -22 -13.5 -42t-41.5 -20q-19 0 -30 14t-11 36q0 27 -1 41.5t-21 14.5q-33 0 -67 -37t-70 -97q-19 -32 -36 -58q42 -63 92.5 -105.5t113.5 -42.5q31 0 54 18t51 55l18 -14q-46 -65 -91 -91
t-100 -26q-54 0 -97.5 31.5t-92.5 99.5q-56 -73 -107.5 -102t-117.5 -29zM348 530q0 -16 4 -34t11 -39q48 23 89 52t66 62t25 68q0 23 -18 38t-46 15q-40 0 -69.5 -21.5t-45.5 -58.5t-16 -82zM123 170q0 -66 33.5 -109t95.5 -43q52 0 94.5 29t89.5 94q-16 23 -33 50.5
t-36 58.5q-26 39 -47 76.5t-36 74.5q-80 -43 -120.5 -98.5t-40.5 -132.5z" />
    <glyph glyph-name="quotesingle" unicode="'" horiz-adv-x="187" 
d="M222 507l-23 4l21 137q5 32 16.5 52t31.5 20q24 0 24 -30q0 -21 -10 -42z" />
    <glyph glyph-name="parenleft" unicode="(" horiz-adv-x="337" 
d="M497 784q-76 -58 -146 -136t-124.5 -169.5t-86 -190.5t-31.5 -199q0 -84 16.5 -144t25.5 -87h-23q-15 18 -35.5 58t-35.5 91t-15 102q0 82 27.5 164t72.5 158.5t99.5 144t110.5 121t103 87.5h42z" />
    <glyph glyph-name="parenright" unicode=")" horiz-adv-x="337" 
d="M-98 -142q76 58 146 136t124.5 169.5t86 190.5t31.5 199q0 84 -16.5 144t-25.5 87h23q16 -18 36 -58t35 -91t15 -102q0 -82 -27.5 -164t-72.5 -158.5t-99.5 -144t-110.5 -120.5t-103 -88h-42z" />
    <glyph glyph-name="asterisk" unicode="*" horiz-adv-x="520" 
d="M363 305q-23 0 -31.5 14t-8.5 36q0 19 8.5 40t16.5 47t8 56q-26 -15 -45 -34t-34.5 -35.5t-31.5 -26.5t-31 -10q-21 0 -31 19q-7 14 -7 22q0 12 8.5 21t21.5 17q16 9 38.5 13t49 10t52.5 21q-25 18 -50 26t-47 14.5t-38 16.5q-12 8 -19.5 17.5t-7.5 20.5t9 23
q12 17 30 17q15 0 34 -14q15 -10 28 -28.5t30 -38.5t41 -38q0 31 -7.5 56t-15.5 47t-8 40q0 22 8.5 36t31.5 14q19 0 29 -13.5t10 -36.5q0 -18 -7 -40t-14.5 -47t-7.5 -56q37 26 57.5 57.5t41.5 47.5q19 14 34 14q18 0 30 -17q9 -12 9 -23t-7.5 -20.5t-19.5 -17.5
q-15 -10 -37.5 -16.5t-47.5 -14.5t-50 -26q27 -15 53 -21t48.5 -10t38.5 -13q14 -8 22 -17t8 -20q0 -10 -7 -23q-11 -19 -31 -19q-15 0 -31 10t-31.5 26.5t-34 35.5t-45.5 34q0 -30 7 -56t13.5 -47t6.5 -40q0 -22 -10 -36t-29 -14z" />
    <glyph glyph-name="plus" unicode="+" horiz-adv-x="556" 
d="M219 106l71 194h-201l13 36h201l70 193h36l-70 -193h199l-13 -36h-199l-71 -194h-36z" />
    <glyph glyph-name="comma" unicode="," horiz-adv-x="292" 
d="M-63 -179l-5 28q36 8 71.5 21.5t64 37t41.5 61.5q7 21 7 44q0 9 -2 18t-8 15l-3 -4q2 -4 2 -10q2 -20 -10 -35t-36 -15q-25 0 -41.5 19.5t-16.5 44.5t17 43t45 18q31 0 55.5 -24.5t26.5 -62.5q4 -49 -21.5 -90.5t-69.5 -67.5q-29 -18 -60.5 -27t-56.5 -14z" />
    <glyph glyph-name="hyphen" unicode="-" horiz-adv-x="388" 
d="M53 196l12 36h267l-12 -36h-267z" />
    <glyph glyph-name="period" unicode="." horiz-adv-x="245" 
d="M61 -11q-26 0 -43 17.5t-17 42.5q0 23 17 40.5t43 17.5q24 0 41 -17.5t17 -40.5q0 -25 -17 -42.5t-41 -17.5z" />
    <glyph glyph-name="slash" unicode="/" horiz-adv-x="257" 
d="M-129 -135l574 969h35l-574 -969h-35z" />
    <glyph glyph-name="zero" unicode="0" horiz-adv-x="490" 
d="M185 -11q-73 0 -108 41.5t-35 100.5t25 118.5t67.5 109.5t95.5 80t110 30q74 0 106.5 -40t32.5 -101q0 -60 -24 -119.5t-65.5 -109.5t-94.5 -80t-110 -30zM196 14q44 0 82.5 31.5t67.5 82t45 109.5t16 114q0 41 -17.5 67t-58.5 26q-37 0 -70 -22t-59.5 -58.5t-46.5 -80.5
t-30.5 -89.5t-10.5 -84.5q0 -45 21.5 -70t60.5 -25z" />
    <glyph glyph-name="one" unicode="1" horiz-adv-x="306" 
d="M-41 -3l8 23l17 2q30 4 47.5 9.5t31 25t29.5 64.5l79 216q11 31 11 47q0 24 -18 30t-47 6l11 30q24 0 54 2.5t59.5 8.5t49.5 14l-129 -354q-18 -49 -18 -68q0 -18 13.5 -23t40.5 -8l15 -2l-8 -23l-122 3z" />
    <glyph glyph-name="two" unicode="2" horiz-adv-x="427" 
d="M208 -88l4 16q3 13 5 23.5t2 17.5q0 18 -16.5 24.5t-63.5 6.5h-144l7 20l84 61q39 28 80.5 60t76.5 66.5t57 71.5t22 75q0 45 -22 64.5t-55 19.5q-42 0 -73 -23.5t-47.5 -57t-16.5 -63.5q0 -22 8.5 -35.5t19.5 -18.5l-18 -22q-19 11 -29.5 31t-10.5 44q0 44 23.5 84
t66.5 66t102 26q60 0 96.5 -30t36.5 -82q0 -40 -24.5 -77t-62.5 -69.5t-81 -60t-81 -50.5l-60 -36l204 15l-33 -69l-34 -98h-23z" />
    <glyph glyph-name="three" unicode="3" horiz-adv-x="426" 
d="M-19 -294q-33 0 -65.5 11.5t-53.5 36.5t-21 66q0 26 14.5 44.5t42.5 18.5q11 0 26.5 -9.5t15.5 -35.5q0 -16 -7.5 -25t-15.5 -17t-8 -22q0 -13 19 -27t53 -14q50 0 93.5 28.5t76 71.5t51 90.5t18.5 84.5q0 47 -20 65.5t-51 18.5q-19 0 -38 -6t-34 -13v26q16 6 26 10.5
t26 14.5q35 20 70.5 43.5t65 51.5t48 62.5t18.5 74.5q0 35 -21 58.5t-65 23.5q-40 0 -71.5 -21.5t-49.5 -54t-18 -65.5q0 -25 11.5 -40t24.5 -21l-17 -23q-23 12 -36 34t-13 46q0 47 25.5 87t69.5 64.5t100 24.5q73 0 107 -33t34 -80q0 -59 -50 -112t-130 -91l-77 -35
q5 0 12.5 1t19.5 1q53 0 81.5 -32.5t28.5 -79.5q0 -58 -26.5 -112t-72 -97t-102 -68t-115.5 -25z" />
    <glyph glyph-name="four" unicode="4" horiz-adv-x="512" 
d="M385 -3l-122 3l-124 -2l9 23l16 1q30 4 47.5 9.5t31 25t30.5 64.5l34 91h-295l11 29l501 440h22l-159 -436h112l-12 -33h-112l-33 -91q-18 -49 -18 -68q0 -18 13.5 -23t40.5 -8l15 -2zM65 245h254l123 330z" />
    <glyph glyph-name="five" unicode="5" horiz-adv-x="453" 
d="M105 -14q-53 0 -89.5 29.5t-36.5 81.5q0 29 16.5 45t38.5 16q24 0 34.5 -13.5t10.5 -24.5q0 -18 -7.5 -26.5t-15.5 -16t-8 -23.5t15.5 -29t44.5 -13q47 0 88 31.5t72 81t49 106t18 105.5q0 47 -19.5 66t-46.5 19q-34 0 -64.5 -20.5t-52.5 -46.5h-19l158 362h26l-12 -27
l39 -1h31q41 0 78 3.5t61 14.5h10l-4 -10q-13 -36 -42.5 -53t-72 -22.5t-94.5 -5.5h-36l-88 -199q24 17 52.5 27.5t57.5 10.5q53 0 86 -32.5t33 -100.5q0 -55 -25 -114t-68.5 -109t-99.5 -81t-118 -31z" />
    <glyph glyph-name="six" unicode="6" horiz-adv-x="515" 
d="M190 -14q-64 0 -100 37.5t-36 104.5q0 33 9.5 79.5t25.5 99.5q28 90 70 166t94 132.5t111.5 87.5t122.5 31q21 0 42.5 -5.5t36 -18.5t14.5 -36q0 -21 -14.5 -38t-38.5 -17q-22 0 -33 12t-11 31q0 41 -38 41t-86.5 -40t-99 -125t-94.5 -220q46 69 93.5 96t89.5 27
q32 0 60 -13t45 -40.5t17 -72.5q0 -56 -23.5 -112.5t-63.5 -103t-90 -75t-103 -28.5zM195 11q41 0 76 30.5t61.5 78t41.5 100.5t15 98q0 85 -63 85q-30 0 -59 -20.5t-55 -54.5t-46 -75t-31.5 -83t-11.5 -78q0 -40 20.5 -60.5t51.5 -20.5z" />
    <glyph glyph-name="seven" unicode="7" horiz-adv-x="468" 
d="M-24 -294q-23 0 -23 23q0 14 8.5 33t26.5 41l437 565h-314l-37 -100h-22l85 232h22l-18 -50h357l-6 -16l-434 -665q-25 -38 -46 -50.5t-36 -12.5z" />
    <glyph glyph-name="eight" unicode="8" horiz-adv-x="491" 
d="M184 -14q-72 0 -114.5 41t-42.5 99q0 82 62.5 141.5t167.5 112.5q-25 37 -49 80t-24 87q0 50 30 90t81.5 63t115.5 23q59 0 96 -30.5t37 -78.5q0 -49 -27.5 -90t-73 -74.5t-98.5 -57.5q21 -27 44 -58t39 -65.5t16 -70.5q0 -43 -21.5 -81.5t-58.5 -68t-83.5 -46
t-96.5 -16.5zM264 554q0 -35 17 -66.5t46 -72.5q49 21 91 49.5t68 64.5t26 78q0 39 -28 61.5t-72 22.5q-47 0 -80.5 -19t-50.5 -50t-17 -68zM59 134q0 -55 33.5 -86t94.5 -31q59 0 98 23.5t58.5 62.5t19.5 87t-26 85t-64 83q-97 -48 -155.5 -101t-58.5 -123z" />
    <glyph glyph-name="nine" unicode="9" horiz-adv-x="511" 
d="M396 720q64 0 100 -37t36 -105q0 -33 -9 -79.5t-26 -99.5q-28 -90 -70 -166t-94 -132.5t-111.5 -87.5t-122.5 -31q-20 0 -42 5.5t-36.5 18.5t-14.5 36q0 21 14.5 38t38.5 17q23 0 33.5 -12t10.5 -31q0 -41 38 -41t86.5 40t99 125t94.5 220q-46 -69 -93.5 -96t-89.5 -27
q-32 0 -60 13t-45 41t-17 72q0 56 23.5 112.5t63.5 103t90 75t103 28.5zM391 695q-40 0 -75.5 -30.5t-62 -78t-41.5 -100.5t-15 -98q0 -85 63 -85q30 0 59 20.5t55 54.5t46 75t31.5 83t11.5 78q0 40 -20.5 60.5t-51.5 20.5z" />
    <glyph glyph-name="colon" unicode=":" horiz-adv-x="273" 
d="M180 314q-26 0 -43 17.5t-17 42.5q0 23 17 40.5t43 17.5q24 0 41 -17.5t17 -40.5q0 -25 -17 -42.5t-41 -17.5zM89 -11q-26 0 -43 17.5t-17 42.5q0 23 17 40.5t43 17.5q24 0 41 -17.5t17 -40.5q0 -25 -17 -42.5t-41 -17.5z" />
    <glyph glyph-name="semicolon" unicode=";" horiz-adv-x="304" 
d="M-51 -179l-5 28q36 8 71.5 21.5t64 37t41.5 61.5q7 21 7 44q0 9 -2 18t-8 15l-3 -4q2 -4 2 -10q2 -20 -10 -35t-36 -15q-25 0 -41.5 19.5t-16.5 44.5t17 43t45 18q31 0 55.5 -24.5t26.5 -62.5q4 -49 -21.5 -90.5t-69.5 -67.5q-29 -18 -60.5 -27t-56.5 -14zM179 313
q-26 0 -43 17.5t-17 42.5q0 23 17 40.5t43 17.5q24 0 41 -17.5t17 -40.5q0 -25 -17 -42.5t-41 -17.5z" />
    <glyph glyph-name="less" unicode="&#x3c;" horiz-adv-x="492" 
d="M471 492l-6 -41l-329 -130l245 -132l-8 -37l-303 163l8 21z" />
    <glyph glyph-name="equal" unicode="=" horiz-adv-x="566" 
d="M111 357l14 35h444l-14 -35h-444zM63 226l15 35h444l-15 -35h-444z" />
    <glyph glyph-name="greater" unicode="&#x3e;" horiz-adv-x="502" 
d="M71 152l6 41l329 130l-245 132l8 37l303 -163l-8 -21z" />
    <glyph glyph-name="question" unicode="?" horiz-adv-x="460" 
d="M143 172q-16 0 -24 10t-8 25q0 9 3 19l66 237l22 1v-16q1 -33 19.5 -52t53.5 -19q36 0 68 24t56.5 62t38.5 80t14 77q0 38 -20 56t-55 18q-76 0 -74 -56q2 -31 -13.5 -44t-36.5 -13q-19 0 -31 10t-12 29q0 31 25 53t63.5 34.5t78.5 12.5q62 0 104.5 -32t42.5 -91
q0 -46 -20.5 -90t-56 -79.5t-80 -56.5t-91.5 -21q-26 0 -46.5 9t-33.5 23l-12 -165q-1 -22 -13 -33.5t-28 -11.5zM131 -11q-26 0 -43 17.5t-17 42.5q0 23 17 40.5t43 17.5q24 0 41 -17.5t17 -40.5q0 -25 -17 -42.5t-41 -17.5z" />
    <glyph glyph-name="at" unicode="@" horiz-adv-x="843" 
d="M416 -139q-103 0 -183.5 41t-126.5 118.5t-46 184.5q0 94 34.5 169.5t94 129t136.5 82t162 28.5q91 0 161 -35t110 -100t40 -156q0 -69 -26.5 -129.5t-79 -97.5t-130.5 -37q-47 0 -67.5 17t-20.5 44q0 4 0.5 8.5t1.5 8.5q-24 -34 -55 -56t-69 -22q-39 0 -64 19.5t-37 49
t-12 59.5q0 51 24 96.5t62 80t81.5 54.5t82.5 20q32 0 51.5 -18t22.5 -56l25 63h65l-96 -255q-4 -11 -6 -21.5t-2 -19.5q0 -43 39 -43q41 0 82.5 30t69.5 83t28 122q0 80 -34.5 138.5t-98 90.5t-149.5 32q-70 0 -136.5 -26t-119 -75t-83.5 -119.5t-31 -160.5q0 -88 36 -158
t104.5 -111t167.5 -41q48 0 96.5 10t85.5 25l11 -25q-37 -19 -91 -30.5t-110 -11.5zM363 84q30 0 60 27.5t55 67t40 75.5q22 52 22 93q0 29 -12.5 47.5t-38.5 18.5q-33 0 -64.5 -21.5t-57.5 -58t-41 -82.5t-15 -94q0 -28 10.5 -50.5t41.5 -22.5z" />
    <glyph glyph-name="A" unicode="A" horiz-adv-x="662" 
d="M-70 -3l8 25l21 2q52 5 78 31t47 57l424 612l22 -14v-596q0 -27 4 -46t19.5 -29.5t51.5 -14.5l19 -2l-8 -25l-145 3l-145 -3l8 25l21 2q44 5 68.5 21.5t24.5 70.5v142h-229l-102 -147q-22 -32 -22 -51q0 -30 65 -36l19 -2l-8 -25l-118 3zM237 284h211v306z" />
    <glyph glyph-name="B" unicode="B" horiz-adv-x="665" 
d="M-23 -3l8 25l21 2q55 5 79.5 28t40.5 72l163 492q3 11 5 18.5t2 14.5q0 18 -16.5 25.5t-57.5 11.5l-19 2l8 25l145 -3l62 1q70 1 124 -12.5t85.5 -45.5t33.5 -87q1 -36 -13 -64.5t-36 -50.5q-29 -28 -69 -45.5t-84 -25.5q75 -14 117 -53t42 -104q0 -40 -15.5 -73
t-42.5 -60q-44 -44 -116.5 -67t-166.5 -23h-151zM398 685h-9l-95 -288h92q87 0 140 47.5t50 127.5q-1 61 -48 88t-130 25zM269 26q76 0 136 26.5t94.5 74t34.5 108.5q0 77 -42 107t-117 30h-89l-88 -266q-2 -7 -4 -17t-2 -17q0 -26 20 -36t57 -10z" />
    <glyph glyph-name="C" unicode="C" horiz-adv-x="700" 
d="M325 -11q-61 0 -116 24.5t-89.5 77.5t-34.5 137q0 72 21.5 143.5t60.5 135t93 112.5t119.5 77t138.5 28q44 0 75 -9t52.5 -21.5t35.5 -21.5t24 -9q8 0 19 12t18 22h26l-38 -103l-35 -109h-26q2 14 3 26t1 24q0 79 -41 119t-106 40q-53 0 -104 -24.5t-96 -67.5t-79 -99.5
t-53.5 -121t-19.5 -132.5q0 -104 43 -166.5t123 -62.5q39 0 80 18.5t79.5 50t69.5 72.5t49 86h26l-50 -141l-28 -106h-26q1 6 1.5 12t0.5 11q0 21 -14 21q-10 0 -35.5 -13.5t-67 -27.5t-100.5 -14z" />
    <glyph glyph-name="D" unicode="D" horiz-adv-x="789" 
d="M-49 -3l9 25l21 2q39 4 60 9.5t32.5 18.5t19.5 36l192 529q8 22 8 34q0 17 -16 24t-56 11l-19 2l9 25l147 -3h1l82 3q107 4 186.5 -26t124 -90t44.5 -147q0 -73 -24 -139.5t-68 -120.5q-47 -59 -112.5 -101.5t-143.5 -65.5t-163 -23h-185zM252 26h34q92 0 169 36
t133 96.5t87 137t31 157.5q0 68 -26.5 121t-88 83t-167.5 27l-35 -1l-200 -550q-12 -34 -12 -56q0 -26 12.5 -36.5t30.5 -12.5t32 -2z" />
    <glyph glyph-name="E" unicode="E" horiz-adv-x="695" 
d="M-23 -3l8 25l21 2q54 5 75.5 15.5t31.5 41.5l175 536q3 11 5 19t2 14q0 17 -16 24.5t-57 11.5l-19 2l8 25l147 -3h337v-60l3 -123h-26q-1 45 -13.5 80.5t-40.5 56.5t-76 21h-151l-98 -297h141q22 0 39 7.5t33.5 33t36.5 79.5h26l-47 -137l-43 -145h-26q9 28 13 49t4 37
q0 27 -12 38.5t-32 11.5h-141l-65 -197q-7 -22 -11.5 -42t-4.5 -34q0 -35 23 -50.5t68 -14.5l138 1q58 1 95.5 22t64 62t50.5 101h26l-45 -136l-22 -74h-476z" />
    <glyph glyph-name="F" unicode="F" horiz-adv-x="599" 
d="M-20 -3l9 25l21 2q31 3 50 8t32 20.5t26 47.5l174 531q3 11 3 19q0 17 -16 24.5t-57 11.5l-19 2l8 25l147 -3l326 -1l6 -183h-26q-1 45 -13.5 81t-40.5 57t-76 21h-144l-107 -327h132q22 0 39 7.5t34 33t36 79.5h26l-51 -137l-39 -145h-26q9 28 13 49t4 37q0 27 -12 38.5
t-32 11.5h-133l-80 -245q-6 -16 -6 -27q0 -19 21 -24.5t75 -11.5l19 -2l-9 -25l-169 3z" />
    <glyph glyph-name="G" unicode="G" horiz-adv-x="762" 
d="M334 -14q-85 0 -140 33.5t-81.5 90t-26.5 125.5q0 67 20 136t58 132t91.5 113t120 79t144.5 29q44 0 75 -9t52.5 -21.5t35.5 -21.5t23 -9t18 10t19 23h26l-40 -103l-35 -108h-26q2 14 3 26t1 24q0 73 -37.5 116t-108.5 43q-56 0 -108 -25.5t-96 -70.5t-77 -102
t-51.5 -121t-18.5 -127q0 -114 48.5 -173t127.5 -59q48 0 93.5 19.5t78.5 49.5t42 59l22 63q3 9 3 15q0 17 -13 27t-34 11l-45 4l7 26l139 -4l131 4l-7 -25l-37 -4q-25 -3 -40.5 -18t-22.5 -35l-31 -88q-3 -9 -3 -16q0 -17 10 -27.5t15 -18.5l-25 -26q-10 12 -22.5 26.5
t-28.5 14.5q-12 0 -31.5 -13t-49 -30.5t-71 -30.5t-97.5 -13z" />
    <glyph glyph-name="H" unicode="H" horiz-adv-x="839" 
d="M-23 -3l8 25l21 2q37 4 59.5 15t37.5 34t28 63l160 488q6 17 6 27q0 17 -17 24t-58 11l-19 2l8 25l149 -3l149 3l-8 -25l-21 -2q-36 -3 -59 -14t-38 -34.5t-29 -64.5l-64 -197h374l81 248q5 17 5 26q0 17 -16.5 24.5t-57.5 11.5l-19 2l8 25l149 -3l149 3l-8 -25l-21 -2
q-36 -3 -59 -13.5t-38 -33.5t-29 -66l-156 -476q-4 -11 -6 -19.5t-2 -16.5q0 -19 17.5 -26t57.5 -11l19 -2l-8 -25l-149 3l-149 -3l8 25l21 2q34 4 56 12.5t36.5 28t26.5 56.5l73 224h-374l-81 -249q-7 -21 -7 -36q0 -18 16 -25t57 -11l19 -2l-8 -25l-149 3z" />
    <glyph glyph-name="I" unicode="I" horiz-adv-x="384" 
d="M-23 -3l8 25l21 2q37 4 59 14t37 33t29 65l160 488q4 13 4 26q0 18 -16 25t-57 11l-19 2l8 25l149 -3l149 3l-8 -25l-21 -2q-36 -3 -58.5 -13t-37.5 -33t-30 -67l-156 -477q-3 -11 -5 -20t-2 -16q0 -18 16 -25t57 -11l19 -2l-8 -25l-149 3z" />
    <glyph glyph-name="J" unicode="J" horiz-adv-x="430" 
d="M87 -14q-37 0 -69.5 10t-53 29.5t-20.5 49.5q0 20 12.5 32.5t32.5 12.5q26 0 37 -17t16 -40q6 -22 13 -38t35 -16t46 26.5t34.5 73.5t36.5 108l130 397q3 11 5 20t2 16q0 18 -16 25t-57 11l-19 2l8 25l149 -3l149 3l-8 -25l-21 -2q-34 -3 -57 -12t-38.5 -32t-30.5 -68
l-139 -427q-10 -33 -21 -62t-29 -51t-48 -35t-79 -13z" />
    <glyph glyph-name="K" unicode="K" horiz-adv-x="721" 
d="M-33 -3l8 25l21 2q37 4 59 13.5t37 32.5t29 66l163 499q4 9 4 18q0 19 -19.5 24.5t-47.5 8.5l-19 2l9 25l139 -3l128 3l-13 -27q-34 -4 -54.5 -11t-34.5 -27.5t-30 -67.5l-88 -271l344 278q46 38 46 66q0 30 -53 34l-14 1l9 25l123 -4l114 4l-9 -25l-22 -3
q-22 -3 -57.5 -25.5t-83.5 -60.5l-219 -178l115 -282q23 -60 52.5 -85t75.5 -32l-9 -25l-111 3l-166 -2l9 25l18 3q41 6 55 18t14 27q0 7 -2 14.5t-5 15.5l-110 268l-129 -104l-55 -169q-3 -11 -5 -20t-2 -16q0 -18 16 -25t57 -11l19 -2l-8 -25l-149 3z" />
    <glyph glyph-name="L" unicode="L" horiz-adv-x="646" 
d="M-23 -3l8 25l21 2q36 4 56.5 9t31.5 15.5t18 31.5l179 544q6 17 6 27q0 18 -17 24.5t-58 10.5l-19 2l8 25l149 -3l149 3l-8 -25l-21 -2q-36 -3 -59 -13t-38 -33t-29 -66l-135 -413q-9 -27 -14.5 -48t-5.5 -36q0 -29 22 -41.5t77 -12.5h75q86 0 141 48t90 139h26l-78 -213
l-435 3z" />
    <glyph glyph-name="M" unicode="M" horiz-adv-x="916" 
d="M-26 -3l8 25l21 2q34 4 53.5 10t32 24t23.5 58l175 536q-12 14 -25 21.5t-33 9.5l-38 5l8 25l118 -3h56l60 -593l377 593h47l145 3l-8 -25l-21 -2q-24 -2 -44 -7.5t-34 -19.5t-21 -44l-116 -519q-3 -11 -5 -20t-2 -16q0 -18 16 -25t57 -11l19 -2l-8 -25l-149 3l-149 -3
l8 25l21 2q37 4 60 13.5t38.5 32.5t26.5 67l116 515l-412 -645h-30l-62 605l-167 -522q-2 -9 -3.5 -16.5t-1.5 -13.5q0 -20 17 -26t56 -10l19 -2l-8 -25l-118 3z" />
    <glyph glyph-name="N" unicode="N" horiz-adv-x="793" 
d="M-13 -3l9 25l21 2q31 3 51 9.5t33 22.5t23 47l166 529q-12 25 -24.5 38t-32.5 15l-31 3l9 25l117 -3h18l266 -588l155 502q3 9 4 16t1 13q-1 17 -17 23t-54 10l-19 2l9 25l117 -3l123 3l-9 -25l-21 -2q-31 -3 -51 -8.5t-33 -21.5t-23 -49l-190 -607h-30l-266 590
l-158 -509q-4 -13 -4 -24q1 -17 17 -23t54 -10l19 -2l-9 -25l-117 3z" />
    <glyph glyph-name="O" unicode="O" horiz-adv-x="778" 
d="M342 -14q-70 0 -128.5 28.5t-93 85.5t-34.5 141q0 69 22.5 138t63.5 131t97.5 110.5t125 76t145.5 27.5q71 0 127.5 -30t89.5 -87t33 -138q0 -70 -22.5 -139t-63 -131t-96.5 -110t-123.5 -75.5t-142.5 -27.5zM345 16q55 0 107 26t96.5 71.5t79 104.5t53.5 126.5t19 136.5
q0 101 -43 157.5t-121 56.5q-55 0 -107.5 -26t-98 -72.5t-80 -106t-54 -127.5t-19.5 -138q0 -99 44.5 -154t123.5 -55z" />
    <glyph glyph-name="P" unicode="P" horiz-adv-x="637" 
d="M-25 -3l9 25l22 2q50 5 75.5 26t43.5 75l167 505q3 12 3 20q0 17 -16.5 24.5t-57.5 11.5l-19 2l9 25l147 -3h11l97 1q133 2 197.5 -47t64.5 -130q0 -67 -39 -119.5t-114.5 -82.5t-186.5 -30q-22 0 -48.5 1.5t-73.5 5.5l-70 -213q-4 -10 -5.5 -19.5t-1.5 -16.5
q0 -18 18 -25t64 -12l19 -2l-9 -24l-157 3zM389 683l-114 -346q46 -2 68 -3t31 -1q77 0 128.5 19t82 49.5t44 67t13.5 70.5q0 70 -47.5 107t-122.5 37h-83z" />
    <glyph glyph-name="Q" unicode="Q" horiz-adv-x="804" 
d="M33 -150q-15 0 -24.5 8t-9.5 25q0 31 32 46.5t82 15.5q22 0 46 -3l149 49q-58 9 -103.5 40.5t-72 84t-26.5 125.5q0 69 22.5 138t63.5 131t97.5 110.5t125 76t145.5 27.5q71 0 127.5 -30t89.5 -87t33 -138q0 -70 -22.5 -139t-63 -131t-96.5 -110t-123.5 -75.5
t-142.5 -27.5h-10l-103 -34l-33 -11q68 -1 121.5 -28t93.5 -67q16 -16 37 -34.5t46 -31t53 -12.5q31 0 61.5 22t41.5 74l20 -2q-13 -76 -45 -116t-88 -40q-49 0 -84 17t-64 44.5t-59 58.5q-42 42 -90 62t-89 20q-18 0 -34 -1q-26 -14 -46 -31q-14 -11 -28.5 -18.5
t-29.5 -7.5zM365 16q55 0 107 26t96.5 71.5t79 104.5t53.5 126.5t19 136.5q0 101 -43 157.5t-121 56.5q-55 0 -107.5 -26t-98 -72.5t-80 -106t-54 -127.5t-19.5 -138q0 -99 44.5 -154t123.5 -55z" />
    <glyph glyph-name="R" unicode="R" horiz-adv-x="743" 
d="M-20 -3l8 25l21 2q34 4 54 10t33.5 25t27.5 61l168 512q3 11 3 18q0 16 -16 24t-57 12l-19 2l8 25l147 -3h11l77 1q125 2 184 -42t59 -119q0 -69 -34.5 -110.5t-93 -60.5t-130.5 -19h-27q72 -8 112.5 -47.5t46.5 -107.5l5 -78q2 -54 13.5 -79.5t44.5 -25.5q21 0 35 10
t24 21l19 -17q-23 -28 -51 -39t-57 -11q-52 0 -86.5 44.5t-37.5 123.5l-1 51q-3 67 -51.5 108.5t-136.5 46.5l-89 -273q-7 -20 -7 -33q0 -16 14 -21t50 -9l19 -2l-8 -25l-137 3zM389 683l-98 -300l117 -1q92 -1 143.5 48.5t51.5 127.5q0 31 -13.5 59.5t-47.5 47t-96 18.5
h-57z" />
    <glyph glyph-name="S" unicode="S" horiz-adv-x="589" 
d="M293 -11q-46 0 -79 10t-55.5 23.5t-38 23.5t-28.5 10q-15 0 -25.5 -17t-18.5 -35l-26 15l44 130l31 122l27 -2l-3 -40v-29q3 -87 45 -135t115 -48q66 0 105.5 40t39.5 97q0 56 -21 93t-65 78l-46 44q-23 23 -49.5 49t-45 58t-18.5 73q0 51 26 89.5t71.5 60t105.5 21.5
q40 0 69 -10t49.5 -23.5t34.5 -23.5t23 -10q8 0 14.5 9.5t12.5 31.5l27 -1l-27 -112l-17 -111l-26 1v30q-1 49 -15 92.5t-46 71t-88 27.5q-34 0 -64 -15.5t-48 -43.5t-18 -66q0 -34 13 -59t34 -46.5t45 -44.5l45 -44q52 -49 79.5 -94t27.5 -92q0 -55 -27.5 -100t-76 -71.5
t-112.5 -26.5z" />
    <glyph glyph-name="T" unicode="T" horiz-adv-x="741" 
d="M139 -3l9 23l16 2q50 7 87 21t51 57l192 587v0l-128 -2q-42 -1 -70 -9.5t-49 -27t-41 -49.5t-45 -77l-26 1l72 190l327 -3l306 3l-2 -81l4 -122h-25q-2 48 -15.5 87.5t-39 63t-65.5 24.5l-122 3l-189 -576q-3 -9 -4 -16t-1 -14q0 -29 23.5 -42.5t63.5 -16.5l36 -3l-8 -23
l-182 3h-11z" />
    <glyph glyph-name="U" unicode="U" horiz-adv-x="758" 
d="M366 -14q-123 0 -176 45.5t-53 124.5q0 26 6 56t16 63l109 339q3 11 5 20t2 16q0 18 -16 25t-57 11l-19 2l8 25l149 -3l149 3l-8 -25l-21 -2q-36 -3 -58.5 -12.5t-37.5 -32t-29 -67.5l-95 -299q-9 -29 -14 -56t-5 -51q0 -67 38 -108.5t118 -41.5q56 0 101.5 24t82.5 80
t68 152l113 351q5 18 5 27q0 19 -16.5 24.5t-53.5 9.5l-19 2l8 25l118 -3l123 3l-8 -25l-21 -2q-32 -3 -52.5 -8t-33.5 -19.5t-23 -46.5l-97 -304q-35 -108 -72.5 -179.5t-92.5 -107t-141 -35.5z" />
    <glyph glyph-name="V" unicode="V" horiz-adv-x="686" 
d="M287 -8l-50 601q-3 29 -6 48t-18 30t-53 15l-19 2l8 25l143 -3l146 3l-8 -25l-21 -2q-27 -3 -49.5 -9.5t-35 -21.5t-10.5 -44l40 -506l341 508q14 22 14 35q0 30 -71 38l-19 2l8 25l119 -3l122 3l-8 -25l-21 -2q-35 -3 -54.5 -14t-32.5 -29t-31 -45l-408 -606h-26z" />
    <glyph glyph-name="W" unicode="W" horiz-adv-x="1019" 
d="M292 -8l-55 601q-3 29 -6 48t-18 30t-53 15l-19 2l8 25l139 -3l127 3l-8 -25l-12 -2q-21 -3 -40.5 -9.5t-31 -21t-9.5 -42.5l43 -489l249 438q10 18 18 37.5t8 35.5q0 17 -11 29.5t-40 16.5l-38 6l4 26l27 -3q31 -4 50 -11.5t29 -19.5q22 18 48.5 24t57.5 8l27 2l-1 -26
l-40 -4q-37 -3 -59.5 -21t-22.5 -53q0 -5 0.5 -10.5t1.5 -11.5l61 -469l278 495q12 23 12 37q0 32 -69 36l-37 2l8 25l137 -3l122 3l-8 -25l-21 -2q-35 -3 -55.5 -13.5t-33.5 -28.5t-29 -46l-340 -606h-26l-63 498l-283 -498h-26z" />
    <glyph glyph-name="X" unicode="X" horiz-adv-x="744" 
d="M-47 -2l9 25l21 3q27 4 57 23.5t67 52.5l285 266l-98 225q-18 41 -38.5 65t-58.5 28l-19 2l9 25l129 -3l149 3l-9 -25l-21 -2q-31 -3 -48 -16t-17 -39q0 -10 2 -22.5t8 -27.5l76 -173l219 201q30 29 30 45q-1 24 -77 32l-19 2l9 25l128 -3l126 3l-9 -25l-21 -3
q-26 -4 -56.5 -23.5t-67.5 -52.5l-249 -230l102 -233q28 -64 50 -90.5t62 -30.5l19 -2l-9 -25l-126 2l-152 -2l9 25l21 2q68 8 68 51q0 13 -6 28l-102 234l-253 -234q-15 -13 -21 -24t-6 -19q1 -15 20 -24t52 -12l19 -2l-9 -25l-121 3z" />
    <glyph glyph-name="Y" unicode="Y" horiz-adv-x="663" 
d="M150 -3l9 25l21 2q31 4 50.5 8.5t33 20t24.5 49.5l48 173l-79 318q-7 29 -15 48t-26 30t-56 15l-19 2l9 25l131 -3l146 3l-9 -25l-21 -2q-66 -6 -66 -60q0 -10 2 -21t5 -24l68 -265l222 279q26 33 26 53q0 18 -20 26t-58 12l-19 2l9 25l128 -3l126 3l-9 -25l-21 -3
q-27 -4 -57.5 -24t-62.5 -60l-250 -314l-56 -198q-3 -10 -3 -19q0 -26 26.5 -33.5t70.5 -12.5l19 -2l-9 -25l-173 3z" />
    <glyph glyph-name="Z" unicode="Z" horiz-adv-x="675" 
d="M-9 0l-7 9l659 676h-228q-57 0 -93.5 -13t-59.5 -36.5t-40 -56.5t-37 -73h-26l77 204h523l3 -7l-657 -674h222q70 0 116 13.5t76 41.5t53 72t46 104h26l-37 -153l-21 -106z" />
    <glyph glyph-name="bracketleft" unicode="[" horiz-adv-x="279" 
d="M-73 -119l328 903h184l-11 -30q-58 -3 -92 -9.5t-60 -26.5l-280 -772q11 -18 40.5 -24.5t84.5 -11.5l-10 -29h-184z" />
    <glyph glyph-name="backslash" unicode="\" horiz-adv-x="609" 
d="M529 -135h-35l-574 969h35z" />
    <glyph glyph-name="bracketright" unicode="]" horiz-adv-x="281" 
d="M424 785l-328 -903h-184l11 30q58 3 92.5 10t59.5 26l280 772q-11 18 -40.5 24.5t-84.5 11.5l10 29h184z" />
    <glyph glyph-name="asciicircum" unicode="^" horiz-adv-x="510" 
d="M104 348l314 362h40l56 -362h-36l-50 321l-276 -321h-48z" />
    <glyph glyph-name="underscore" unicode="_" horiz-adv-x="494" 
d="M-80 -56l13 36h454l-13 -36h-454z" />
    <glyph glyph-name="grave" unicode="`" horiz-adv-x="276" 
d="M287 520l-36 97q-7 19 -10.5 33t-3.5 28q0 17 9.5 29.5t28.5 12.5q14 0 23 -14.5t10 -49.5l3 -136h-24z" />
    <glyph glyph-name="a" unicode="a" horiz-adv-x="533" 
d="M162 -14q-47 0 -77 19.5t-44 52t-14 69.5q0 63 27 122t70.5 105t94.5 73t100 27q46 0 69.5 -30t27.5 -77l34 93h66l-125 -355q-4 -15 -7 -26.5t-3 -19.5q0 -20 16 -20q22 0 43 23t34 45l18 -12q-19 -31 -49 -60t-73 -29q-31 0 -43.5 15t-12.5 40q0 19 6 43
q-33 -46 -73 -72t-85 -26zM172 12q57 0 107 54.5t86 143.5l12 34q17 50 17 92q0 41 -17 66.5t-52 25.5q-40 0 -79.5 -30.5t-72 -79.5t-52 -104.5t-19.5 -106.5q0 -47 19 -71t51 -24z" />
    <glyph glyph-name="b" unicode="b" horiz-adv-x="493" 
d="M179 -14q-64 0 -98.5 30.5t-34.5 91.5q0 26 6.5 57t18.5 68l124 386q7 20 7 34q0 18 -11 25t-28 7.5t-36 0.5l7 24l162 3l-109 -344q20 28 44 45q23 18 49 29t53 11q57 0 92 -40.5t35 -113.5q0 -64 -23.5 -121t-64 -100.5t-90.5 -68t-103 -24.5zM179 8q39 0 75.5 29
t66 75.5t46.5 100.5t17 104q0 58 -20 83.5t-52 25.5q-27 0 -57.5 -21.5t-57 -56t-41.5 -74.5l-19 -53q-13 -39 -18.5 -71.5t-5.5 -58.5q0 -40 18.5 -61.5t47.5 -21.5z" />
    <glyph glyph-name="c" unicode="c" horiz-adv-x="438" 
d="M200 -14q-81 0 -122.5 47.5t-41.5 121.5q0 61 25.5 115t68.5 95.5t95.5 65t106.5 23.5q50 0 73.5 -13.5t31 -31t7.5 -30.5q0 -19 -11 -35.5t-34 -16.5q-19 0 -30 11t-11 29q0 32 -2 48.5t-30 16.5q-41 0 -79 -26t-68 -68.5t-47.5 -92t-17.5 -97.5q0 -56 24 -96.5
t79 -40.5q24 0 49 11t45 31q22 21 39 50l18 -13q-22 -43 -63.5 -73.5t-104.5 -30.5z" />
    <glyph glyph-name="d" unicode="d" horiz-adv-x="539" 
d="M162 -14q-47 0 -77 19.5t-44 52t-14 69.5q0 63 27 122t70.5 105t94.5 73t100 27q44 0 67.5 -27t28.5 -70l84 258q4 11 5.5 20.5t1.5 16.5q0 19 -10.5 25.5t-27 7.5t-35.5 1l7 24l162 3l-205 -628q-4 -15 -7 -26.5t-3 -19.5q0 -20 16 -20q22 0 43 23t34 45l18 -12
q-19 -31 -49 -60t-73 -29q-31 0 -43.5 15t-12.5 40q0 13 3 28t8 30q-35 -53 -77.5 -83t-91.5 -30zM172 12q41 0 78.5 28t69 78.5t54.5 115.5q20 55 20 102q0 41 -17 66.5t-52 25.5q-40 0 -79.5 -30.5t-72 -79.5t-52 -104.5t-19.5 -106.5q0 -47 19 -71t51 -24z" />
    <glyph glyph-name="e" unicode="e" horiz-adv-x="418" 
d="M188 -14q-53 0 -86.5 23.5t-49 62t-15.5 82.5q0 62 24 115.5t64 95t87.5 64.5t95.5 23q47 0 74.5 -23.5t27.5 -62.5q-1 -59 -55.5 -92.5t-146.5 -43.5l-84 -8q-12 -46 -12 -88q0 -29 8.5 -57t28.5 -46.5t52 -18.5q39 0 71.5 25.5t51.5 52.5l17 -14q-23 -32 -60 -61
t-93 -29zM307 432q-33 0 -67 -26t-63 -69t-46 -94l56 8q53 8 85.5 24t49.5 36t23 38.5t6 31.5q0 23 -10 37t-34 14z" />
    <glyph glyph-name="f" unicode="f" horiz-adv-x="342" 
d="M-99 -290q-61 0 -86 23t-25 50q0 20 14 33.5t35 13.5q22 0 31.5 -15t14 -34t11.5 -34t23 -15q26 0 49.5 38.5t44.5 102.5l177 543h-87l8 24h87l36 112q32 98 85 135t117 37q55 0 79.5 -22t24.5 -48q0 -20 -10.5 -36.5t-35.5 -16.5q-23 0 -32 14t-9 36q0 29 -7.5 40
t-27.5 11q-19 0 -46 -18t-45 -73l-56 -171h107l-8 -24h-107l-178 -543q-22 -66 -48 -101.5t-59 -48.5t-77 -13z" />
    <glyph glyph-name="g" unicode="g" horiz-adv-x="534" 
d="M251 134q-32 0 -56.5 6.5t-43.5 17.5q-44 -17 -65.5 -37t-21.5 -40q0 -15 15 -27.5t52 -17.5l120 -15q57 -7 89.5 -26.5t46 -46.5t13.5 -59q0 -21 -9 -51t-34 -59.5t-70.5 -49t-119.5 -19.5t-121.5 23.5t-70 56.5t-22.5 62q0 27 15 46t37 19q23 0 32 -13.5t9 -27.5
q0 -19 -9.5 -36t-9.5 -37q0 -13 12 -30t43.5 -29t87.5 -12q61 0 102 19t62 49.5t21 64.5q0 27 -20 51.5t-70 31.5l-129 17q-57 8 -86 32t-29 59t26.5 65t83.5 53q-21 20 -30.5 46t-9.5 52q0 51 27 92t73 65t102 24q31 0 56 -7.5t43 -20.5q20 24 51 38.5t59 14.5q33 0 53 -17
t20 -42q0 -15 -10.5 -28t-30.5 -13q-16 0 -29 10t-13 29q0 14 -4.5 23t-18.5 9q-11 0 -24.5 -8t-35.5 -30q19 -20 28.5 -45t9.5 -51q0 -51 -28 -92t-72.5 -65t-95.5 -24zM241 158q35 0 61 18t43 45.5t25.5 58.5t8.5 58q0 40 -22.5 65.5t-61.5 25.5q-43 0 -73.5 -28
t-46.5 -69.5t-16 -81.5t22.5 -66t59.5 -26z" />
    <glyph glyph-name="h" unicode="h" horiz-adv-x="518" 
d="M77 0h-72l201 616q7 21 7 36q0 19 -10.5 26t-27 7.5t-35.5 0.5l7 24l162 3l-4 -11l-117 -359q34 43 82.5 77t107.5 34q50 0 68.5 -18.5t18.5 -47.5q0 -26 -11 -57l-90 -251q-9 -25 -9 -41q0 -20 16 -20q22 0 43 21.5t34 43.5l18 -12q-19 -31 -49 -58.5t-73 -27.5
q-31 0 -43.5 15t-12.5 39q0 15 4 33t11 37l87 246q7 20 7 35q0 20 -11 29t-27 9q-28 0 -59 -17t-59 -43.5t-49.5 -56t-30.5 -55.5l1 4z" />
    <glyph glyph-name="i" unicode="i" horiz-adv-x="279" 
d="M100 -14q-31 0 -43.5 15t-12.5 40q0 16 4 34.5t11 37.5l87 234q8 22 8 35q0 18 -11 25t-28.5 8t-36.5 1l7 24l162 3l-126 -358q-4 -15 -7 -26.5t-3 -19.5q0 -20 16 -20q22 0 43 23t34 45l18 -12q-19 -31 -49 -60t-73 -29zM240 553q-24 0 -39.5 16t-15.5 38q0 21 15.5 37
t39.5 16q21 0 36.5 -16t15.5 -37q0 -22 -15.5 -38t-36.5 -16z" />
    <glyph glyph-name="j" unicode="j" horiz-adv-x="270" 
d="M-111 -290q-61 0 -86 23t-25 50q0 20 14 33.5t35 13.5q22 0 31.5 -15t14 -34t11.5 -34t23 -15q27 0 48.5 38t42.5 103l158 487q5 17 5 24q0 25 -24 28.5t-52 3.5l7 24l162 3l-187 -575q-28 -88 -70.5 -123t-107.5 -35zM255 553q-24 0 -39.5 16t-15.5 38q0 21 15.5 37
t39.5 16q21 0 36.5 -16t15.5 -37q0 -22 -15.5 -38t-36.5 -16z" />
    <glyph glyph-name="k" unicode="k" horiz-adv-x="486" 
d="M77 0h-72l201 616q7 21 7 36q0 19 -10.5 26t-27 7.5t-35.5 0.5l7 24l161 3l-139 -428q40 5 64.5 23t52.5 47l37 39q28 29 49 44.5t46 15.5q27 0 39.5 -11.5t16.5 -26t4 -24.5q0 -22 -11.5 -38.5t-31.5 -16.5q-13 0 -25 8.5t-12 27.5q0 17 -1 24.5t-4 11.5q-3 5 -10 5
q-10 0 -20 -8t-24 -23l-41 -43q-20 -21 -36.5 -36t-39.5 -23q65 -8 87.5 -41t23.5 -104q1 -49 2.5 -74.5t7.5 -34t19 -8.5t33.5 15.5t40.5 49.5l17 -12q-26 -47 -59 -66.5t-62 -19.5q-43 0 -55 32t-12 114q0 52 -8.5 82t-30 42.5t-62.5 12.5z" />
    <glyph glyph-name="l" unicode="l" horiz-adv-x="265" 
d="M90 -14q-31 0 -43.5 15t-12.5 40q0 16 4 34.5t11 37.5l164 502q4 11 5.5 20.5t1.5 16.5q0 19 -10.5 25.5t-27 7.5t-35.5 1l7 24l162 3l-205 -628q-4 -15 -7 -26.5t-3 -19.5q0 -20 16 -20q22 0 43 23t34 45l18 -12q-19 -31 -49 -60t-73 -29z" />
    <glyph glyph-name="m" unicode="m" horiz-adv-x="778" 
d="M613 -14q-35 0 -49.5 16t-14.5 43q0 19 5.5 41.5t14.5 48.5l81 221q7 20 7 36q0 20 -11 28.5t-27 8.5q-25 0 -53 -15t-53.5 -39t-45.5 -52.5t-30 -55.5l-97 -267h-74l130 356q7 20 7 35q0 20 -11 29t-27 9q-27 0 -55.5 -16.5t-54.5 -43t-46 -56t-30 -56.5l-93 -257h-72
l124 344q10 26 10 42q0 25 -20 27.5t-48 2.5l8 24l147 3l-29 -97q32 42 77 75t101 33q48 0 65.5 -20.5t17.5 -51.5q0 -14 -3 -31q31 41 75.5 72t98.5 31q47 0 66.5 -20.5t19.5 -50.5q0 -26 -10 -52l-83 -228q-5 -16 -8.5 -31t-3.5 -27q0 -11 4 -18.5t14 -7.5q17 0 37.5 21.5
t33.5 43.5l18 -12q-19 -31 -47.5 -58.5t-65.5 -27.5z" />
    <glyph glyph-name="n" unicode="n" horiz-adv-x="536" 
d="M362 -14q-31 0 -43.5 15t-12.5 39q0 15 4 33t11 37l87 246q11 32 3 52.5t-37 20.5q-27 0 -57 -16.5t-58 -42.5t-49 -56t-31 -57l-93 -257h-72l124 344q17 49 3 60.5t-61 11.5l8 24l147 3l-32 -107q22 31 51.5 57.5t65 43.5t76.5 17q61 0 79 -32t-3 -91l-90 -251
q-7 -21 -7.5 -41t16.5 -20q23 0 42.5 21.5t32.5 43.5l18 -12q-19 -31 -49 -58.5t-73 -27.5z" />
    <glyph glyph-name="o" unicode="o" horiz-adv-x="514" 
d="M196 -14q-53 0 -89 22.5t-53.5 60t-17.5 80.5q0 60 22.5 114.5t62 97.5t90.5 68t107 25q54 0 90 -22.5t53.5 -58.5t17.5 -79q0 -60 -22.5 -115.5t-62 -99t-90.5 -68.5t-108 -25zM195 8q37 0 69 21.5t58.5 56.5t45.5 77t29.5 83.5t10.5 75.5q0 110 -88 110q-37 0 -69 -21
t-58.5 -56t-45.5 -76.5t-29.5 -82.5t-10.5 -75q0 -113 88 -113z" />
    <glyph glyph-name="p" unicode="p" horiz-adv-x="527" 
d="M-126 -280l8 24h24q22 0 33.5 9.5t23.5 46.5l179 545q9 27 9 41q0 26 -20 28t-49 2l8 24l134 3l-19 -82q25 32 51 52q29 22 56 31.5t49 9.5q61 0 97 -43t36 -111q0 -64 -24 -120.5t-63.5 -100t-87 -68.5t-95.5 -25q-38 0 -65.5 24t-35.5 69l-89 -280q-10 -31 -7.5 -43
t26.5 -12h34l-7 -24h-206zM223 12q36 0 71 28t63.5 74t45 100t16.5 106q0 56 -20.5 81.5t-53.5 25.5q-29 0 -60.5 -21t-58.5 -55.5t-43 -76.5l-19 -53q-22 -62 -22 -109q0 -48 22 -74t59 -26z" />
    <glyph glyph-name="q" unicode="q" horiz-adv-x="508" 
d="M117 -280l8 24h30q23 0 42 12.5t29 43.5l95 286q-33 -47 -73 -73.5t-86 -26.5q-47 0 -77 19.5t-44 52t-14 69.5q0 63 27 122t70.5 105t94.5 73t100 27q42 0 65.5 -25t29.5 -66l23 77h70l-210 -641q-9 -27 -6 -41t25 -14h34l-7 -24h-226zM172 12q41 0 78 28t69 78.5
t55 115.5q20 55 20 102q0 41 -17 66.5t-52 25.5q-40 0 -79.5 -30.5t-72 -79.5t-52 -104.5t-19.5 -106.5q0 -47 19 -71t51 -24z" />
    <glyph glyph-name="r" unicode="r" horiz-adv-x="390" 
d="M9 0l124 344q12 33 9.5 48.5t-19 19.5t-48.5 4l8 24l137 3l-44 -147q22 42 47.5 78t57 58t68.5 22q26 0 51 -16t25 -51q0 -15 -9.5 -30t-32.5 -15q-19 0 -29 10.5t-15 32.5q-6 30 -30 30q-19 0 -40.5 -18t-47.5 -59q-17 -28 -36 -66.5t-38 -89.5l-66 -182h-72z" />
    <glyph glyph-name="s" unicode="s" horiz-adv-x="363" 
d="M136 -14q-52 0 -82 18t-43 43t-13 46q0 23 12.5 38.5t35.5 15.5q16 0 25.5 -10t9.5 -25q0 -16 -7 -28t-7 -29q0 -20 18 -33.5t46 -13.5q31 0 51.5 13.5t31.5 34t11 40.5q0 23 -8 40t-30 42l-37 39q-22 24 -33 53t-11 57q0 31 15 60t45 48t76 19q49 0 74 -13t34.5 -30
t9.5 -31q0 -19 -12 -32.5t-32 -13.5q-12 0 -23.5 9t-11.5 28v25.5t-8 25t-32 10.5q-37 0 -57.5 -23t-20.5 -52q0 -20 8 -39.5t26 -39.5l38 -40q19 -19 38 -45t19 -69q0 -34 -20 -65.5t-55 -52t-81 -20.5z" />
    <glyph glyph-name="t" unicode="t" horiz-adv-x="308" 
d="M102 -14q-29 0 -42 15.5t-13 40.5q0 14 4 31.5t11 36.5l110 306h-65l8 24h66l31 86h67l-30 -86h92l-8 -24h-93l-117 -334q-8 -24 -8 -36q0 -27 24 -27q23 0 44 21.5t34 43.5l18 -12q-19 -31 -51.5 -58.5t-81.5 -27.5z" />
    <glyph glyph-name="u" unicode="u" horiz-adv-x="533" 
d="M139 -14q-131 0 -73 151l79 209q5 11 6.5 20.5t1.5 16.5q0 18 -11 25t-28 7.5t-36 0.5l7 24l164 3l-120 -335q-16 -43 -9.5 -70t38.5 -27q25 0 53.5 16t55.5 42t48.5 56.5t32.5 60.5l95 254h66l-125 -355q-4 -15 -7 -26.5t-3 -19.5q0 -20 16 -20q22 0 43 23t34 45l18 -12
q-19 -31 -49 -60t-73 -29q-31 0 -43.5 15t-12.5 40q0 20 8 50q-32 -42 -77 -73.5t-99 -31.5z" />
    <glyph glyph-name="v" unicode="v" horiz-adv-x="483" 
d="M175 -11q-10 47 -27 86t-33 73q-15 33 -26 63.5t-11 62.5q0 50 32 84.5t79 63.5l-103 -6l9 24l152 8l5 -17q-17 -8 -38.5 -21t-37 -36.5t-15.5 -64.5t11 -85t28 -103l21 -67l119 139q32 36 50 70t18 59q0 23 -7 38.5t-14.5 28t-7.5 24.5q0 14 13 27.5t33 13.5
q23 0 39.5 -20t16.5 -55q0 -46 -32.5 -90.5t-78.5 -96.5l-178 -203h-17z" />
    <glyph glyph-name="w" unicode="w" horiz-adv-x="728" 
d="M175 -11q-10 47 -27 86t-33 73q-15 33 -26 63.5t-11 62.5q0 50 32 84.5t79 63.5l-103 -6l9 24l152 8l5 -17q-16 -8 -37.5 -21t-37.5 -36.5t-16 -64.5t11 -85t28 -103l20 -66l108 133q22 26 37 54.5t15 59.5q0 25 -9.5 44.5t-19 35.5t-9.5 29q0 16 13 29.5t29 13.5
q19 0 35 -15.5t21 -46.5q16 17 38 32.5t47 23.5l8 -16q-18 -8 -41.5 -23.5t-40.5 -42.5t-17 -72q0 -40 10.5 -77t31.5 -96l23 -65l107 132q22 26 36.5 54.5t14.5 59.5q0 25 -9 44.5t-18 35.5t-9 28q0 15 12.5 29.5t30.5 14.5q20 0 37.5 -21t17.5 -62q0 -40 -19 -84t-62 -95
l-168 -203h-17q-10 47 -26 83t-31 80q-4 13 -9 28.5t-7 37.5q-9 -13 -20 -26l-168 -203h-17z" />
    <glyph glyph-name="x" unicode="x" horiz-adv-x="553" 
d="M77 -11q-42 0 -64 13.5t-29.5 31.5t-7.5 31q0 20 12.5 35.5t34.5 15.5q20 0 29.5 -12.5t9.5 -33.5v-26.5t5.5 -23t23.5 -9.5q27 0 55 26t52 70t39 98.5t15 111.5q0 27 -3 51.5t-14.5 40t-35.5 15.5q-34 0 -65 -26t-48 -64l-16 12q20 44 57.5 76t89.5 32q43 0 68 -25.5
t33 -69.5q35 44 76.5 69.5t82.5 25.5q42 0 63.5 -13t29.5 -30.5t8 -29.5q0 -24 -12.5 -39t-32.5 -15q-23 0 -32 13.5t-9 26.5q0 18 0.5 32.5t-5.5 23.5t-24 9q-25 0 -52.5 -26t-51.5 -67.5t-40 -90.5t-19 -96q0 -7 -0.5 -13t-0.5 -12q0 -46 12.5 -77t43.5 -31q32 0 64 25.5
t48 61.5l17 -12q-21 -43 -57.5 -74t-84.5 -31q-45 0 -70 27.5t-34 66.5q-35 -43 -76.5 -68.5t-84.5 -25.5z" />
    <glyph glyph-name="y" unicode="y" horiz-adv-x="481" 
d="M-55 -290q-32 0 -51.5 15t-19.5 37q0 23 15.5 36t37.5 13q19 0 33.5 -11t30 -22.5t38.5 -11.5q32 0 64 35l82 87q17 17 28.5 38t11.5 43q0 30 -16 63.5t-39 68.5q-28 44 -52 89.5t-24 87.5q0 53 31.5 85t74.5 59l-103 -6l8 24l153 8l5 -17q-51 -25 -69 -52t-18 -63
q0 -31 10.5 -67t25.5 -71t27 -66l42 -103l46 57q48 60 68.5 104t25 74t4.5 46q0 22 -6 39t-22 33q-11 11 -19.5 21t-8.5 26q0 13 13 29t34 16q20 0 38 -23t18 -77q0 -58 -23 -128.5t-94 -159.5l-142 -176q-59 -74 -101.5 -113t-78.5 -53t-78 -14z" />
    <glyph glyph-name="z" unicode="z" horiz-adv-x="488" 
d="M26 -14q-13 0 -22 9t-9 25q0 31 48 51q22 8 38 22.5t32 29.5l249 222q-9 -2 -19 -2q-45 0 -77 9.5t-54.5 18.5t-41.5 9q-37 0 -50.5 -19t-14.5 -46l-24 1q4 62 38.5 100t81.5 38q29 0 50 -12.5t40 -28.5t39 -28.5t47 -12.5q11 0 15 3.5t9 12.5q17 28 29.5 51t39.5 23
q11 0 21 -7.5t10 -22.5q0 -21 -18 -37t-41 -27t-38 -17l-300 -267q13 6 28 9.5t32 3.5q32 0 60 -10.5t55 -21t54 -10.5q20 0 36.5 18t16.5 53q0 5 -0.5 10.5t-1.5 11.5l27 3q1 -8 1.5 -16t0.5 -16q0 -47 -15 -76.5t-38.5 -43t-49.5 -13.5q-30 0 -52 12.5t-39.5 28.5
t-35 28.5t-39.5 12.5q-26 0 -41.5 -12.5t-25.5 -28.5t-21.5 -28.5t-29.5 -12.5z" />
    <glyph glyph-name="braceleft" unicode="{" horiz-adv-x="376" 
d="M198 -142q-43 0 -72.5 19.5t-44 49.5t-14.5 63q0 35 15 67.5t34.5 63t34.5 59t15 55.5q0 32 -22.5 54t-60.5 22l8 20q31 0 63 15.5t57 40t35 51.5q12 32 14.5 57t5.5 50.5t14 55.5t36.5 62t61 59.5t75.5 44.5t79 17l-5 -18q-30 0 -62 -14t-56 -36.5t-33 -48.5
q-15 -44 -22 -88t-26 -96q-14 -40 -46 -76.5t-71 -59.5t-75 -23l-2 -6q41 0 63.5 -29.5t22.5 -72.5q0 -44 -15 -79.5t-35 -66.5t-35 -60t-15 -59q0 -28 23 -51.5t63 -23.5z" />
    <glyph glyph-name="bar" unicode="|" horiz-adv-x="213" 
d="M-21 -135l314 969h35l-314 -969h-35z" />
    <glyph glyph-name="braceright" unicode="}" horiz-adv-x="378" 
d="M241 784q44 0 73 -19t43.5 -49.5t14.5 -63.5q0 -35 -15 -67.5t-34.5 -63t-34.5 -59t-15 -55.5q0 -31 23 -53.5t60 -22.5l-8 -20q-31 0 -63 -15.5t-57 -39.5t-35 -52q-11 -31 -14 -56.5t-6 -50.5t-14 -56q-11 -30 -36.5 -62t-61 -59.5t-75.5 -44.5t-79 -17l5 18
q30 0 62 14t56.5 37t32.5 48q15 44 22 88t26 96q15 40 46.5 76.5t70.5 59.5t75 23l2 6q-40 0 -63 29.5t-23 72.5q0 44 15 79.5t35 66.5t35 60t15 59q0 29 -23 52t-63 23z" />
    <glyph glyph-name="asciitilde" unicode="~" horiz-adv-x="748" 
d="M9 230q5 14 23 42t48 57.5t69.5 50.5t87.5 21q40 0 81 -18.5t81 -41.5q40 -22 79 -40t71 -18q36 0 66.5 15t54.5 38.5t40 48.5h23q-20 -38 -54 -73.5t-72.5 -58.5t-74.5 -23q-44 0 -84.5 18.5t-76.5 39.5q-37 22 -75.5 40.5t-75.5 18.5q-55 0 -104.5 -29t-85.5 -88h-21z
" />
    <glyph glyph-name="uni00A0" unicode="&#xa0;" horiz-adv-x="250" 
 />
    <glyph glyph-name="exclamdown" unicode="&#xa1;" horiz-adv-x="264" 
d="M284 606q-25 0 -42 17.5t-17 41.5q1 25 18 42t41 17q26 -1 42.5 -18t16.5 -41q0 -23 -16.5 -41t-42.5 -18zM76 -4q-15 1 -28.5 12t-13.5 33q0 13 8 34l184 440l27 -10l-110 -450q-8 -34 -26 -46.5t-41 -12.5z" />
    <glyph glyph-name="cent" unicode="&#xa2;" horiz-adv-x="438" 
d="M103 -115l40 109q-53 15 -80 58t-27 103q0 58 23 109.5t62.5 92.5t88 66t100.5 30l38 105h25l-38 -104q48 -1 71.5 -14t30.5 -30.5t7 -30.5q0 -19 -11 -35.5t-34 -16.5q-19 0 -30 11t-11 29q0 32 -2 48.5t-29 16.5l-150 -413q18 -8 40 -8q24 0 49 11t45 31q22 21 39 50
l18 -13q-22 -43 -63.5 -73.5t-104.5 -30.5q-18 0 -34 3l-38 -104h-25zM114 148q0 -37 10 -68t32 -49l145 398q-37 -8 -70.5 -36t-60 -68.5t-41.5 -86.5t-15 -90z" />
    <glyph glyph-name="sterling" unicode="&#xa3;" horiz-adv-x="560" 
d="M-15 -14q-19 0 -28.5 7.5t-9.5 16.5q0 25 24.5 43.5t59.5 29.5t68 14l14.5 29t20 44.5t35.5 85.5q6 15 12.5 29t13.5 28h-96l13 24h95q5 9 11 21q32 59 71 123t85.5 119t101 89.5t117.5 34.5q35 0 62 -17.5t27 -54.5q0 -28 -18.5 -45t-42.5 -17q-16 0 -28.5 9t-12.5 27
q0 17 9.5 26.5t17.5 15.5q12 9 12 15q0 8 -9 12t-23 4q-36 0 -71 -27.5t-69.5 -73.5t-68 -103.5t-66.5 -116.5l-12 -22t-13 -23h165l-13 -24h-165q-14 -24 -29 -52q-24 -44 -52 -85.5t-57 -76.5q41 -1 72 -6.5t57 -14.5q23 -7 46 -13t50 -6q43 0 77.5 24.5t55.5 73.5h22
q-16 -45 -43.5 -83t-66 -61t-89.5 -23q-35 0 -62.5 14.5t-52.5 31.5q-18 13 -41 26.5t-42 16.5q-36 -40 -70.5 -64.5t-63.5 -24.5z" />
    <glyph glyph-name="currency" unicode="&#xa4;" horiz-adv-x="559" 
d="M176 183l-26 26l50 50q-17 22 -27 49t-10 58t10 58t27 49l-50 50l25 26l51 -51q21 18 48.5 27.5t58.5 9.5t58 -9.5t49 -27.5l50 50l25 -25l-50 -50q17 -22 27 -49t10 -58t-10 -58t-27 -49l50 -50l-25 -26l-51 51q-21 -18 -48 -27.5t-58 -9.5t-58 9.5t-49 26.5zM333 237
q37 0 66 17t46 46.5t17 65.5q0 37 -17 66t-46 46t-66 17q-36 0 -65.5 -17t-47 -46t-17.5 -66q0 -36 17.5 -65.5t47 -46.5t65.5 -17z" />
    <glyph glyph-name="yen" unicode="&#xa5;" horiz-adv-x="663" 
d="M164 281l11 29h424l-11 -29h-424zM134 167l11 29h424l-11 -29h-424zM150 -3l9 25l21 2q31 4 50.5 8.5t33 20t24.5 49.5l48 173l-79 318q-7 29 -15 48t-26 30t-56 15l-19 2l9 25l131 -3l146 3l-9 -25l-21 -2q-66 -6 -66 -60q0 -10 2 -21t5 -24l68 -265l222 279
q26 33 26 53q0 18 -20 26t-58 12l-19 2l9 25l128 -3l126 3l-9 -25l-21 -3q-27 -4 -57.5 -24t-62.5 -60l-250 -314l-56 -198q-3 -10 -3 -19q0 -26 26.5 -33.5t70.5 -12.5l19 -2l-9 -25l-173 3z" />
    <glyph glyph-name="brokenbar" unicode="&#xa6;" horiz-adv-x="213" 
d="M152 400l141 434h35l-141 -434h-35zM-21 -135l141 434h35l-141 -434h-35z" />
    <glyph glyph-name="section" unicode="&#xa7;" horiz-adv-x="529" 
d="M121 -294q-63 0 -103 18t-59.5 45t-19.5 53q0 21 12.5 37t37.5 16q23 0 36 -17.5t13 -48.5q0 -47 20.5 -59t56.5 -12q37 0 71 15.5t56.5 45t22.5 70.5q0 27 -11 56t-33 52l-44 47q-40 42 -60 80t-20 79q0 43 24 82t71.5 66t118.5 33l-19 20q-40 42 -60 80.5t-20 81.5
q0 54 30 94t79.5 62t107.5 22q42 0 77 -14.5t56.5 -40.5t21.5 -61q0 -21 -12.5 -37t-35.5 -16q-51 0 -51 63q0 36 -21.5 56t-55.5 20q-52 0 -82 -37.5t-30 -93.5q0 -39 17 -70t46 -62l31 -33q35 -38 55.5 -72.5t20.5 -81.5q0 -74 -64.5 -113.5t-172.5 -43.5l46 -49
q35 -38 55.5 -72.5t20.5 -81.5q0 -57 -33 -96.5t-85.5 -60.5t-111.5 -21zM275 117q43 0 74 34t31 86q0 22 -9 44.5t-28.5 38t-51.5 15.5q-33 0 -57.5 -18.5t-38.5 -47.5t-14 -63q0 -43 28 -66t66 -23z" />
    <glyph glyph-name="dieresis" unicode="&#xa8;" horiz-adv-x="400" 
d="M245 557q-22 0 -36 15t-14 35q0 19 14 33.5t36 14.5q20 0 34 -14.5t14 -33.5q0 -20 -14 -35t-34 -15zM439 557q-22 0 -36 15t-14 35q0 19 14 33.5t36 14.5q20 0 34 -14.5t14 -33.5q0 -20 -14 -35t-34 -15z" />
    <glyph glyph-name="copyright" unicode="&#xa9;" horiz-adv-x="886" 
d="M494 -11q-81 0 -148.5 28.5t-117 79t-76.5 117.5t-27 143t27 142.5t76.5 117t117 79t148.5 28.5q80 0 146.5 -28.5t116 -79t76.5 -117t27 -142.5t-26 -143t-74 -117.5t-115.5 -79t-150.5 -28.5zM494 28q74 0 134 26t102.5 71.5t65 105t22.5 126.5q0 66 -24 125.5
t-67.5 105t-102.5 71.5t-130 26q-72 0 -131.5 -26t-103.5 -71.5t-68 -105t-24 -125.5q0 -67 24 -126.5t68 -105t103.5 -71.5t131.5 -26zM502 167q-91 0 -143.5 53.5t-52.5 137.5q0 55 25.5 98.5t70 68.5t100.5 25q32 0 54 -6.5t36 -13.5t20 -7q11 0 14 20h16l-2 -61l2 -61
h-19q-8 50 -39.5 75t-69.5 25q-41 0 -69.5 -22t-43 -59t-14.5 -82q0 -76 35 -119t95 -43q36 0 67 22.5t44 62.5l24 -9q-12 -39 -37 -62t-55 -33t-58 -10z" />
    <glyph glyph-name="ordfeminine" unicode="&#xaa;" horiz-adv-x="443" 
d="M211 290q-59 0 -86 33.5t-27 76.5q0 49 22.5 94.5t59 81t79.5 56.5t84 21q43 0 62 -20t23 -53l25 64h63l-106 -277q-4 -11 -6 -20t-2 -16q0 -13 10 -13q17 0 35.5 18t29.5 35l16 -13q-16 -24 -41.5 -46t-58.5 -22q-29 0 -41 12t-12 31q0 9 2 20q-24 -29 -55 -46t-76 -17z
M219 312q52 0 96.5 47.5t72.5 124.5q15 42 15 79q0 31 -13.5 50.5t-41.5 19.5q-32 0 -64 -23.5t-58 -61.5t-42 -81.5t-16 -82.5q0 -72 51 -72zM56 185v24h352v-24h-352z" />
    <glyph glyph-name="guillemotleft" unicode="&#xab;" horiz-adv-x="466" 
d="M159 44q-52 15 -77.5 54t-25.5 81q0 40 17.5 75.5t46.5 65t63 50t66 29.5l9 -25q-37 -17 -71 -49.5t-55.5 -73t-21.5 -81.5q0 -33 13.5 -58.5t44.5 -42.5zM352 44q-52 15 -77.5 54t-25.5 81q0 40 17.5 75.5t46.5 65t63 50t66 29.5l9 -25q-37 -17 -71 -49.5t-55.5 -73
t-21.5 -81.5q0 -33 13.5 -58.5t44.5 -42.5z" />
    <glyph glyph-name="logicalnot" unicode="&#xac;" horiz-adv-x="574" 
d="M127 402l14 39h454l-14 -39v0l-56 -155h-39l56 155h-415z" />
    <glyph glyph-name="uni00AD" unicode="&#xad;" horiz-adv-x="388" 
d="M53 196l12 36h267l-12 -36h-267z" />
    <glyph glyph-name="registered" unicode="&#xae;" horiz-adv-x="885" 
d="M494 -11q-81 0 -148.5 28.5t-117 79t-76.5 117.5t-27 143t27 142.5t76.5 117t117 79t148.5 28.5q80 0 146.5 -28.5t116 -79t76.5 -117t27 -142.5t-27 -143t-76.5 -117.5t-116 -79t-146.5 -28.5zM494 28q71 0 130 26t102.5 71.5t67.5 105t24 126.5q0 66 -24 125.5
t-67.5 105t-102.5 71.5t-130 26q-72 0 -131.5 -26t-103.5 -71.5t-68 -105t-24 -125.5q0 -67 24 -126.5t68 -105t103.5 -71.5t131.5 -26zM636 173q-31 0 -46 19t-19 47q-4 27 -14 52t-34 42t-73 18h-10v-104q0 -34 10.5 -40.5t41.5 -9.5l11 -1v-19l-93 2l-91 -2v19l11 1
q29 3 38.5 9.5t9.5 40.5l1 225q0 34 -10 40t-39 9l-11 2l1 18l82 -2h78q41 0 75.5 -8t56 -27t21.5 -53q0 -47 -33.5 -68.5t-77.5 -27.5q44 -3 72.5 -25t34.5 -62q8 -37 18.5 -52t23.5 -14l17 2l3 -19q-9 -4 -24 -8t-31 -4zM440 372h33q49 0 68 19t19 57q0 34 -17.5 52.5
t-61.5 18.5h-41v-147z" />
    <glyph glyph-name="macron" unicode="&#xaf;" horiz-adv-x="322" 
d="M179 581l14 40h227l-14 -40h-227z" />
    <glyph glyph-name="degree" unicode="&#xb0;" horiz-adv-x="320" 
d="M289 442q-36 0 -66 18t-48 48t-18 66t18 66t48 47.5t66 17.5t66 -17.5t47.5 -47.5t17.5 -66t-17.5 -66t-47.5 -48t-66 -18zM289 479q39 0 66.5 27.5t27.5 67.5q0 39 -27.5 66.5t-66.5 27.5q-40 0 -67.5 -27.5t-27.5 -66.5q0 -40 27.5 -67.5t67.5 -27.5z" />
    <glyph glyph-name="plusminus" unicode="&#xb1;" horiz-adv-x="598" 
d="M280 223l40 109h-149l16 36h146l39 108h38l-39 -108h148l-16 -36h-145l-40 -109h-38zM89 101l14 36h333l-14 -36h-333z" />
    <glyph glyph-name="uni00B2" unicode="&#xb2;" horiz-adv-x="347" 
d="M63 297l8 23l160 114q62 44 104.5 90t42.5 101q0 32 -20 49t-52 17q-36 0 -61.5 -17.5t-25.5 -39.5q0 -6 5 -11.5t12 -10.5q12 -9 12 -26q0 -16 -12 -27.5t-29 -11.5q-23 0 -33 16t-10 35q0 32 23.5 59t62.5 43.5t84 16.5q58 0 87 -23.5t29 -63.5q0 -39 -28.5 -74.5
t-72 -68t-89.5 -63.5l-106 -71l111 2q26 1 40 4t24 12.5t23 28.5h21l-28 -68l-11 -35h-271z" />
    <glyph glyph-name="uni00B3" unicode="&#xb3;" horiz-adv-x="348" 
d="M183 290q-49 0 -80 17.5t-31 49.5q0 20 13.5 33t33.5 13q16 0 25 -8.5t9 -21.5q0 -8 -3 -13.5t-7 -10.5q-4 -4 -6.5 -8t-2.5 -9q0 -22 48 -22q35 0 68 18t55 48.5t22 67.5q0 27 -14.5 42.5t-46.5 15.5q-17 0 -31.5 -3t-21.5 -5l8 22q44 12 79.5 31t56.5 43.5t21 51.5
q0 22 -14 37.5t-48 15.5q-32 0 -54.5 -13t-22.5 -30q0 -4 8 -17q4 -5 5.5 -11.5t1.5 -9.5q0 -16 -9.5 -26t-28.5 -10q-15 0 -26 11t-11 30q0 23 18.5 45.5t52 37.5t77.5 15q55 0 89 -19.5t34 -59.5q0 -33 -23.5 -55.5t-60 -37.5t-75.5 -24q49 -1 75.5 -23.5t26.5 -58.5
q0 -32 -19 -59t-50 -47.5t-68 -31.5t-73 -11z" />
    <glyph glyph-name="acute" unicode="&#xb4;" horiz-adv-x="218" 
d="M170 520l42 144q7 24 17 39.5t30 15.5q15 0 22.5 -10.5t7.5 -24.5q0 -12 -5 -27t-24 -42l-68 -95h-22z" />
    <glyph glyph-name="uni00B5" unicode="&#xb5;" horiz-adv-x="533" 
d="M139 -14q-40 0 -62 14l-52 -285q-19 -2 -40.5 -6t-46.5 -9l91 321q11 38 18.5 62t18.5 54l79 209q5 11 6.5 20.5t1.5 16.5q0 18 -11 25t-28 7.5t-36 0.5l7 24l164 3l-120 -335q-15 -43 -9 -70t38 -27q25 0 53.5 16t55.5 42t48.5 56.5t32.5 60.5l95 254h66l-125 -355
q-10 -29 -10 -46q0 -20 16 -20q22 0 43 23t34 45l18 -12q-19 -31 -49 -60t-73 -29q-31 0 -43.5 15t-12.5 40q0 20 8 50q-32 -42 -77 -73.5t-99 -31.5z" />
    <glyph glyph-name="paragraph" unicode="&#xb6;" horiz-adv-x="574" 
d="M147 -186l169 515q-88 0 -136 32t-48 94q0 53 23 100t63 83t92 55.5t109 18.5l91 -2l214 3l-8 -25q-31 -2 -57 -7.5t-45 -22t-31 -51.5l-263 -793h-41l283 862h-90l-283 -862h-42z" />
    <glyph glyph-name="periodcentered" unicode="&#xb7;" horiz-adv-x="227" 
d="M61 151q-26 0 -43 17.5t-17 42.5q0 23 17 40.5t43 17.5q24 0 41 -17.5t17 -40.5q0 -25 -17 -42.5t-41 -17.5z" />
    <glyph glyph-name="cedilla" unicode="&#xb8;" horiz-adv-x="306" 
d="M-36 -294q-37 0 -53.5 23t-20.5 47l26 5q5 -19 17.5 -33t35.5 -14q28 0 53.5 20.5t42.5 52t17 65.5q0 20 -11 33t-34 13q-17 0 -38 -11.5t-38 -28.5l-16 13q24 26 52.5 39t56.5 13l22 57h30l-25 -60q52 -14 52 -73q0 -36 -23 -73t-61.5 -62.5t-84.5 -25.5z" />
    <glyph glyph-name="uni00B9" unicode="&#xb9;" horiz-adv-x="240" 
d="M55 295l8 22l21 1q24 1 37 5.5t21 17.5t17 39l86 238q3 8 5 15t2 11q0 11 -8 15.5t-26 5.5l-30 2l9 23q24 2 37.5 4t29.5 7t45 15h35l-122 -336q-5 -14 -8.5 -25t-3.5 -17q0 -12 10 -15.5t31 -4.5l19 -1l-8 -22l-101 2z" />
    <glyph glyph-name="ordmasculine" unicode="&#xba;" horiz-adv-x="399" 
d="M240 290q-67 0 -101 37.5t-34 86.5q0 47 19 90t52 76.5t76 53t90 19.5q68 0 101.5 -37.5t33.5 -88.5q0 -46 -19 -88.5t-52 -76t-75.5 -53t-90.5 -19.5zM240 313q36 0 67 24.5t53.5 62t35.5 77.5t13 72q0 84 -65 84q-37 0 -68 -25t-54 -63t-35.5 -79t-12.5 -74
q0 -79 66 -79zM16 185v24h352v-24h-352z" />
    <glyph glyph-name="guillemotright" unicode="&#xbb;" horiz-adv-x="466" 
d="M308 399q53 -15 78 -54t25 -81q0 -40 -17.5 -75.5t-46.5 -65t-63 -50t-66 -29.5l-9 25q38 18 71.5 50t55 72.5t21.5 81.5q0 33 -13.5 59t-44.5 42zM115 399q53 -15 78 -54t25 -81q0 -40 -17.5 -75.5t-46.5 -65t-63 -50t-66 -29.5l-9 25q38 18 71.5 50t55 72.5t21.5 81.5
q0 33 -13.5 59t-44.5 42z" />
    <glyph glyph-name="onequarter" unicode="&#xbc;" horiz-adv-x="828" 
d="M55 295l8 22l21 1q24 1 37 5.5t21 17.5t17 39l86 238q3 8 5 15t2 11q0 11 -8 15.5t-26 5.5l-30 2l9 23q24 2 37.5 4t29.5 7t45 15h35l-122 -336q-5 -14 -8.5 -25t-3.5 -17q0 -12 10 -15.5t31 -4.5l19 -1l-8 -22l-101 2zM40 0l757 710h39l-758 -710h-38zM534 -2l8 20l22 1
q25 1 37 5.5t19 16.5t16 36l8 22h-171l4 11q31 29 65 68.5t68 82.5t63.5 83t51.5 70h111l-323 -293h139l38 103q24 6 54 27h22l-48 -130h49l-8 -22h-49l-8 -22q-4 -11 -7.5 -21.5t-3.5 -16.5q0 -12 8.5 -15t24.5 -5l12 -1l-10 -20l-85 2z" />
    <glyph glyph-name="onehalf" unicode="&#xbd;" horiz-adv-x="836" 
d="M55 295l8 22l21 1q24 1 37 5.5t21 17.5t17 39l86 238q3 8 5 15t2 11q0 11 -8 15.5t-26 5.5l-30 2l9 23q24 2 37.5 4t29.5 7t45 15h35l-122 -336q-5 -14 -8.5 -25t-3.5 -17q0 -12 10 -15.5t31 -4.5l19 -1l-8 -22l-101 2zM40 0l757 710h39l-758 -710h-38zM478 0l8 23
l160 114q62 44 104.5 90t42.5 101q0 32 -20 49t-52 17q-36 0 -61.5 -17.5t-25.5 -39.5q0 -6 5 -11.5t12 -10.5q12 -9 12 -26q0 -16 -12 -27.5t-29 -11.5q-23 0 -33 16t-10 35q0 32 23.5 59t62.5 43.5t84 16.5q58 0 87 -23.5t29 -63.5q0 -39 -28.5 -74.5t-72 -68t-89.5 -63.5
l-106 -71l111 2q26 1 40 4t24 12.5t23 28.5h21l-28 -68l-11 -35h-271z" />
    <glyph glyph-name="threequarters" unicode="&#xbe;" horiz-adv-x="936" 
d="M183 290q-49 0 -80 17.5t-31 49.5q0 20 13.5 33t33.5 13q16 0 25 -8.5t9 -21.5q0 -8 -3 -13.5t-7 -10.5q-4 -4 -6.5 -8t-2.5 -9q0 -22 48 -22q35 0 68 18t55 48.5t22 67.5q0 27 -14.5 42.5t-46.5 15.5q-17 0 -31.5 -3t-21.5 -5l8 22q44 12 79.5 31t56.5 43.5t21 51.5
q0 22 -14 37.5t-48 15.5q-32 0 -54.5 -13t-22.5 -30q0 -4 8 -17q4 -5 5.5 -11.5t1.5 -9.5q0 -16 -9.5 -26t-28.5 -10q-15 0 -26 11t-11 30q0 23 18.5 45.5t52 37.5t77.5 15q55 0 89 -19.5t34 -59.5q0 -33 -23.5 -55.5t-60 -37.5t-75.5 -24q49 -1 75.5 -23.5t26.5 -58.5
q0 -32 -19 -59t-50 -47.5t-68 -31.5t-73 -11zM148 0l757 710h39l-758 -710h-38zM642 -2l8 20l22 1q25 1 37 5.5t19 16.5t16 36l8 22h-171l4 11q31 29 65 68.5t68 82.5t63.5 83t51.5 70h111l-323 -293h139l38 103q24 6 54 27h22l-48 -130h49l-8 -22h-49l-8 -22
q-4 -11 -7.5 -21.5t-3.5 -16.5q0 -12 8.5 -15t24.5 -5l12 -1l-10 -20l-85 2z" />
    <glyph glyph-name="questiondown" unicode="&#xbf;" horiz-adv-x="454" 
d="M316 451q26 0 43 -17.5t17 -42.5q0 -23 -17 -40.5t-43 -17.5q-24 0 -41 17.5t-17 40.5q0 25 17 42.5t41 17.5zM171 90q26 0 46.5 -9t33.5 -23l12 165q2 22 13.5 33.5t27.5 11.5q17 0 24.5 -10t7.5 -25q0 -8 -3 -19l-66 -237l-22 -1v16q-1 33 -19.5 52t-53.5 19
q-36 0 -68 -24t-56.5 -62t-38.5 -80t-14 -77q0 -37 20.5 -55.5t54.5 -18.5q76 0 74 56q-1 31 14 44t36 13q19 0 31 -10t12 -29q0 -30 -25 -52.5t-63 -35t-79 -12.5q-61 0 -104 32.5t-43 90.5q0 46 20.5 90t56 79.5t80 56.5t91.5 21z" />
    <glyph glyph-name="Agrave" unicode="&#xc0;" horiz-adv-x="662" 
d="M-70 -3l8 25l21 2q52 5 78 31t47 57l424 612l22 -14v-596q0 -27 4 -46t19.5 -29.5t51.5 -14.5l19 -2l-8 -25l-145 3l-145 -3l8 25l21 2q44 5 68.5 21.5t24.5 70.5v142h-229l-102 -147q-22 -32 -22 -51q0 -30 65 -36l19 -2l-8 -25l-118 3zM237 284h211v306zM532 760h-12
l-41 180h81z" />
    <glyph glyph-name="Aacute" unicode="&#xc1;" horiz-adv-x="662" 
d="M-70 -3l8 25l21 2q52 5 78 31t47 57l424 612l22 -14v-596q0 -27 4 -46t19.5 -29.5t51.5 -14.5l19 -2l-8 -25l-145 3l-145 -3l8 25l21 2q44 5 68.5 21.5t24.5 70.5v142h-229l-102 -147q-22 -32 -22 -51q0 -30 65 -36l19 -2l-8 -25l-118 3zM237 284h211v306zM511 760
l60 180h81l-129 -180h-12z" />
    <glyph glyph-name="Acircumflex" unicode="&#xc2;" horiz-adv-x="662" 
d="M-70 -3l8 25l21 2q52 5 78 31t47 57l424 612l22 -14v-596q0 -27 4 -46t19.5 -29.5t51.5 -14.5l19 -2l-8 -25l-145 3l-145 -3l8 25l21 2q44 5 68.5 21.5t24.5 70.5v142h-229l-102 -147q-22 -32 -22 -51q0 -30 65 -36l19 -2l-8 -25l-118 3zM237 284h211v306zM420 761
l142 179h39l16 -179h-29l-29 98l-105 -98h-34z" />
    <glyph glyph-name="Atilde" unicode="&#xc3;" horiz-adv-x="662" 
d="M-70 -3l8 25l21 2q52 5 78 31t47 57l424 612l22 -14v-596q0 -27 4 -46t19.5 -29.5t51.5 -14.5l19 -2l-8 -25l-145 3l-145 -3l8 25l21 2q44 5 68.5 21.5t24.5 70.5v142h-229l-102 -147q-22 -32 -22 -51q0 -30 65 -36l19 -2l-8 -25l-118 3zM237 284h211v306zM602 801
q-19 0 -34 9t-25 16l-20 16q-14 11 -26 18.5t-26 7.5q-22 0 -45 -19t-34 -37h-19q6 15 23.5 39.5t44 44.5t56.5 20q19 0 34.5 -10t22.5 -16l29 -22q6 -4 19 -11.5t26 -7.5q20 0 39 15t33 36h19q-22 -45 -54.5 -72t-62.5 -27z" />
    <glyph glyph-name="Adieresis" unicode="&#xc4;" horiz-adv-x="662" 
d="M-70 -3l8 25l21 2q52 5 78 31t47 57l424 612l22 -14v-596q0 -27 4 -46t19.5 -29.5t51.5 -14.5l19 -2l-8 -25l-145 3l-145 -3l8 25l21 2q44 5 68.5 21.5t24.5 70.5v142h-229l-102 -147q-22 -32 -22 -51q0 -30 65 -36l19 -2l-8 -25l-118 3zM237 284h211v306zM439 806
q-22 0 -36 15t-14 35q0 19 14 33.5t36 14.5q20 0 34 -14.5t14 -33.5q0 -20 -14 -35t-34 -15zM633 806q-22 0 -36 15t-14 35q0 19 14 33.5t36 14.5q20 0 34 -14.5t14 -33.5q0 -20 -14 -35t-34 -15z" />
    <glyph glyph-name="Aring" unicode="&#xc5;" horiz-adv-x="662" 
d="M-70 -3l8 25l21 2q52 5 78 31t47 57l424 612l22 -14v-596q0 -27 4 -46t19.5 -29.5t51.5 -14.5l19 -2l-8 -25l-145 3l-145 -3l8 25l21 2q44 5 68.5 21.5t24.5 70.5v142h-229l-102 -147q-22 -32 -22 -51q0 -30 65 -36l19 -2l-8 -25l-118 3zM237 284h211v306zM541 784
q-39 0 -62.5 25t-23.5 60q0 32 22 58.5t63 26.5q30 0 48.5 -13.5t27 -33t8.5 -38.5q0 -44 -26.5 -64.5t-56.5 -20.5zM541 810q21 0 37.5 15t16.5 44t-16.5 44t-38.5 15q-19 0 -37.5 -13.5t-18.5 -45.5q0 -28 17 -43.5t40 -15.5z" />
    <glyph glyph-name="AE" unicode="&#xc6;" horiz-adv-x="944" 
d="M-71 -3l9 25l21 2q36 4 57 16.5t35 31.5t29 40l414 598h54v0l375 -1l-2 -60l-1 -123h-26q0 45 -11 81t-38 57t-75 21h-222v-297h93q22 0 39.5 7.5t35 33t38.5 79.5h26l-51 -137l-49 -145h-26q21 59 21 90q0 25 -11.5 35.5t-31.5 10.5h-84v-248q0 -27 3 -47t18 -31t52 -11
h61q58 0 96.5 21.5t66.5 62.5t54 101h26l-50 -136l-24 -74h-367l-145 -3l9 25l21 2q45 5 70 21.5t26 70.5l2 142h-251l-100 -147q-22 -32 -22 -50q0 -17 17 -25.5t49 -11.5l19 -2l-9 -25l-118 3zM234 284h233l5 348z" />
    <glyph glyph-name="Ccedilla" unicode="&#xc7;" horiz-adv-x="700" 
d="M325 -11q-61 0 -116 24.5t-89.5 77.5t-34.5 137q0 72 21.5 143.5t60.5 135t93 112.5t119.5 77t138.5 28q44 0 75 -9t52.5 -21.5t35.5 -21.5t24 -9q8 0 19 12t18 22h26l-38 -103l-35 -109h-26q2 14 3 26t1 24q0 79 -41 119t-106 40q-53 0 -104 -24.5t-96 -67.5t-79 -99.5
t-53.5 -121t-19.5 -132.5q0 -104 43 -166.5t123 -62.5q39 0 80 18.5t79.5 50t69.5 72.5t49 86h26l-50 -141l-28 -106h-26q1 6 1.5 12t0.5 11q0 21 -14 21q-10 0 -35.5 -13.5t-67 -27.5t-100.5 -14zM223 -294q-37 0 -53.5 23t-20.5 47l26 5q5 -19 17.5 -33t35.5 -14
q28 0 53.5 20.5t42.5 52t17 65.5q0 20 -11 33t-34 13q-17 0 -38 -11.5t-38 -28.5l-16 13q24 26 52.5 39t56.5 13l22 57h30l-25 -60q52 -14 52 -73q0 -36 -23 -73t-61.5 -62.5t-84.5 -25.5z" />
    <glyph glyph-name="Egrave" unicode="&#xc8;" horiz-adv-x="695" 
d="M-23 -3l8 25l21 2q54 5 75.5 15.5t31.5 41.5l175 536q3 11 5 19t2 14q0 17 -16 24.5t-57 11.5l-19 2l8 25l147 -3h337v-60l3 -123h-26q-1 45 -13.5 80.5t-40.5 56.5t-76 21h-151l-98 -297h141q22 0 39 7.5t33.5 33t36.5 79.5h26l-47 -137l-43 -145h-26q9 28 13 49t4 37
q0 27 -12 38.5t-32 11.5h-141l-65 -197q-7 -22 -11.5 -42t-4.5 -34q0 -35 23 -50.5t68 -14.5l138 1q58 1 95.5 22t64 62t50.5 101h26l-45 -136l-22 -74h-476zM521 760h-12l-41 180h81z" />
    <glyph glyph-name="Eacute" unicode="&#xc9;" horiz-adv-x="695" 
d="M-23 -3l8 25l21 2q54 5 75.5 15.5t31.5 41.5l175 536q3 11 5 19t2 14q0 17 -16 24.5t-57 11.5l-19 2l8 25l147 -3h337v-60l3 -123h-26q-1 45 -13.5 80.5t-40.5 56.5t-76 21h-151l-98 -297h141q22 0 39 7.5t33.5 33t36.5 79.5h26l-47 -137l-43 -145h-26q9 28 13 49t4 37
q0 27 -12 38.5t-32 11.5h-141l-65 -197q-7 -22 -11.5 -42t-4.5 -34q0 -35 23 -50.5t68 -14.5l138 1q58 1 95.5 22t64 62t50.5 101h26l-45 -136l-22 -74h-476zM500 760l60 180h81l-129 -180h-12z" />
    <glyph glyph-name="Ecircumflex" unicode="&#xca;" horiz-adv-x="695" 
d="M-23 -3l8 25l21 2q54 5 75.5 15.5t31.5 41.5l175 536q3 11 5 19t2 14q0 17 -16 24.5t-57 11.5l-19 2l8 25l147 -3h337v-60l3 -123h-26q-1 45 -13.5 80.5t-40.5 56.5t-76 21h-151l-98 -297h141q22 0 39 7.5t33.5 33t36.5 79.5h26l-47 -137l-43 -145h-26q9 28 13 49t4 37
q0 27 -12 38.5t-32 11.5h-141l-65 -197q-7 -22 -11.5 -42t-4.5 -34q0 -35 23 -50.5t68 -14.5l138 1q58 1 95.5 22t64 62t50.5 101h26l-45 -136l-22 -74h-476zM409 761l142 179h39l16 -179h-29l-29 98l-105 -98h-34z" />
    <glyph glyph-name="Edieresis" unicode="&#xcb;" horiz-adv-x="695" 
d="M-23 -3l8 25l21 2q54 5 75.5 15.5t31.5 41.5l175 536q3 11 5 19t2 14q0 17 -16 24.5t-57 11.5l-19 2l8 25l147 -3h337v-60l3 -123h-26q-1 45 -13.5 80.5t-40.5 56.5t-76 21h-151l-98 -297h141q22 0 39 7.5t33.5 33t36.5 79.5h26l-47 -137l-43 -145h-26q9 28 13 49t4 37
q0 27 -12 38.5t-32 11.5h-141l-65 -197q-7 -22 -11.5 -42t-4.5 -34q0 -35 23 -50.5t68 -14.5l138 1q58 1 95.5 22t64 62t50.5 101h26l-45 -136l-22 -74h-476zM428 806q-22 0 -36 15t-14 35q0 19 14 33.5t36 14.5q20 0 34 -14.5t14 -33.5q0 -20 -14 -35t-34 -15zM622 806
q-22 0 -36 15t-14 35q0 19 14 33.5t36 14.5q20 0 34 -14.5t14 -33.5q0 -20 -14 -35t-34 -15z" />
    <glyph glyph-name="Igrave" unicode="&#xcc;" horiz-adv-x="384" 
d="M-23 -3l8 25l21 2q37 4 59 14t37 33t29 65l160 488q4 13 4 26q0 18 -16 25t-57 11l-19 2l8 25l149 -3l149 3l-8 -25l-21 -2q-36 -3 -58.5 -13t-37.5 -33t-30 -67l-156 -477q-3 -11 -5 -20t-2 -16q0 -18 16 -25t57 -11l19 -2l-8 -25l-149 3zM376 760h-12l-41 180h81z" />
    <glyph glyph-name="Iacute" unicode="&#xcd;" horiz-adv-x="384" 
d="M-23 -3l8 25l21 2q37 4 59 14t37 33t29 65l160 488q4 13 4 26q0 18 -16 25t-57 11l-19 2l8 25l149 -3l149 3l-8 -25l-21 -2q-36 -3 -58.5 -13t-37.5 -33t-30 -67l-156 -477q-3 -11 -5 -20t-2 -16q0 -18 16 -25t57 -11l19 -2l-8 -25l-149 3zM355 760l60 180h81l-129 -180
h-12z" />
    <glyph glyph-name="Icircumflex" unicode="&#xce;" horiz-adv-x="384" 
d="M-23 -3l8 25l21 2q37 4 59 14t37 33t29 65l160 488q4 13 4 26q0 18 -16 25t-57 11l-19 2l8 25l149 -3l149 3l-8 -25l-21 -2q-36 -3 -58.5 -13t-37.5 -33t-30 -67l-156 -477q-3 -11 -5 -20t-2 -16q0 -18 16 -25t57 -11l19 -2l-8 -25l-149 3zM264 761l142 179h39l16 -179
h-29l-29 98l-105 -98h-34z" />
    <glyph glyph-name="Idieresis" unicode="&#xcf;" horiz-adv-x="384" 
d="M-23 -3l8 25l21 2q37 4 59 14t37 33t29 65l160 488q4 13 4 26q0 18 -16 25t-57 11l-19 2l8 25l149 -3l149 3l-8 -25l-21 -2q-36 -3 -58.5 -13t-37.5 -33t-30 -67l-156 -477q-3 -11 -5 -20t-2 -16q0 -18 16 -25t57 -11l19 -2l-8 -25l-149 3zM283 806q-22 0 -36 15t-14 35
q0 19 14 33.5t36 14.5q20 0 34 -14.5t14 -33.5q0 -20 -14 -35t-34 -15zM477 806q-22 0 -36 15t-14 35q0 19 14 33.5t36 14.5q20 0 34 -14.5t14 -33.5q0 -20 -14 -35t-34 -15z" />
    <glyph glyph-name="Eth" unicode="&#xd0;" horiz-adv-x="789" 
d="M-49 -3l9 25l21 2q39 4 60 9.5t32.5 18.5t19.5 36l192 529q8 22 8 34q0 17 -16 24t-56 11l-19 2l9 25l147 -3h1l82 3q107 4 186.5 -26t124 -90t44.5 -147q0 -73 -24 -139.5t-68 -120.5q-47 -59 -112.5 -101.5t-143.5 -65.5t-163 -23h-185zM252 26h34q92 0 169 36
t133 96.5t87 137t31 157.5q0 68 -26.5 121t-88 83t-167.5 27l-35 -1l-200 -550q-12 -34 -12 -56q0 -26 12.5 -36.5t30.5 -12.5t32 -2zM36 342l10 29h385l-10 -29h-385z" />
    <glyph glyph-name="Ntilde" unicode="&#xd1;" horiz-adv-x="793" 
d="M-13 -3l9 25l21 2q31 3 51 9.5t33 22.5t23 47l166 529q-12 25 -24.5 38t-32.5 15l-31 3l9 25l117 -3h18l266 -588l155 502q3 9 4 16t1 13q-1 17 -17 23t-54 10l-19 2l9 25l117 -3l123 3l-9 -25l-21 -2q-31 -3 -51 -8.5t-33 -21.5t-23 -49l-190 -607h-30l-266 590
l-158 -509q-4 -13 -4 -24q1 -17 17 -23t54 -10l19 -2l-9 -25l-117 3zM644 801q-19 0 -34 9t-25 16l-20 16q-14 11 -26 18.5t-26 7.5q-22 0 -45 -19t-34 -37h-19q6 15 23.5 39.5t44 44.5t56.5 20q19 0 34.5 -10t22.5 -16l29 -22q6 -4 19 -11.5t26 -7.5q20 0 39 15t33 36h19
q-22 -45 -54.5 -72t-62.5 -27z" />
    <glyph glyph-name="Ograve" unicode="&#xd2;" horiz-adv-x="778" 
d="M342 -14q-70 0 -128.5 28.5t-93 85.5t-34.5 141q0 69 22.5 138t63.5 131t97.5 110.5t125 76t145.5 27.5q71 0 127.5 -30t89.5 -87t33 -138q0 -70 -22.5 -139t-63 -131t-96.5 -110t-123.5 -75.5t-142.5 -27.5zM345 16q55 0 107 26t96.5 71.5t79 104.5t53.5 126.5t19 136.5
q0 101 -43 157.5t-121 56.5q-55 0 -107.5 -26t-98 -72.5t-80 -106t-54 -127.5t-19.5 -138q0 -99 44.5 -154t123.5 -55zM577 760h-12l-41 180h81z" />
    <glyph glyph-name="Oacute" unicode="&#xd3;" horiz-adv-x="778" 
d="M342 -14q-70 0 -128.5 28.5t-93 85.5t-34.5 141q0 69 22.5 138t63.5 131t97.5 110.5t125 76t145.5 27.5q71 0 127.5 -30t89.5 -87t33 -138q0 -70 -22.5 -139t-63 -131t-96.5 -110t-123.5 -75.5t-142.5 -27.5zM345 16q55 0 107 26t96.5 71.5t79 104.5t53.5 126.5t19 136.5
q0 101 -43 157.5t-121 56.5q-55 0 -107.5 -26t-98 -72.5t-80 -106t-54 -127.5t-19.5 -138q0 -99 44.5 -154t123.5 -55zM556 760l60 180h81l-129 -180h-12z" />
    <glyph glyph-name="Ocircumflex" unicode="&#xd4;" horiz-adv-x="778" 
d="M342 -14q-70 0 -128.5 28.5t-93 85.5t-34.5 141q0 69 22.5 138t63.5 131t97.5 110.5t125 76t145.5 27.5q71 0 127.5 -30t89.5 -87t33 -138q0 -70 -22.5 -139t-63 -131t-96.5 -110t-123.5 -75.5t-142.5 -27.5zM345 16q55 0 107 26t96.5 71.5t79 104.5t53.5 126.5t19 136.5
q0 101 -43 157.5t-121 56.5q-55 0 -107.5 -26t-98 -72.5t-80 -106t-54 -127.5t-19.5 -138q0 -99 44.5 -154t123.5 -55zM465 761l142 179h39l16 -179h-29l-29 98l-105 -98h-34z" />
    <glyph glyph-name="Otilde" unicode="&#xd5;" horiz-adv-x="778" 
d="M342 -14q-70 0 -128.5 28.5t-93 85.5t-34.5 141q0 69 22.5 138t63.5 131t97.5 110.5t125 76t145.5 27.5q71 0 127.5 -30t89.5 -87t33 -138q0 -70 -22.5 -139t-63 -131t-96.5 -110t-123.5 -75.5t-142.5 -27.5zM345 16q55 0 107 26t96.5 71.5t79 104.5t53.5 126.5t19 136.5
q0 101 -43 157.5t-121 56.5q-55 0 -107.5 -26t-98 -72.5t-80 -106t-54 -127.5t-19.5 -138q0 -99 44.5 -154t123.5 -55zM647 801q-19 0 -34 9t-25 16l-20 16q-14 11 -26 18.5t-26 7.5q-22 0 -45 -19t-34 -37h-19q6 15 23.5 39.5t44 44.5t56.5 20q19 0 34.5 -10t22.5 -16
l29 -22q6 -4 19 -11.5t26 -7.5q20 0 39 15t33 36h19q-22 -45 -54.5 -72t-62.5 -27z" />
    <glyph glyph-name="Odieresis" unicode="&#xd6;" horiz-adv-x="778" 
d="M342 -14q-70 0 -128.5 28.5t-93 85.5t-34.5 141q0 69 22.5 138t63.5 131t97.5 110.5t125 76t145.5 27.5q71 0 127.5 -30t89.5 -87t33 -138q0 -70 -22.5 -139t-63 -131t-96.5 -110t-123.5 -75.5t-142.5 -27.5zM345 16q55 0 107 26t96.5 71.5t79 104.5t53.5 126.5t19 136.5
q0 101 -43 157.5t-121 56.5q-55 0 -107.5 -26t-98 -72.5t-80 -106t-54 -127.5t-19.5 -138q0 -99 44.5 -154t123.5 -55zM484 806q-22 0 -36 15t-14 35q0 19 14 33.5t36 14.5q20 0 34 -14.5t14 -33.5q0 -20 -14 -35t-34 -15zM678 806q-22 0 -36 15t-14 35q0 19 14 33.5
t36 14.5q20 0 34 -14.5t14 -33.5q0 -20 -14 -35t-34 -15z" />
    <glyph glyph-name="multiply" unicode="&#xd7;" horiz-adv-x="505" 
d="M41 109l-20 30l242 178l-109 172l28 23l111 -174l238 175l20 -30l-238 -175l110 -175l-28 -23l-112 176z" />
    <glyph glyph-name="Oslash" unicode="&#xd8;" horiz-adv-x="778" 
d="M342 -14q-70 0 -128.5 28.5t-93 85.5t-34.5 141q0 69 22.5 138t63.5 131t97.5 110.5t125 76t145.5 27.5q71 0 127.5 -30t89.5 -87t33 -138q0 -70 -22.5 -139t-63 -131t-96.5 -110t-123.5 -75.5t-142.5 -27.5zM345 16q55 0 107 26t96.5 71.5t79 104.5t53.5 126.5t19 136.5
q0 101 -43 157.5t-121 56.5q-55 0 -107.5 -26t-98 -72.5t-80 -106t-54 -127.5t-19.5 -138q0 -99 44.5 -154t123.5 -55zM85 -15l644 740h56l-644 -740h-56z" />
    <glyph glyph-name="Ugrave" unicode="&#xd9;" horiz-adv-x="758" 
d="M366 -14q-123 0 -176 45.5t-53 124.5q0 26 6 56t16 63l109 339q3 11 5 20t2 16q0 18 -16 25t-57 11l-19 2l8 25l149 -3l149 3l-8 -25l-21 -2q-36 -3 -58.5 -12.5t-37.5 -32t-29 -67.5l-95 -299q-9 -29 -14 -56t-5 -51q0 -67 38 -108.5t118 -41.5q56 0 101.5 24t82.5 80
t68 152l113 351q5 18 5 27q0 19 -16.5 24.5t-53.5 9.5l-19 2l8 25l118 -3l123 3l-8 -25l-21 -2q-32 -3 -52.5 -8t-33.5 -19.5t-23 -46.5l-97 -304q-35 -108 -72.5 -179.5t-92.5 -107t-141 -35.5zM593 760h-12l-41 180h81z" />
    <glyph glyph-name="Uacute" unicode="&#xda;" horiz-adv-x="758" 
d="M366 -14q-123 0 -176 45.5t-53 124.5q0 26 6 56t16 63l109 339q3 11 5 20t2 16q0 18 -16 25t-57 11l-19 2l8 25l149 -3l149 3l-8 -25l-21 -2q-36 -3 -58.5 -12.5t-37.5 -32t-29 -67.5l-95 -299q-9 -29 -14 -56t-5 -51q0 -67 38 -108.5t118 -41.5q56 0 101.5 24t82.5 80
t68 152l113 351q5 18 5 27q0 19 -16.5 24.5t-53.5 9.5l-19 2l8 25l118 -3l123 3l-8 -25l-21 -2q-32 -3 -52.5 -8t-33.5 -19.5t-23 -46.5l-97 -304q-35 -108 -72.5 -179.5t-92.5 -107t-141 -35.5zM572 760l60 180h81l-129 -180h-12z" />
    <glyph glyph-name="Ucircumflex" unicode="&#xdb;" horiz-adv-x="758" 
d="M366 -14q-123 0 -176 45.5t-53 124.5q0 26 6 56t16 63l109 339q3 11 5 20t2 16q0 18 -16 25t-57 11l-19 2l8 25l149 -3l149 3l-8 -25l-21 -2q-36 -3 -58.5 -12.5t-37.5 -32t-29 -67.5l-95 -299q-9 -29 -14 -56t-5 -51q0 -67 38 -108.5t118 -41.5q56 0 101.5 24t82.5 80
t68 152l113 351q5 18 5 27q0 19 -16.5 24.5t-53.5 9.5l-19 2l8 25l118 -3l123 3l-8 -25l-21 -2q-32 -3 -52.5 -8t-33.5 -19.5t-23 -46.5l-97 -304q-35 -108 -72.5 -179.5t-92.5 -107t-141 -35.5zM481 761l142 179h39l16 -179h-29l-29 98l-105 -98h-34z" />
    <glyph glyph-name="Udieresis" unicode="&#xdc;" horiz-adv-x="758" 
d="M366 -14q-123 0 -176 45.5t-53 124.5q0 26 6 56t16 63l109 339q3 11 5 20t2 16q0 18 -16 25t-57 11l-19 2l8 25l149 -3l149 3l-8 -25l-21 -2q-36 -3 -58.5 -12.5t-37.5 -32t-29 -67.5l-95 -299q-9 -29 -14 -56t-5 -51q0 -67 38 -108.5t118 -41.5q56 0 101.5 24t82.5 80
t68 152l113 351q5 18 5 27q0 19 -16.5 24.5t-53.5 9.5l-19 2l8 25l118 -3l123 3l-8 -25l-21 -2q-32 -3 -52.5 -8t-33.5 -19.5t-23 -46.5l-97 -304q-35 -108 -72.5 -179.5t-92.5 -107t-141 -35.5zM500 806q-22 0 -36 15t-14 35q0 19 14 33.5t36 14.5q20 0 34 -14.5t14 -33.5
q0 -20 -14 -35t-34 -15zM694 806q-22 0 -36 15t-14 35q0 19 14 33.5t36 14.5q20 0 34 -14.5t14 -33.5q0 -20 -14 -35t-34 -15z" />
    <glyph glyph-name="Yacute" unicode="&#xdd;" horiz-adv-x="663" 
d="M150 -3l9 25l21 2q31 4 50.5 8.5t33 20t24.5 49.5l48 173l-79 318q-7 29 -15 48t-26 30t-56 15l-19 2l9 25l131 -3l146 3l-9 -25l-21 -2q-66 -6 -66 -60q0 -10 2 -21t5 -24l68 -265l222 279q26 33 26 53q0 18 -20 26t-58 12l-19 2l9 25l128 -3l126 3l-9 -25l-21 -3
q-27 -4 -57.5 -24t-62.5 -60l-250 -314l-56 -198q-3 -10 -3 -19q0 -26 26.5 -33.5t70.5 -12.5l19 -2l-9 -25l-173 3zM518 760l60 180h81l-129 -180h-12z" />
    <glyph glyph-name="Thorn" unicode="&#xde;" horiz-adv-x="683" 
d="M-38 -3l9 25l22 2q36 4 58.5 14t38.5 33t30 63l174 480q8 26 8 37q0 17 -17.5 24.5t-62.5 11.5l-19 2l9 24l157 -3l149 3l-9 -25l-22 -2q-35 -3 -58 -14t-38.5 -33.5t-30.5 -62.5l-2 -6l69 1q129 2 193 -44.5t64 -123.5q0 -114 -89 -177.5t-260 -63.5q-34 0 -72 3l-51 4
l-26 -73q-8 -26 -8 -37q0 -17 17.5 -24t62.5 -12l19 -2l-9 -24l-157 3zM288 194q8 -1 16.5 -1h16.5q80 0 133.5 20t85 52t45 69.5t13.5 72.5q0 66 -46.5 101t-119.5 35h-84l-125 -346z" />
    <glyph glyph-name="germandbls" unicode="&#xdf;" horiz-adv-x="593" 
d="M342 -14q-66 0 -101.5 30.5t-35.5 67.5q0 26 11.5 44.5t37.5 18.5q16 0 25.5 -9.5t9.5 -23.5q0 -19 -7.5 -30.5t-7.5 -29.5q0 -19 18 -32.5t49 -13.5q63 0 100 38.5t37 96.5q0 37 -13 63.5t-35 51.5q-23 26 -46.5 52t-23.5 63q0 31 18.5 54.5t45 43t51.5 38.5q11 8 26 24
t27 38.5t12 48.5q0 46 -19.5 63.5t-50.5 17.5q-59 0 -99 -44.5t-63 -106.5l-155 -429q-15 -42 -22 -69t-12 -52h-46l-124 -3l9 23l16 2q31 4 48.5 9.5t30.5 25t29 64.5l108 295h-87l8 24h88l21 58q33 89 74.5 138t91.5 68.5t107 19.5t91 -24.5t34 -61.5q0 -33 -17.5 -55.5
t-43 -41t-49.5 -39.5q-26 -19 -51.5 -42t-25.5 -61q0 -27 13 -44.5t29 -37.5q17 -20 34.5 -42.5t30 -51t12.5 -66.5q0 -47 -26.5 -86t-73.5 -62t-108 -23z" />
    <glyph glyph-name="agrave" unicode="&#xe0;" horiz-adv-x="533" 
d="M162 -14q-47 0 -77 19.5t-44 52t-14 69.5q0 63 27 122t70.5 105t94.5 73t100 27q46 0 69.5 -30t27.5 -77l34 93h66l-125 -355q-4 -15 -7 -26.5t-3 -19.5q0 -20 16 -20q22 0 43 23t34 45l18 -12q-19 -31 -49 -60t-73 -29q-31 0 -43.5 15t-12.5 40q0 19 6 43
q-33 -46 -73 -72t-85 -26zM172 12q57 0 107 54.5t86 143.5l12 34q17 50 17 92q0 41 -17 66.5t-52 25.5q-40 0 -79.5 -30.5t-72 -79.5t-52 -104.5t-19.5 -106.5q0 -47 19 -71t51 -24zM336 520l-36 97q-7 19 -10.5 33t-3.5 28q0 17 9.5 29.5t28.5 12.5q14 0 23 -14.5t10 -49.5
l3 -136h-24z" />
    <glyph glyph-name="aacute" unicode="&#xe1;" horiz-adv-x="533" 
d="M162 -14q-47 0 -77 19.5t-44 52t-14 69.5q0 63 27 122t70.5 105t94.5 73t100 27q46 0 69.5 -30t27.5 -77l34 93h66l-125 -355q-4 -15 -7 -26.5t-3 -19.5q0 -20 16 -20q22 0 43 23t34 45l18 -12q-19 -31 -49 -60t-73 -29q-31 0 -43.5 15t-12.5 40q0 19 6 43
q-33 -46 -73 -72t-85 -26zM172 12q57 0 107 54.5t86 143.5l12 34q17 50 17 92q0 41 -17 66.5t-52 25.5q-40 0 -79.5 -30.5t-72 -79.5t-52 -104.5t-19.5 -106.5q0 -47 19 -71t51 -24zM328 520l42 144q7 24 17 39.5t30 15.5q15 0 22.5 -10.5t7.5 -24.5q0 -12 -5 -27t-24 -42
l-68 -95h-22z" />
    <glyph glyph-name="acircumflex" unicode="&#xe2;" horiz-adv-x="533" 
d="M162 -14q-47 0 -77 19.5t-44 52t-14 69.5q0 63 27 122t70.5 105t94.5 73t100 27q46 0 69.5 -30t27.5 -77l34 93h66l-125 -355q-4 -15 -7 -26.5t-3 -19.5q0 -20 16 -20q22 0 43 23t34 45l18 -12q-19 -31 -49 -60t-73 -29q-31 0 -43.5 15t-12.5 40q0 19 6 43
q-33 -46 -73 -72t-85 -26zM172 12q57 0 107 54.5t86 143.5l12 34q17 50 17 92q0 41 -17 66.5t-52 25.5q-40 0 -79.5 -30.5t-72 -79.5t-52 -104.5t-19.5 -106.5q0 -47 19 -71t51 -24zM238 521l162 189h39l-4 -189h-29l-15 108l-119 -108h-34z" />
    <glyph glyph-name="atilde" unicode="&#xe3;" horiz-adv-x="533" 
d="M162 -14q-47 0 -77 19.5t-44 52t-14 69.5q0 63 27 122t70.5 105t94.5 73t100 27q46 0 69.5 -30t27.5 -77l34 93h66l-125 -355q-4 -15 -7 -26.5t-3 -19.5q0 -20 16 -20q22 0 43 23t34 45l18 -12q-19 -31 -49 -60t-73 -29q-31 0 -43.5 15t-12.5 40q0 19 6 43
q-33 -46 -73 -72t-85 -26zM172 12q57 0 107 54.5t86 143.5l12 34q17 50 17 92q0 41 -17 66.5t-52 25.5q-40 0 -79.5 -30.5t-72 -79.5t-52 -104.5t-19.5 -106.5q0 -47 19 -71t51 -24zM433 553q-19 0 -34 9t-25 16l-20 16q-14 11 -26 18.5t-26 7.5q-22 0 -45 -19t-34 -37h-19
q6 15 23.5 39.5t44 44.5t56.5 20q19 0 34.5 -10t22.5 -16l29 -22q6 -4 19 -11.5t26 -7.5q20 0 39 15t33 36h19q-22 -45 -54.5 -72t-62.5 -27z" />
    <glyph glyph-name="adieresis" unicode="&#xe4;" horiz-adv-x="533" 
d="M162 -14q-47 0 -77 19.5t-44 52t-14 69.5q0 63 27 122t70.5 105t94.5 73t100 27q46 0 69.5 -30t27.5 -77l34 93h66l-125 -355q-4 -15 -7 -26.5t-3 -19.5q0 -20 16 -20q22 0 43 23t34 45l18 -12q-19 -31 -49 -60t-73 -29q-31 0 -43.5 15t-12.5 40q0 19 6 43
q-33 -46 -73 -72t-85 -26zM172 12q57 0 107 54.5t86 143.5l12 34q17 50 17 92q0 41 -17 66.5t-52 25.5q-40 0 -79.5 -30.5t-72 -79.5t-52 -104.5t-19.5 -106.5q0 -47 19 -71t51 -24zM279 557q-22 0 -36 15t-14 35q0 19 14 33.5t36 14.5q20 0 34 -14.5t14 -33.5
q0 -20 -14 -35t-34 -15zM473 557q-22 0 -36 15t-14 35q0 19 14 33.5t36 14.5q20 0 34 -14.5t14 -33.5q0 -20 -14 -35t-34 -15z" />
    <glyph glyph-name="aring" unicode="&#xe5;" horiz-adv-x="533" 
d="M162 -14q-47 0 -77 19.5t-44 52t-14 69.5q0 63 27 122t70.5 105t94.5 73t100 27q46 0 69.5 -30t27.5 -77l34 93h66l-125 -355q-4 -15 -7 -26.5t-3 -19.5q0 -20 16 -20q22 0 43 23t34 45l18 -12q-19 -31 -49 -60t-73 -29q-31 0 -43.5 15t-12.5 40q0 19 6 43
q-33 -46 -73 -72t-85 -26zM172 12q57 0 107 54.5t86 143.5l12 34q17 50 17 92q0 41 -17 66.5t-52 25.5q-40 0 -79.5 -30.5t-72 -79.5t-52 -104.5t-19.5 -106.5q0 -47 19 -71t51 -24zM377 528q-39 0 -62.5 25t-23.5 60q0 32 22 58.5t63 26.5q30 0 48.5 -13.5t27 -33
t8.5 -38.5q0 -44 -26.5 -64.5t-56.5 -20.5zM377 554q21 0 37.5 15t16.5 44t-16.5 44t-38.5 15q-19 0 -37.5 -13.5t-18.5 -45.5q0 -28 17 -43.5t40 -15.5z" />
    <glyph glyph-name="ae" unicode="&#xe6;" horiz-adv-x="652" 
d="M132 -11q-46 0 -76 18.5t-30 54.5q0 38 26.5 69.5t68 56.5t87.5 43.5t84 29.5q3 8 7 16q6 22 10.5 46.5t4.5 43.5q0 28 -13.5 46.5t-45.5 18.5q-42 0 -57 -24.5t-17 -50.5q-1 -19 -12 -32.5t-33 -13.5q-21 0 -30.5 12.5t-9.5 30.5q0 20 15 43.5t49 40t91 16.5
q107 0 122 -76q37 35 81.5 54.5t87.5 19.5q47 0 74.5 -23.5t27.5 -62.5q-1 -59 -55.5 -92.5t-146.5 -43.5l-84 -8q-12 -46 -12 -88q0 -29 8.5 -57t28.5 -46.5t52 -18.5q39 0 71.5 25.5t51.5 52.5l17 -14q-23 -32 -60 -61t-93 -29q-55 0 -88.5 25.5t-49.5 65.5
q-30 -39 -71.5 -63.5t-80.5 -24.5zM541 432q-33 0 -67 -26t-63 -69t-46 -94l56 8q53 8 85.5 24t49.5 36t23 38.5t6 31.5q0 23 -10 37t-34 14zM101 75q0 -23 16.5 -37t43.5 -14t60.5 24t54.5 56q-5 24 -5 50q0 41 12 81q-41 -14 -83 -37t-70.5 -53.5t-28.5 -69.5z" />
    <glyph glyph-name="ccedilla" unicode="&#xe7;" horiz-adv-x="438" 
d="M200 -14q-81 0 -122.5 47.5t-41.5 121.5q0 61 25.5 115t68.5 95.5t95.5 65t106.5 23.5q50 0 73.5 -13.5t31 -31t7.5 -30.5q0 -19 -11 -35.5t-34 -16.5q-19 0 -30 11t-11 29q0 32 -2 48.5t-30 16.5q-41 0 -79 -26t-68 -68.5t-47.5 -92t-17.5 -97.5q0 -56 24 -96.5
t79 -40.5q24 0 49 11t45 31q22 21 39 50l18 -13q-22 -43 -63.5 -73.5t-104.5 -30.5zM77 -294q-37 0 -53.5 23t-20.5 47l26 5q5 -19 17.5 -33t35.5 -14q28 0 53.5 20.5t42.5 52t17 65.5q0 20 -11 33t-34 13q-17 0 -38 -11.5t-38 -28.5l-16 13q24 26 52.5 39t56.5 13l22 57h30
l-25 -60q52 -14 52 -73q0 -36 -23 -73t-61.5 -62.5t-84.5 -25.5z" />
    <glyph glyph-name="egrave" unicode="&#xe8;" horiz-adv-x="418" 
d="M188 -14q-53 0 -86.5 23.5t-49 62t-15.5 82.5q0 62 24 115.5t64 95t87.5 64.5t95.5 23q47 0 74.5 -23.5t27.5 -62.5q-1 -59 -55.5 -92.5t-146.5 -43.5l-84 -8q-12 -46 -12 -88q0 -29 8.5 -57t28.5 -46.5t52 -18.5q39 0 71.5 25.5t51.5 52.5l17 -14q-23 -32 -60 -61
t-93 -29zM307 432q-33 0 -67 -26t-63 -69t-46 -94l56 8q53 8 85.5 24t49.5 36t23 38.5t6 31.5q0 23 -10 37t-34 14zM308 520l-36 97q-7 19 -10.5 33t-3.5 28q0 17 9.5 29.5t28.5 12.5q14 0 23 -14.5t10 -49.5l3 -136h-24z" />
    <glyph glyph-name="eacute" unicode="&#xe9;" horiz-adv-x="418" 
d="M188 -14q-53 0 -86.5 23.5t-49 62t-15.5 82.5q0 62 24 115.5t64 95t87.5 64.5t95.5 23q47 0 74.5 -23.5t27.5 -62.5q-1 -59 -55.5 -92.5t-146.5 -43.5l-84 -8q-12 -46 -12 -88q0 -29 8.5 -57t28.5 -46.5t52 -18.5q39 0 71.5 25.5t51.5 52.5l17 -14q-23 -32 -60 -61
t-93 -29zM307 432q-33 0 -67 -26t-63 -69t-46 -94l56 8q53 8 85.5 24t49.5 36t23 38.5t6 31.5q0 23 -10 37t-34 14zM300 520l42 144q7 24 17 39.5t30 15.5q15 0 22.5 -10.5t7.5 -24.5q0 -12 -5 -27t-24 -42l-68 -95h-22z" />
    <glyph glyph-name="ecircumflex" unicode="&#xea;" horiz-adv-x="418" 
d="M188 -14q-53 0 -86.5 23.5t-49 62t-15.5 82.5q0 62 24 115.5t64 95t87.5 64.5t95.5 23q47 0 74.5 -23.5t27.5 -62.5q-1 -59 -55.5 -92.5t-146.5 -43.5l-84 -8q-12 -46 -12 -88q0 -29 8.5 -57t28.5 -46.5t52 -18.5q39 0 71.5 25.5t51.5 52.5l17 -14q-23 -32 -60 -61
t-93 -29zM307 432q-33 0 -67 -26t-63 -69t-46 -94l56 8q53 8 85.5 24t49.5 36t23 38.5t6 31.5q0 23 -10 37t-34 14zM210 521l162 189h39l-4 -189h-29l-15 108l-119 -108h-34z" />
    <glyph glyph-name="edieresis" unicode="&#xeb;" horiz-adv-x="418" 
d="M188 -14q-53 0 -86.5 23.5t-49 62t-15.5 82.5q0 62 24 115.5t64 95t87.5 64.5t95.5 23q47 0 74.5 -23.5t27.5 -62.5q-1 -59 -55.5 -92.5t-146.5 -43.5l-84 -8q-12 -46 -12 -88q0 -29 8.5 -57t28.5 -46.5t52 -18.5q39 0 71.5 25.5t51.5 52.5l17 -14q-23 -32 -60 -61
t-93 -29zM307 432q-33 0 -67 -26t-63 -69t-46 -94l56 8q53 8 85.5 24t49.5 36t23 38.5t6 31.5q0 23 -10 37t-34 14zM251 557q-22 0 -36 15t-14 35q0 19 14 33.5t36 14.5q20 0 34 -14.5t14 -33.5q0 -20 -14 -35t-34 -15zM445 557q-22 0 -36 15t-14 35q0 19 14 33.5t36 14.5
q20 0 34 -14.5t14 -33.5q0 -20 -14 -35t-34 -15z" />
    <glyph glyph-name="igrave" unicode="&#xec;" horiz-adv-x="279" 
d="M100 -14q-31 0 -43.5 15t-12.5 40q0 16 4 34.5t11 37.5l87 234q8 22 8 35q0 18 -11 25t-28.5 8t-36.5 1l7 24l162 3l-126 -358q-4 -15 -7 -26.5t-3 -19.5q0 -20 16 -20q22 0 43 23t34 45l18 -12q-19 -31 -49 -60t-73 -29zM212 520l-36 97q-7 19 -10.5 33t-3.5 28
q0 17 9.5 29.5t28.5 12.5q14 0 23 -14.5t10 -49.5l3 -136h-24z" />
    <glyph glyph-name="iacute" unicode="&#xed;" horiz-adv-x="279" 
d="M100 -14q-31 0 -43.5 15t-12.5 40q0 16 4 34.5t11 37.5l87 234q8 22 8 35q0 18 -11 25t-28.5 8t-36.5 1l7 24l162 3l-126 -358q-4 -15 -7 -26.5t-3 -19.5q0 -20 16 -20q22 0 43 23t34 45l18 -12q-19 -31 -49 -60t-73 -29zM204 520l42 144q7 24 17 39.5t30 15.5
q15 0 22.5 -10.5t7.5 -24.5q0 -12 -5 -27t-24 -42l-68 -95h-22z" />
    <glyph glyph-name="icircumflex" unicode="&#xee;" horiz-adv-x="279" 
d="M100 -14q-31 0 -43.5 15t-12.5 40q0 16 4 34.5t11 37.5l87 234q8 22 8 35q0 18 -11 25t-28.5 8t-36.5 1l7 24l162 3l-126 -358q-4 -15 -7 -26.5t-3 -19.5q0 -20 16 -20q22 0 43 23t34 45l18 -12q-19 -31 -49 -60t-73 -29zM114 521l162 189h39l-4 -189h-29l-15 108
l-119 -108h-34z" />
    <glyph glyph-name="idieresis" unicode="&#xef;" horiz-adv-x="279" 
d="M100 -14q-31 0 -43.5 15t-12.5 40q0 16 4 34.5t11 37.5l87 234q8 22 8 35q0 18 -11 25t-28.5 8t-36.5 1l7 24l162 3l-126 -358q-4 -15 -7 -26.5t-3 -19.5q0 -20 16 -20q22 0 43 23t34 45l18 -12q-19 -31 -49 -60t-73 -29zM145 559q-22 0 -36 15t-14 35q0 19 14 33.5
t36 14.5q20 0 34 -14.5t14 -33.5q0 -20 -14 -35t-34 -15zM302 559q-22 0 -36 15t-14 35q0 19 14 33.5t36 14.5q20 0 34 -14.5t14 -33.5q0 -20 -14 -35t-34 -15z" />
    <glyph glyph-name="eth" unicode="&#xf0;" horiz-adv-x="518" 
d="M196 -14q-53 0 -89 22.5t-53.5 60t-17.5 80.5q0 60 22.5 114.5t62 97.5t90.5 68t107 25q39 0 69.5 -12.5t50.5 -33.5q-2 55 -12 99t-31 85l-125 -22v25l113 20q-16 26 -36.5 52.5t-46.5 56.5h22q57 -38 102 -102l119 21v-24l-104 -19q29 -48 47 -103.5t18 -112.5
q0 -68 -20.5 -138t-60 -129t-96.5 -95t-131 -36zM195 8q37 0 69 21.5t58.5 56.5t45.5 77t29.5 83.5t10.5 75.5q0 110 -88 110q-37 0 -69 -21t-58.5 -56t-45.5 -76.5t-29.5 -82.5t-10.5 -75q0 -113 88 -113z" />
    <glyph glyph-name="ntilde" unicode="&#xf1;" horiz-adv-x="536" 
d="M362 -14q-31 0 -43.5 15t-12.5 39q0 15 4 33t11 37l87 246q11 32 3 52.5t-37 20.5q-27 0 -57 -16.5t-58 -42.5t-49 -56t-31 -57l-93 -257h-72l124 344q17 49 3 60.5t-61 11.5l8 24l147 3l-32 -107q22 31 51.5 57.5t65 43.5t76.5 17q61 0 79 -32t-3 -91l-90 -251
q-7 -21 -7.5 -41t16.5 -20q23 0 42.5 21.5t32.5 43.5l18 -12q-19 -31 -49 -58.5t-73 -27.5zM440 553q-19 0 -34 9t-25 16l-20 16q-14 11 -26 18.5t-26 7.5q-22 0 -45 -19t-34 -37h-19q6 15 23.5 39.5t44 44.5t56.5 20q19 0 34.5 -10t22.5 -16l29 -22q6 -4 19 -11.5t26 -7.5
q20 0 39 15t33 36h19q-22 -45 -54.5 -72t-62.5 -27z" />
    <glyph glyph-name="ograve" unicode="&#xf2;" horiz-adv-x="514" 
d="M196 -14q-53 0 -89 22.5t-53.5 60t-17.5 80.5q0 60 22.5 114.5t62 97.5t90.5 68t107 25q54 0 90 -22.5t53.5 -58.5t17.5 -79q0 -60 -22.5 -115.5t-62 -99t-90.5 -68.5t-108 -25zM195 8q37 0 69 21.5t58.5 56.5t45.5 77t29.5 83.5t10.5 75.5q0 110 -88 110q-37 0 -69 -21
t-58.5 -56t-45.5 -76.5t-29.5 -82.5t-10.5 -75q0 -113 88 -113zM343 520l-36 97q-7 19 -10.5 33t-3.5 28q0 17 9.5 29.5t28.5 12.5q14 0 23 -14.5t10 -49.5l3 -136h-24z" />
    <glyph glyph-name="oacute" unicode="&#xf3;" horiz-adv-x="514" 
d="M196 -14q-53 0 -89 22.5t-53.5 60t-17.5 80.5q0 60 22.5 114.5t62 97.5t90.5 68t107 25q54 0 90 -22.5t53.5 -58.5t17.5 -79q0 -60 -22.5 -115.5t-62 -99t-90.5 -68.5t-108 -25zM195 8q37 0 69 21.5t58.5 56.5t45.5 77t29.5 83.5t10.5 75.5q0 110 -88 110q-37 0 -69 -21
t-58.5 -56t-45.5 -76.5t-29.5 -82.5t-10.5 -75q0 -113 88 -113zM335 520l42 144q7 24 17 39.5t30 15.5q15 0 22.5 -10.5t7.5 -24.5q0 -12 -5 -27t-24 -42l-68 -95h-22z" />
    <glyph glyph-name="ocircumflex" unicode="&#xf4;" horiz-adv-x="514" 
d="M196 -14q-53 0 -89 22.5t-53.5 60t-17.5 80.5q0 60 22.5 114.5t62 97.5t90.5 68t107 25q54 0 90 -22.5t53.5 -58.5t17.5 -79q0 -60 -22.5 -115.5t-62 -99t-90.5 -68.5t-108 -25zM195 8q37 0 69 21.5t58.5 56.5t45.5 77t29.5 83.5t10.5 75.5q0 110 -88 110q-37 0 -69 -21
t-58.5 -56t-45.5 -76.5t-29.5 -82.5t-10.5 -75q0 -113 88 -113zM245 521l162 189h39l-4 -189h-29l-15 108l-119 -108h-34z" />
    <glyph glyph-name="otilde" unicode="&#xf5;" horiz-adv-x="514" 
d="M196 -14q-53 0 -89 22.5t-53.5 60t-17.5 80.5q0 60 22.5 114.5t62 97.5t90.5 68t107 25q54 0 90 -22.5t53.5 -58.5t17.5 -79q0 -60 -22.5 -115.5t-62 -99t-90.5 -68.5t-108 -25zM195 8q37 0 69 21.5t58.5 56.5t45.5 77t29.5 83.5t10.5 75.5q0 110 -88 110q-37 0 -69 -21
t-58.5 -56t-45.5 -76.5t-29.5 -82.5t-10.5 -75q0 -113 88 -113zM440 553q-19 0 -34 9t-25 16l-20 16q-14 11 -26 18.5t-26 7.5q-22 0 -45 -19t-34 -37h-19q6 15 23.5 39.5t44 44.5t56.5 20q19 0 34.5 -10t22.5 -16l29 -22q6 -4 19 -11.5t26 -7.5q20 0 39 15t33 36h19
q-22 -45 -54.5 -72t-62.5 -27z" />
    <glyph glyph-name="odieresis" unicode="&#xf6;" horiz-adv-x="514" 
d="M196 -14q-53 0 -89 22.5t-53.5 60t-17.5 80.5q0 60 22.5 114.5t62 97.5t90.5 68t107 25q54 0 90 -22.5t53.5 -58.5t17.5 -79q0 -60 -22.5 -115.5t-62 -99t-90.5 -68.5t-108 -25zM195 8q37 0 69 21.5t58.5 56.5t45.5 77t29.5 83.5t10.5 75.5q0 110 -88 110q-37 0 -69 -21
t-58.5 -56t-45.5 -76.5t-29.5 -82.5t-10.5 -75q0 -113 88 -113zM286 557q-22 0 -36 15t-14 35q0 19 14 33.5t36 14.5q20 0 34 -14.5t14 -33.5q0 -20 -14 -35t-34 -15zM480 557q-22 0 -36 15t-14 35q0 19 14 33.5t36 14.5q20 0 34 -14.5t14 -33.5q0 -20 -14 -35t-34 -15z" />
    <glyph glyph-name="divide" unicode="&#xf7;" horiz-adv-x="600" 
d="M364 425q-19 0 -32 14t-13 33q0 22 15.5 38t34.5 16t32 -14t13 -34q0 -22 -15 -37.5t-35 -15.5zM90 300l13 36h436l-13 -36h-436zM263 81q-19 0 -32 14t-13 33q0 22 15.5 38t34.5 16t32 -14t13 -34q0 -22 -15 -37.5t-35 -15.5z" />
    <glyph glyph-name="oslash" unicode="&#xf8;" horiz-adv-x="514" 
d="M196 -14q-53 0 -89 22.5t-53.5 60t-17.5 80.5q0 60 22.5 114.5t62 97.5t90.5 68t107 25q54 0 90 -22.5t53.5 -58.5t17.5 -79q0 -60 -22.5 -115.5t-62 -99t-90.5 -68.5t-108 -25zM195 8q37 0 69 21.5t58.5 56.5t45.5 77t29.5 83.5t10.5 75.5q0 110 -88 110q-37 0 -69 -21
t-58.5 -56t-45.5 -76.5t-29.5 -82.5t-10.5 -75q0 -113 88 -113zM-38 -12l535 465h56l-534 -465h-57z" />
    <glyph glyph-name="ugrave" unicode="&#xf9;" horiz-adv-x="533" 
d="M139 -14q-131 0 -73 151l79 209q5 11 6.5 20.5t1.5 16.5q0 18 -11 25t-28 7.5t-36 0.5l7 24l164 3l-120 -335q-16 -43 -9.5 -70t38.5 -27q25 0 53.5 16t55.5 42t48.5 56.5t32.5 60.5l95 254h66l-125 -355q-4 -15 -7 -26.5t-3 -19.5q0 -20 16 -20q22 0 43 23t34 45l18 -12
q-19 -31 -49 -60t-73 -29q-31 0 -43.5 15t-12.5 40q0 20 8 50q-32 -42 -77 -73.5t-99 -31.5zM330 520l-36 97q-7 19 -10.5 33t-3.5 28q0 17 9.5 29.5t28.5 12.5q14 0 23 -14.5t10 -49.5l3 -136h-24z" />
    <glyph glyph-name="uacute" unicode="&#xfa;" horiz-adv-x="533" 
d="M139 -14q-131 0 -73 151l79 209q5 11 6.5 20.5t1.5 16.5q0 18 -11 25t-28 7.5t-36 0.5l7 24l164 3l-120 -335q-16 -43 -9.5 -70t38.5 -27q25 0 53.5 16t55.5 42t48.5 56.5t32.5 60.5l95 254h66l-125 -355q-4 -15 -7 -26.5t-3 -19.5q0 -20 16 -20q22 0 43 23t34 45l18 -12
q-19 -31 -49 -60t-73 -29q-31 0 -43.5 15t-12.5 40q0 20 8 50q-32 -42 -77 -73.5t-99 -31.5zM322 520l42 144q7 24 17 39.5t30 15.5q15 0 22.5 -10.5t7.5 -24.5q0 -12 -5 -27t-24 -42l-68 -95h-22z" />
    <glyph glyph-name="ucircumflex" unicode="&#xfb;" horiz-adv-x="533" 
d="M139 -14q-131 0 -73 151l79 209q5 11 6.5 20.5t1.5 16.5q0 18 -11 25t-28 7.5t-36 0.5l7 24l164 3l-120 -335q-16 -43 -9.5 -70t38.5 -27q25 0 53.5 16t55.5 42t48.5 56.5t32.5 60.5l95 254h66l-125 -355q-4 -15 -7 -26.5t-3 -19.5q0 -20 16 -20q22 0 43 23t34 45l18 -12
q-19 -31 -49 -60t-73 -29q-31 0 -43.5 15t-12.5 40q0 20 8 50q-32 -42 -77 -73.5t-99 -31.5zM232 521l162 189h39l-4 -189h-29l-15 108l-119 -108h-34z" />
    <glyph glyph-name="udieresis" unicode="&#xfc;" horiz-adv-x="533" 
d="M139 -14q-131 0 -73 151l79 209q5 11 6.5 20.5t1.5 16.5q0 18 -11 25t-28 7.5t-36 0.5l7 24l164 3l-120 -335q-16 -43 -9.5 -70t38.5 -27q25 0 53.5 16t55.5 42t48.5 56.5t32.5 60.5l95 254h66l-125 -355q-4 -15 -7 -26.5t-3 -19.5q0 -20 16 -20q22 0 43 23t34 45l18 -12
q-19 -31 -49 -60t-73 -29q-31 0 -43.5 15t-12.5 40q0 20 8 50q-32 -42 -77 -73.5t-99 -31.5zM273 557q-22 0 -36 15t-14 35q0 19 14 33.5t36 14.5q20 0 34 -14.5t14 -33.5q0 -20 -14 -35t-34 -15zM467 557q-22 0 -36 15t-14 35q0 19 14 33.5t36 14.5q20 0 34 -14.5t14 -33.5
q0 -20 -14 -35t-34 -15z" />
    <glyph glyph-name="yacute" unicode="&#xfd;" horiz-adv-x="481" 
d="M-55 -290q-32 0 -51.5 15t-19.5 37q0 23 15.5 36t37.5 13q19 0 33.5 -11t30 -22.5t38.5 -11.5q32 0 64 35l82 87q17 17 28.5 38t11.5 43q0 30 -16 63.5t-39 68.5q-28 44 -52 89.5t-24 87.5q0 53 31.5 85t74.5 59l-103 -6l8 24l153 8l5 -17q-51 -25 -69 -52t-18 -63
q0 -31 10.5 -67t25.5 -71t27 -66l42 -103l46 57q48 60 68.5 104t25 74t4.5 46q0 22 -6 39t-22 33q-11 11 -19.5 21t-8.5 26q0 13 13 29t34 16q20 0 38 -23t18 -77q0 -58 -23 -128.5t-94 -159.5l-142 -176q-59 -74 -101.5 -113t-78.5 -53t-78 -14zM301 520l42 144
q7 24 17 39.5t30 15.5q15 0 22.5 -10.5t7.5 -24.5q0 -12 -5 -27t-24 -42l-68 -95h-22z" />
    <glyph glyph-name="thorn" unicode="&#xfe;" horiz-adv-x="527" 
d="M-146 -280l8 24h24q22 0 33 10t24 46l299 815q5 11 6.5 20.5t1.5 16.5q0 19 -11 25.5t-28 7.5t-36 1l7 24l166 3l-128 -334q17 20 36 34q29 22 56 31.5t49 9.5q61 0 97 -43t36 -111q0 -64 -24 -120.5t-63.5 -100t-87 -68.5t-95.5 -25q-40 0 -68.5 27t-34.5 77l-106 -291
q-9 -27 -9 -38q0 -10 7 -13.5t20 -3.5h34l-7 -24h-206zM223 12q36 0 71 28t63.5 74t45 100t16.5 106q0 56 -20.5 81.5t-53.5 25.5q-29 0 -60.5 -21t-58.5 -55.5t-43 -76.5l-19 -53q-22 -62 -22 -109q0 -48 22 -74t59 -26z" />
    <glyph glyph-name="ydieresis" unicode="&#xff;" horiz-adv-x="481" 
d="M-55 -290q-32 0 -51.5 15t-19.5 37q0 23 15.5 36t37.5 13q19 0 33.5 -11t30 -22.5t38.5 -11.5q32 0 64 35l82 87q17 17 28.5 38t11.5 43q0 30 -16 63.5t-39 68.5q-28 44 -52 89.5t-24 87.5q0 53 31.5 85t74.5 59l-103 -6l8 24l153 8l5 -17q-51 -25 -69 -52t-18 -63
q0 -31 10.5 -67t25.5 -71t27 -66l42 -103l46 57q48 60 68.5 104t25 74t4.5 46q0 22 -6 39t-22 33q-11 11 -19.5 21t-8.5 26q0 13 13 29t34 16q20 0 38 -23t18 -77q0 -58 -23 -128.5t-94 -159.5l-142 -176q-59 -74 -101.5 -113t-78.5 -53t-78 -14zM252 557q-22 0 -36 15
t-14 35q0 19 14 33.5t36 14.5q20 0 34 -14.5t14 -33.5q0 -20 -14 -35t-34 -15zM446 557q-22 0 -36 15t-14 35q0 19 14 33.5t36 14.5q20 0 34 -14.5t14 -33.5q0 -20 -14 -35t-34 -15z" />
    <glyph glyph-name="Amacron" unicode="&#x100;" horiz-adv-x="662" 
d="M-70 -3l8 25l21 2q52 5 78 31t47 57l424 612l22 -14v-596q0 -27 4 -46t19.5 -29.5t51.5 -14.5l19 -2l-8 -25l-145 3l-145 -3l8 25l21 2q44 5 68.5 21.5t24.5 70.5v142h-229l-102 -147q-22 -32 -22 -51q0 -30 65 -36l19 -2l-8 -25l-118 3zM237 284h211v306zM445 827l14 40
h227l-14 -40h-227z" />
    <glyph glyph-name="Amacron" unicode="&#x101;" horiz-adv-x="662" 
d="M-70 -3l8 25l21 2q52 5 78 31t47 57l424 612l22 -14v-596q0 -27 4 -46t19.5 -29.5t51.5 -14.5l19 -2l-8 -25l-145 3l-145 -3l8 25l21 2q44 5 68.5 21.5t24.5 70.5v142h-229l-102 -147q-22 -32 -22 -51q0 -30 65 -36l19 -2l-8 -25l-118 3zM237 284h211v306zM445 827l14 40
h227l-14 -40h-227z" />
    <glyph glyph-name="Abreve" unicode="&#x102;" horiz-adv-x="662" 
d="M-70 -3l8 25l21 2q52 5 78 31t47 57l424 612l22 -14v-596q0 -27 4 -46t19.5 -29.5t51.5 -14.5l19 -2l-8 -25l-145 3l-145 -3l8 25l21 2q44 5 68.5 21.5t24.5 70.5v142h-229l-102 -147q-22 -32 -22 -51q0 -30 65 -36l19 -2l-8 -25l-118 3zM237 284h211v306zM526 787
q-36 0 -53 18t-17 46q0 22 11 52h25q-1 -4 -1.5 -8.5t-0.5 -8.5q0 -39 58 -39q31 0 54 12.5t39 43.5h25q-22 -61 -61 -88.5t-79 -27.5z" />
    <glyph glyph-name="abreve" unicode="&#x103;" horiz-adv-x="533" 
d="M162 -14q-47 0 -77 19.5t-44 52t-14 69.5q0 63 27 122t70.5 105t94.5 73t100 27q46 0 69.5 -30t27.5 -77l34 93h66l-125 -355q-4 -15 -7 -26.5t-3 -19.5q0 -20 16 -20q22 0 43 23t34 45l18 -12q-19 -31 -49 -60t-73 -29q-31 0 -43.5 15t-12.5 40q0 19 6 43
q-33 -46 -73 -72t-85 -26zM172 12q57 0 107 54.5t86 143.5l12 34q17 50 17 92q0 41 -17 66.5t-52 25.5q-40 0 -79.5 -30.5t-72 -79.5t-52 -104.5t-19.5 -106.5q0 -47 19 -71t51 -24zM359 535q-36 0 -53 18t-17 46q0 22 11 52h25q-1 -4 -1.5 -8.5t-0.5 -8.5q0 -39 58 -39
q31 0 54 12.5t39 43.5h25q-22 -61 -61 -88.5t-79 -27.5z" />
    <glyph glyph-name="Aogonek" unicode="&#x104;" horiz-adv-x="662" 
d="M-70 -3l8 25l21 2q52 5 78 31t47 57l424 612l22 -14v-596q0 -27 4 -46t19.5 -29.5t51.5 -14.5l19 -2l-8 -25l-145 3l-145 -3l8 25l21 2q44 5 68.5 21.5t24.5 70.5v142h-229l-102 -147q-22 -32 -22 -51q0 -30 65 -36l19 -2l-8 -25l-118 3zM237 284h211v306zM452 -294
q-46 0 -77 29.5t-31 72.5q0 38 25 74.5t61.5 71.5t72.5 65h26q-35 -31 -66 -59.5t-50 -56t-19 -57.5q0 -42 21.5 -63.5t57.5 -21.5q28 0 53 18t39 43l17 -5q-3 -25 -18 -51t-42.5 -43t-69.5 -17z" />
    <glyph glyph-name="aogonek" unicode="&#x105;" horiz-adv-x="533" 
d="M162 -14q-47 0 -77 19.5t-44 52t-14 69.5q0 63 27 122t70.5 105t94.5 73t100 27q46 0 69.5 -30t27.5 -77l34 93h66l-125 -355q-4 -15 -7 -26.5t-3 -19.5q0 -20 16 -20q22 0 43 23t34 45l18 -12q-19 -31 -49 -60t-73 -29q-31 0 -43.5 15t-12.5 40q0 19 6 43
q-33 -46 -73 -72t-85 -26zM172 12q57 0 107 54.5t86 143.5l12 34q17 50 17 92q0 41 -17 66.5t-52 25.5q-40 0 -79.5 -30.5t-72 -79.5t-52 -104.5t-19.5 -106.5q0 -47 19 -71t51 -24zM300 -294q-48 0 -74 27.5t-26 66.5q0 35 24 70t62 67.5t82 59t83 43.5l-24 -33
q-44 -21 -81 -51t-59 -64.5t-22 -71.5q0 -34 19 -55t51 -21q17 0 33.5 7t34.5 23l12 -14q-16 -23 -45 -38.5t-70 -15.5z" />
    <glyph glyph-name="Cacute" unicode="&#x106;" horiz-adv-x="700" 
d="M325 -11q-61 0 -116 24.5t-89.5 77.5t-34.5 137q0 72 21.5 143.5t60.5 135t93 112.5t119.5 77t138.5 28q44 0 75 -9t52.5 -21.5t35.5 -21.5t24 -9q8 0 19 12t18 22h26l-38 -103l-35 -109h-26q2 14 3 26t1 24q0 79 -41 119t-106 40q-53 0 -104 -24.5t-96 -67.5t-79 -99.5
t-53.5 -121t-19.5 -132.5q0 -104 43 -166.5t123 -62.5q39 0 80 18.5t79.5 50t69.5 72.5t49 86h26l-50 -141l-28 -106h-26q1 6 1.5 12t0.5 11q0 21 -14 21q-10 0 -35.5 -13.5t-67 -27.5t-100.5 -14zM521 760l60 180h81l-129 -180h-12z" />
    <glyph glyph-name="cacute" unicode="&#x107;" horiz-adv-x="438" 
d="M200 -14q-81 0 -122.5 47.5t-41.5 121.5q0 61 25.5 115t68.5 95.5t95.5 65t106.5 23.5q50 0 73.5 -13.5t31 -31t7.5 -30.5q0 -19 -11 -35.5t-34 -16.5q-19 0 -30 11t-11 29q0 32 -2 48.5t-30 16.5q-41 0 -79 -26t-68 -68.5t-47.5 -92t-17.5 -97.5q0 -56 24 -96.5
t79 -40.5q24 0 49 11t45 31q22 21 39 50l18 -13q-22 -43 -63.5 -73.5t-104.5 -30.5zM305 520l42 144q7 24 17 39.5t30 15.5q15 0 22.5 -10.5t7.5 -24.5q0 -12 -5 -27t-24 -42l-68 -95h-22z" />
    <glyph glyph-name="Cdotaccent" unicode="&#x10a;" horiz-adv-x="700" 
d="M325 -11q-61 0 -116 24.5t-89.5 77.5t-34.5 137q0 72 21.5 143.5t60.5 135t93 112.5t119.5 77t138.5 28q44 0 75 -9t52.5 -21.5t35.5 -21.5t24 -9q8 0 19 12t18 22h26l-38 -103l-35 -109h-26q2 14 3 26t1 24q0 79 -41 119t-106 40q-53 0 -104 -24.5t-96 -67.5t-79 -99.5
t-53.5 -121t-19.5 -132.5q0 -104 43 -166.5t123 -62.5q39 0 80 18.5t79.5 50t69.5 72.5t49 86h26l-50 -141l-28 -106h-26q1 6 1.5 12t0.5 11q0 21 -14 21q-10 0 -35.5 -13.5t-67 -27.5t-100.5 -14zM527 752q-24 0 -39.5 16t-15.5 38q0 21 15.5 37t39.5 16q21 0 36.5 -16
t15.5 -37q0 -22 -15.5 -38t-36.5 -16z" />
    <glyph glyph-name="cdotaccent" unicode="&#x10b;" horiz-adv-x="438" 
d="M200 -14q-81 0 -122.5 47.5t-41.5 121.5q0 61 25.5 115t68.5 95.5t95.5 65t106.5 23.5q50 0 73.5 -13.5t31 -31t7.5 -30.5q0 -19 -11 -35.5t-34 -16.5q-19 0 -30 11t-11 29q0 32 -2 48.5t-30 16.5q-41 0 -79 -26t-68 -68.5t-47.5 -92t-17.5 -97.5q0 -56 24 -96.5
t79 -40.5q24 0 49 11t45 31q22 21 39 50l18 -13q-22 -43 -63.5 -73.5t-104.5 -30.5zM341 553q-24 0 -39.5 16t-15.5 38q0 21 15.5 37t39.5 16q21 0 36.5 -16t15.5 -37q0 -22 -15.5 -38t-36.5 -16z" />
    <glyph glyph-name="Ccaron" unicode="&#x10c;" horiz-adv-x="700" 
d="M325 -11q-61 0 -116 24.5t-89.5 77.5t-34.5 137q0 72 21.5 143.5t60.5 135t93 112.5t119.5 77t138.5 28q44 0 75 -9t52.5 -21.5t35.5 -21.5t24 -9q8 0 19 12t18 22h26l-38 -103l-35 -109h-26q2 14 3 26t1 24q0 79 -41 119t-106 40q-53 0 -104 -24.5t-96 -67.5t-79 -99.5
t-53.5 -121t-19.5 -132.5q0 -104 43 -166.5t123 -62.5q39 0 80 18.5t79.5 50t69.5 72.5t49 86h26l-50 -141l-28 -106h-26q1 6 1.5 12t0.5 11q0 21 -14 21q-10 0 -35.5 -13.5t-67 -27.5t-100.5 -14zM523 761l-12 179h29l23 -99l111 99h34l-155 -179h-30z" />
    <glyph glyph-name="ccaron" unicode="&#x10d;" horiz-adv-x="438" 
d="M200 -14q-81 0 -122.5 47.5t-41.5 121.5q0 61 25.5 115t68.5 95.5t95.5 65t106.5 23.5q50 0 73.5 -13.5t31 -31t7.5 -30.5q0 -19 -11 -35.5t-34 -16.5q-19 0 -30 11t-11 29q0 32 -2 48.5t-30 16.5q-41 0 -79 -26t-68 -68.5t-47.5 -92t-17.5 -97.5q0 -56 24 -96.5
t79 -40.5q24 0 49 11t45 31q22 21 39 50l18 -13q-22 -43 -63.5 -73.5t-104.5 -30.5zM298 522l-6 188h29l18 -106l116 106h34l-161 -188h-30z" />
    <glyph glyph-name="Dcaron" unicode="&#x10e;" horiz-adv-x="789" 
d="M-49 -3l9 25l21 2q39 4 60 9.5t32.5 18.5t19.5 36l192 529q8 22 8 34q0 17 -16 24t-56 11l-19 2l9 25l147 -3h1l82 3q107 4 186.5 -26t124 -90t44.5 -147q0 -73 -24 -139.5t-68 -120.5q-47 -59 -112.5 -101.5t-143.5 -65.5t-163 -23h-185zM252 26h34q92 0 169 36
t133 96.5t87 137t31 157.5q0 68 -26.5 121t-88 83t-167.5 27l-35 -1l-200 -550q-12 -34 -12 -56q0 -26 12.5 -36.5t30.5 -12.5t32 -2zM459 761l-12 179h29l23 -99l111 99h34l-155 -179h-30z" />
    <glyph glyph-name="dcaron" unicode="&#x10f;" horiz-adv-x="539" 
d="M162 -14q-47 0 -77 19.5t-44 52t-14 69.5q0 63 27 122t70.5 105t94.5 73t100 27q44 0 67.5 -27t28.5 -70l84 258q4 11 5.5 20.5t1.5 16.5q0 19 -10.5 25.5t-27 7.5t-35.5 1l7 24l162 3l-205 -628q-4 -15 -7 -26.5t-3 -19.5q0 -20 16 -20q22 0 43 23t34 45l18 -12
q-19 -31 -49 -60t-73 -29q-31 0 -43.5 15t-12.5 40q0 13 3 28t8 30q-35 -53 -77.5 -83t-91.5 -30zM172 12q41 0 78.5 28t69 78.5t54.5 115.5q20 55 20 102q0 41 -17 66.5t-52 25.5q-40 0 -79.5 -30.5t-72 -79.5t-52 -104.5t-19.5 -106.5q0 -47 19 -71t51 -24zM621 566
l49 144h73l-91 -144h-31z" />
    <glyph glyph-name="Dcroat" unicode="&#x110;" horiz-adv-x="789" 
d="M-49 -3l9 25l21 2q39 4 60 9.5t32.5 18.5t19.5 36l192 529q8 22 8 34q0 17 -16 24t-56 11l-19 2l9 25l147 -3h1l82 3q107 4 186.5 -26t124 -90t44.5 -147q0 -73 -24 -139.5t-68 -120.5q-47 -59 -112.5 -101.5t-143.5 -65.5t-163 -23h-185zM252 26h34q92 0 169 36
t133 96.5t87 137t31 157.5q0 68 -26.5 121t-88 83t-167.5 27l-35 -1l-200 -550q-12 -34 -12 -56q0 -26 12.5 -36.5t30.5 -12.5t32 -2zM36 342l10 29h385l-10 -29h-385z" />
    <glyph glyph-name="dcroat" unicode="&#x111;" horiz-adv-x="539" 
d="M162 -14q-47 0 -77 19.5t-44 52t-14 69.5q0 63 27 122t70.5 105t94.5 73t100 27q44 0 67.5 -27t28.5 -70l84 258q4 11 5.5 20.5t1.5 16.5q0 19 -10.5 25.5t-27 7.5t-35.5 1l7 24l162 3l-205 -628q-4 -15 -7 -26.5t-3 -19.5q0 -20 16 -20q22 0 43 23t34 45l18 -12
q-19 -31 -49 -60t-73 -29q-31 0 -43.5 15t-12.5 40q0 13 3 28t8 30q-35 -53 -77.5 -83t-91.5 -30zM172 12q41 0 78.5 28t69 78.5t54.5 115.5q20 55 20 102q0 41 -17 66.5t-52 25.5q-40 0 -79.5 -30.5t-72 -79.5t-52 -104.5t-19.5 -106.5q0 -47 19 -71t51 -24zM380 521l10 24
h255l-10 -24h-255z" />
    <glyph glyph-name="Emacron" unicode="&#x112;" horiz-adv-x="695" 
d="M-23 -3l8 25l21 2q54 5 75.5 15.5t31.5 41.5l175 536q3 11 5 19t2 14q0 17 -16 24.5t-57 11.5l-19 2l8 25l147 -3h337v-60l3 -123h-26q-1 45 -13.5 80.5t-40.5 56.5t-76 21h-151l-98 -297h141q22 0 39 7.5t33.5 33t36.5 79.5h26l-47 -137l-43 -145h-26q9 28 13 49t4 37
q0 27 -12 38.5t-32 11.5h-141l-65 -197q-7 -22 -11.5 -42t-4.5 -34q0 -35 23 -50.5t68 -14.5l138 1q58 1 95.5 22t64 62t50.5 101h26l-45 -136l-22 -74h-476zM434 827l14 40h227l-14 -40h-227z" />
    <glyph glyph-name="emacron" unicode="&#x113;" horiz-adv-x="418" 
d="M188 -14q-53 0 -86.5 23.5t-49 62t-15.5 82.5q0 62 24 115.5t64 95t87.5 64.5t95.5 23q47 0 74.5 -23.5t27.5 -62.5q-1 -59 -55.5 -92.5t-146.5 -43.5l-84 -8q-12 -46 -12 -88q0 -29 8.5 -57t28.5 -46.5t52 -18.5q39 0 71.5 25.5t51.5 52.5l17 -14q-23 -32 -60 -61
t-93 -29zM307 432q-33 0 -67 -26t-63 -69t-46 -94l56 8q53 8 85.5 24t49.5 36t23 38.5t6 31.5q0 23 -10 37t-34 14zM216 581l14 40h227l-14 -40h-227z" />
    <glyph glyph-name="Edotaccent" unicode="&#x116;" horiz-adv-x="695" 
d="M-23 -3l8 25l21 2q54 5 75.5 15.5t31.5 41.5l175 536q3 11 5 19t2 14q0 17 -16 24.5t-57 11.5l-19 2l8 25l147 -3h337v-60l3 -123h-26q-1 45 -13.5 80.5t-40.5 56.5t-76 21h-151l-98 -297h141q22 0 39 7.5t33.5 33t36.5 79.5h26l-47 -137l-43 -145h-26q9 28 13 49t4 37
q0 27 -12 38.5t-32 11.5h-141l-65 -197q-7 -22 -11.5 -42t-4.5 -34q0 -35 23 -50.5t68 -14.5l138 1q58 1 95.5 22t64 62t50.5 101h26l-45 -136l-22 -74h-476zM506 752q-24 0 -39.5 16t-15.5 38q0 21 15.5 37t39.5 16q21 0 36.5 -16t15.5 -37q0 -22 -15.5 -38t-36.5 -16z" />
    <glyph glyph-name="edotaccent" unicode="&#x117;" horiz-adv-x="418" 
d="M188 -14q-53 0 -86.5 23.5t-49 62t-15.5 82.5q0 62 24 115.5t64 95t87.5 64.5t95.5 23q47 0 74.5 -23.5t27.5 -62.5q-1 -59 -55.5 -92.5t-146.5 -43.5l-84 -8q-12 -46 -12 -88q0 -29 8.5 -57t28.5 -46.5t52 -18.5q39 0 71.5 25.5t51.5 52.5l17 -14q-23 -32 -60 -61
t-93 -29zM307 432q-33 0 -67 -26t-63 -69t-46 -94l56 8q53 8 85.5 24t49.5 36t23 38.5t6 31.5q0 23 -10 37t-34 14zM336 553q-24 0 -39.5 16t-15.5 38q0 21 15.5 37t39.5 16q21 0 36.5 -16t15.5 -37q0 -22 -15.5 -38t-36.5 -16z" />
    <glyph glyph-name="Eogonek" unicode="&#x118;" horiz-adv-x="695" 
d="M-23 -3l8 25l21 2q54 5 75.5 15.5t31.5 41.5l175 536q3 11 5 19t2 14q0 17 -16 24.5t-57 11.5l-19 2l8 25l147 -3h337v-60l3 -123h-26q-1 45 -13.5 80.5t-40.5 56.5t-76 21h-151l-98 -297h141q22 0 39 7.5t33.5 33t36.5 79.5h26l-47 -137l-43 -145h-26q9 28 13 49t4 37
q0 27 -12 38.5t-32 11.5h-141l-65 -197q-7 -22 -11.5 -42t-4.5 -34q0 -35 23 -50.5t68 -14.5l138 1q58 1 95.5 22t64 62t50.5 101h26l-45 -136l-22 -74h-476zM485 -294q-46 0 -77 29.5t-31 72.5q0 38 25 74.5t61.5 71.5t72.5 65h26q-35 -31 -66 -59.5t-50 -56t-19 -57.5
q0 -42 21.5 -63.5t57.5 -21.5q28 0 53 18t39 43l17 -5q-3 -25 -18 -51t-42.5 -43t-69.5 -17z" />
    <glyph glyph-name="eogonek" unicode="&#x119;" horiz-adv-x="418" 
d="M188 -14q-53 0 -86.5 23.5t-49 62t-15.5 82.5q0 62 24 115.5t64 95t87.5 64.5t95.5 23q47 0 74.5 -23.5t27.5 -62.5q-1 -59 -55.5 -92.5t-146.5 -43.5l-84 -8q-12 -46 -12 -88q0 -29 8.5 -57t28.5 -46.5t52 -18.5q39 0 71.5 25.5t51.5 52.5l17 -14q-23 -32 -60 -61
t-93 -29zM307 432q-33 0 -67 -26t-63 -69t-46 -94l56 8q53 8 85.5 24t49.5 36t23 38.5t6 31.5q0 23 -10 37t-34 14zM141 -294q-48 0 -74 27.5t-26 66.5q0 35 24 70t62 67.5t82 59t83 43.5l-24 -33q-44 -21 -81 -51t-59 -64.5t-22 -71.5q0 -34 19 -55t51 -21q17 0 33.5 7
t34.5 23l12 -14q-16 -23 -45 -38.5t-70 -15.5z" />
    <glyph glyph-name="Ecaron" unicode="&#x11a;" horiz-adv-x="695" 
d="M-23 -3l8 25l21 2q54 5 75.5 15.5t31.5 41.5l175 536q3 11 5 19t2 14q0 17 -16 24.5t-57 11.5l-19 2l8 25l147 -3h337v-60l3 -123h-26q-1 45 -13.5 80.5t-40.5 56.5t-76 21h-151l-98 -297h141q22 0 39 7.5t33.5 33t36.5 79.5h26l-47 -137l-43 -145h-26q9 28 13 49t4 37
q0 27 -12 38.5t-32 11.5h-141l-65 -197q-7 -22 -11.5 -42t-4.5 -34q0 -35 23 -50.5t68 -14.5l138 1q58 1 95.5 22t64 62t50.5 101h26l-45 -136l-22 -74h-476zM502 761l-12 179h29l23 -99l111 99h34l-155 -179h-30z" />
    <glyph glyph-name="ecaron" unicode="&#x11b;" horiz-adv-x="418" 
d="M188 -14q-53 0 -86.5 23.5t-49 62t-15.5 82.5q0 62 24 115.5t64 95t87.5 64.5t95.5 23q47 0 74.5 -23.5t27.5 -62.5q-1 -59 -55.5 -92.5t-146.5 -43.5l-84 -8q-12 -46 -12 -88q0 -29 8.5 -57t28.5 -46.5t52 -18.5q39 0 71.5 25.5t51.5 52.5l17 -14q-23 -32 -60 -61
t-93 -29zM307 432q-33 0 -67 -26t-63 -69t-46 -94l56 8q53 8 85.5 24t49.5 36t23 38.5t6 31.5q0 23 -10 37t-34 14zM293 522l-6 188h29l18 -106l116 106h34l-161 -188h-30z" />
    <glyph glyph-name="Gbreve" unicode="&#x11e;" horiz-adv-x="762" 
d="M334 -14q-85 0 -140 33.5t-81.5 90t-26.5 125.5q0 67 20 136t58 132t91.5 113t120 79t144.5 29q44 0 75 -9t52.5 -21.5t35.5 -21.5t23 -9t18 10t19 23h26l-40 -103l-35 -108h-26q2 14 3 26t1 24q0 73 -37.5 116t-108.5 43q-56 0 -108 -25.5t-96 -70.5t-77 -102
t-51.5 -121t-18.5 -127q0 -114 48.5 -173t127.5 -59q48 0 93.5 19.5t78.5 49.5t42 59l22 63q3 9 3 15q0 17 -13 27t-34 11l-45 4l7 26l139 -4l131 4l-7 -25l-37 -4q-25 -3 -40.5 -18t-22.5 -35l-31 -88q-3 -9 -3 -16q0 -17 10 -27.5t15 -18.5l-25 -26q-10 12 -22.5 26.5
t-28.5 14.5q-12 0 -31.5 -13t-49 -30.5t-71 -30.5t-97.5 -13zM547 787q-36 0 -53 18t-17 46q0 22 11 52h25q-1 -4 -1.5 -8.5t-0.5 -8.5q0 -39 58 -39q31 0 54 12.5t39 43.5h25q-22 -61 -61 -88.5t-79 -27.5z" />
    <glyph glyph-name="gbreve" unicode="&#x11f;" horiz-adv-x="534" 
d="M251 134q-32 0 -56.5 6.5t-43.5 17.5q-44 -17 -65.5 -37t-21.5 -40q0 -15 15 -27.5t52 -17.5l120 -15q57 -7 89.5 -26.5t46 -46.5t13.5 -59q0 -21 -9 -51t-34 -59.5t-70.5 -49t-119.5 -19.5t-121.5 23.5t-70 56.5t-22.5 62q0 27 15 46t37 19q23 0 32 -13.5t9 -27.5
q0 -19 -9.5 -36t-9.5 -37q0 -13 12 -30t43.5 -29t87.5 -12q61 0 102 19t62 49.5t21 64.5q0 27 -20 51.5t-70 31.5l-129 17q-57 8 -86 32t-29 59t26.5 65t83.5 53q-21 20 -30.5 46t-9.5 52q0 51 27 92t73 65t102 24q31 0 56 -7.5t43 -20.5q20 24 51 38.5t59 14.5q33 0 53 -17
t20 -42q0 -15 -10.5 -28t-30.5 -13q-16 0 -29 10t-13 29q0 14 -4.5 23t-18.5 9q-11 0 -24.5 -8t-35.5 -30q19 -20 28.5 -45t9.5 -51q0 -51 -28 -92t-72.5 -65t-95.5 -24zM241 158q35 0 61 18t43 45.5t25.5 58.5t8.5 58q0 40 -22.5 65.5t-61.5 25.5q-43 0 -73.5 -28
t-46.5 -69.5t-16 -81.5t22.5 -66t59.5 -26zM318 535q-36 0 -53 18t-17 46q0 22 11 52h25q-1 -4 -1.5 -8.5t-0.5 -8.5q0 -39 58 -39q31 0 54 12.5t39 43.5h25q-22 -61 -61 -88.5t-79 -27.5z" />
    <glyph glyph-name="Gdotaccent" unicode="&#x120;" horiz-adv-x="762" 
d="M334 -14q-85 0 -140 33.5t-81.5 90t-26.5 125.5q0 67 20 136t58 132t91.5 113t120 79t144.5 29q44 0 75 -9t52.5 -21.5t35.5 -21.5t23 -9t18 10t19 23h26l-40 -103l-35 -108h-26q2 14 3 26t1 24q0 73 -37.5 116t-108.5 43q-56 0 -108 -25.5t-96 -70.5t-77 -102
t-51.5 -121t-18.5 -127q0 -114 48.5 -173t127.5 -59q48 0 93.5 19.5t78.5 49.5t42 59l22 63q3 9 3 15q0 17 -13 27t-34 11l-45 4l7 26l139 -4l131 4l-7 -25l-37 -4q-25 -3 -40.5 -18t-22.5 -35l-31 -88q-3 -9 -3 -16q0 -17 10 -27.5t15 -18.5l-25 -26q-10 12 -22.5 26.5
t-28.5 14.5q-12 0 -31.5 -13t-49 -30.5t-71 -30.5t-97.5 -13zM538 752q-24 0 -39.5 16t-15.5 38q0 21 15.5 37t39.5 16q21 0 36.5 -16t15.5 -37q0 -22 -15.5 -38t-36.5 -16z" />
    <glyph glyph-name="gdotaccent" unicode="&#x121;" horiz-adv-x="534" 
d="M251 134q-32 0 -56.5 6.5t-43.5 17.5q-44 -17 -65.5 -37t-21.5 -40q0 -15 15 -27.5t52 -17.5l120 -15q57 -7 89.5 -26.5t46 -46.5t13.5 -59q0 -21 -9 -51t-34 -59.5t-70.5 -49t-119.5 -19.5t-121.5 23.5t-70 56.5t-22.5 62q0 27 15 46t37 19q23 0 32 -13.5t9 -27.5
q0 -19 -9.5 -36t-9.5 -37q0 -13 12 -30t43.5 -29t87.5 -12q61 0 102 19t62 49.5t21 64.5q0 27 -20 51.5t-70 31.5l-129 17q-57 8 -86 32t-29 59t26.5 65t83.5 53q-21 20 -30.5 46t-9.5 52q0 51 27 92t73 65t102 24q31 0 56 -7.5t43 -20.5q20 24 51 38.5t59 14.5q33 0 53 -17
t20 -42q0 -15 -10.5 -28t-30.5 -13q-16 0 -29 10t-13 29q0 14 -4.5 23t-18.5 9q-11 0 -24.5 -8t-35.5 -30q19 -20 28.5 -45t9.5 -51q0 -51 -28 -92t-72.5 -65t-95.5 -24zM241 158q35 0 61 18t43 45.5t25.5 58.5t8.5 58q0 40 -22.5 65.5t-61.5 25.5q-43 0 -73.5 -28
t-46.5 -69.5t-16 -81.5t22.5 -66t59.5 -26zM323 553q-24 0 -39.5 16t-15.5 38q0 21 15.5 37t39.5 16q21 0 36.5 -16t15.5 -37q0 -22 -15.5 -38t-36.5 -16z" />
    <glyph glyph-name="uni0122" unicode="&#x122;" horiz-adv-x="762" 
d="M334 -14q-85 0 -140 33.5t-81.5 90t-26.5 125.5q0 67 20 136t58 132t91.5 113t120 79t144.5 29q44 0 75 -9t52.5 -21.5t35.5 -21.5t23 -9t18 10t19 23h26l-40 -103l-35 -108h-26q2 14 3 26t1 24q0 73 -37.5 116t-108.5 43q-56 0 -108 -25.5t-96 -70.5t-77 -102
t-51.5 -121t-18.5 -127q0 -114 48.5 -173t127.5 -59q48 0 93.5 19.5t78.5 49.5t42 59l22 63q3 9 3 15q0 17 -13 27t-34 11l-45 4l7 26l139 -4l131 4l-7 -25l-37 -4q-25 -3 -40.5 -18t-22.5 -35l-31 -88q-3 -9 -3 -16q0 -17 10 -27.5t15 -18.5l-25 -26q-10 12 -22.5 26.5
t-28.5 14.5q-12 0 -31.5 -13t-49 -30.5t-71 -30.5t-97.5 -13zM195 -279l-2 21q32 2 61.5 18t46.5 49q5 8 7 16.5t2 13.5t-1.5 6t-2.5 1q-3 0 -6 -8q-8 -19 -30 -19q-19 0 -30.5 12t-11.5 29q0 22 14 36t35 14q26 0 39 -17.5t13 -43.5q0 -22 -12 -46q-20 -43 -52 -60t-70 -22
z" />
    <glyph glyph-name="uni0123" unicode="&#x123;" horiz-adv-x="534" 
d="M251 134q-32 0 -56.5 6.5t-43.5 17.5q-44 -17 -65.5 -37t-21.5 -40q0 -15 15 -27.5t52 -17.5l120 -15q57 -7 89.5 -26.5t46 -46.5t13.5 -59q0 -21 -9 -51t-34 -59.5t-70.5 -49t-119.5 -19.5t-121.5 23.5t-70 56.5t-22.5 62q0 27 15 46t37 19q23 0 32 -13.5t9 -27.5
q0 -19 -9.5 -36t-9.5 -37q0 -13 12 -30t43.5 -29t87.5 -12q61 0 102 19t62 49.5t21 64.5q0 27 -20 51.5t-70 31.5l-129 17q-57 8 -86 32t-29 59t26.5 65t83.5 53q-21 20 -30.5 46t-9.5 52q0 51 27 92t73 65t102 24q31 0 56 -7.5t43 -20.5q20 24 51 38.5t59 14.5q33 0 53 -17
t20 -42q0 -15 -10.5 -28t-30.5 -13q-16 0 -29 10t-13 29q0 14 -4.5 23t-18.5 9q-11 0 -24.5 -8t-35.5 -30q19 -20 28.5 -45t9.5 -51q0 -51 -28 -92t-72.5 -65t-95.5 -24zM241 158q35 0 61 18t43 45.5t25.5 58.5t8.5 58q0 40 -22.5 65.5t-61.5 25.5q-43 0 -73.5 -28
t-46.5 -69.5t-16 -81.5t22.5 -66t59.5 -26zM449 702l2 -21q-32 -2 -61.5 -18t-46.5 -49q-4 -7 -6.5 -16t-2.5 -14t1.5 -6t2.5 -1q3 0 6 8q8 19 30 19q19 0 30.5 -12t11.5 -29q0 -22 -14 -36t-35 -14q-25 0 -38.5 18t-13.5 43q0 22 12 46q20 43 52 60.5t70 21.5z" />
    <glyph glyph-name="hcircumflex" unicode="&#x125;" horiz-adv-x="518" 
d="M77 0h-72l201 616q7 21 7 36q0 19 -10.5 26t-27 7.5t-35.5 0.5l7 24l162 3l-4 -11l-117 -359q34 43 82.5 77t107.5 34q50 0 68.5 -18.5t18.5 -47.5q0 -26 -11 -57l-90 -251q-9 -25 -9 -41q0 -20 16 -20q22 0 43 21.5t34 43.5l18 -12q-19 -31 -49 -58.5t-73 -27.5
q-31 0 -43.5 15t-12.5 39q0 15 4 33t11 37l87 246q7 20 7 35q0 20 -11 29t-27 9q-28 0 -59 -17t-59 -43.5t-49.5 -56t-30.5 -55.5l1 4zM165 761l142 179h39l16 -179h-29l-29 98l-105 -98h-34z" />
    <glyph glyph-name="Hbar" unicode="&#x126;" horiz-adv-x="839" 
d="M-23 -3l8 25l21 2q37 4 59.5 15t37.5 34t28 63l160 488q6 17 6 27q0 17 -17 24t-58 11l-19 2l8 25l149 -3l149 3l-8 -25l-21 -2q-36 -3 -59 -14t-38 -34.5t-29 -64.5l-64 -197h374l81 248q5 17 5 26q0 17 -16.5 24.5t-57.5 11.5l-19 2l8 25l149 -3l149 3l-8 -25l-21 -2
q-36 -3 -59 -13.5t-38 -33.5t-29 -66l-156 -476q-4 -11 -6 -19.5t-2 -16.5q0 -19 17.5 -26t57.5 -11l19 -2l-8 -25l-149 3l-149 -3l8 25l21 2q34 4 56 12.5t36.5 28t26.5 56.5l73 224h-374l-81 -249q-7 -21 -7 -36q0 -18 16 -25t57 -11l19 -2l-8 -25l-149 3zM154 520l10 29
h752l-10 -29h-752z" />
    <glyph glyph-name="hbar" unicode="&#x127;" horiz-adv-x="518" 
d="M77 0h-72l201 616q7 21 7 36q0 19 -10.5 26t-27 7.5t-35.5 0.5l7 24l162 3l-4 -11l-117 -359q34 43 82.5 77t107.5 34q50 0 68.5 -18.5t18.5 -47.5q0 -26 -11 -57l-90 -251q-9 -25 -9 -41q0 -20 16 -20q22 0 43 21.5t34 43.5l18 -12q-19 -31 -49 -58.5t-73 -27.5
q-31 0 -43.5 15t-12.5 39q0 15 4 33t11 37l87 246q7 20 7 35q0 20 -11 29t-27 9q-28 0 -59 -17t-59 -43.5t-49.5 -56t-30.5 -55.5l1 4zM92 511l10 24h255l-10 -24h-255z" />
    <glyph glyph-name="Imacron" unicode="&#x12a;" horiz-adv-x="384" 
d="M-23 -3l8 25l21 2q37 4 59 14t37 33t29 65l160 488q4 13 4 26q0 18 -16 25t-57 11l-19 2l8 25l149 -3l149 3l-8 -25l-21 -2q-36 -3 -58.5 -13t-37.5 -33t-30 -67l-156 -477q-3 -11 -5 -20t-2 -16q0 -18 16 -25t57 -11l19 -2l-8 -25l-149 3zM289 827l14 40h227l-14 -40
h-227z" />
    <glyph glyph-name="imacron" unicode="&#x12b;" horiz-adv-x="279" 
d="M100 -14q-31 0 -43.5 15t-12.5 40q0 16 4 34.5t11 37.5l87 234q8 22 8 35q0 18 -11 25t-28.5 8t-36.5 1l7 24l162 3l-126 -358q-4 -15 -7 -26.5t-3 -19.5q0 -20 16 -20q22 0 43 23t34 45l18 -12q-19 -31 -49 -60t-73 -29zM120 581l14 40h227l-14 -40h-227z" />
    <glyph glyph-name="Iogonek" unicode="&#x12e;" horiz-adv-x="384" 
d="M-23 -3l8 25l21 2q37 4 59 14t37 33t29 65l160 488q4 13 4 26q0 18 -16 25t-57 11l-19 2l8 25l149 -3l149 3l-8 -25l-21 -2q-36 -3 -58.5 -13t-37.5 -33t-30 -67l-156 -477q-3 -11 -5 -20t-2 -16q0 -18 16 -25t57 -11l19 -2l-8 -25l-149 3zM93 -294q-46 0 -77 29.5
t-31 72.5q0 38 25 74.5t61.5 71.5t72.5 65h26q-35 -31 -66 -59.5t-50 -56t-19 -57.5q0 -42 21.5 -63.5t57.5 -21.5q28 0 53 18t39 43l17 -5q-3 -25 -18 -51t-42.5 -43t-69.5 -17z" />
    <glyph glyph-name="iogonek" unicode="&#x12f;" horiz-adv-x="279" 
d="M100 -14q-31 0 -43.5 15t-12.5 40q0 16 4 34.5t11 37.5l87 234q8 22 8 35q0 18 -11 25t-28.5 8t-36.5 1l7 24l162 3l-126 -358q-4 -15 -7 -26.5t-3 -19.5q0 -20 16 -20q22 0 43 23t34 45l18 -12q-19 -31 -49 -60t-73 -29zM240 553q-24 0 -39.5 16t-15.5 38q0 21 15.5 37
t39.5 16q21 0 36.5 -16t15.5 -37q0 -22 -15.5 -38t-36.5 -16zM36 -294q-48 0 -74 27.5t-26 66.5q0 35 24 70t62 67.5t82 59t83 43.5l-24 -33q-44 -21 -81 -51t-59 -64.5t-22 -71.5q0 -34 19 -55t51 -21q17 0 33.5 7t34.5 23l12 -14q-16 -23 -45 -38.5t-70 -15.5z" />
    <glyph glyph-name="Idotaccent" unicode="&#x130;" horiz-adv-x="384" 
d="M-23 -3l8 25l21 2q37 4 59 14t37 33t29 65l160 488q4 13 4 26q0 18 -16 25t-57 11l-19 2l8 25l149 -3l149 3l-8 -25l-21 -2q-36 -3 -58.5 -13t-37.5 -33t-30 -67l-156 -477q-3 -11 -5 -20t-2 -16q0 -18 16 -25t57 -11l19 -2l-8 -25l-149 3zM361 752q-24 0 -39.5 16
t-15.5 38q0 21 15.5 37t39.5 16q21 0 36.5 -16t15.5 -37q0 -22 -15.5 -38t-36.5 -16z" />
    <glyph glyph-name="dotlessi" unicode="&#x131;" horiz-adv-x="279" 
d="M100 -14q-31 0 -43.5 15t-12.5 40q0 16 4 34.5t11 37.5l87 234q8 22 8 35q0 18 -11 25t-28.5 8t-36.5 1l7 24l162 3l-126 -358q-4 -15 -7 -26.5t-3 -19.5q0 -20 16 -20q22 0 43 23t34 45l18 -12q-19 -31 -49 -60t-73 -29z" />
    <glyph glyph-name="uni0136" unicode="&#x136;" horiz-adv-x="721" 
d="M-33 -3l8 25l21 2q37 4 59 13.5t37 32.5t29 66l163 499q4 9 4 18q0 19 -19.5 24.5t-47.5 8.5l-19 2l9 25l139 -3l128 3l-13 -27q-34 -4 -54.5 -11t-34.5 -27.5t-30 -67.5l-88 -271l344 278q46 38 46 66q0 30 -53 34l-14 1l9 25l123 -4l114 4l-9 -25l-22 -3
q-22 -3 -57.5 -25.5t-83.5 -60.5l-219 -178l115 -282q23 -60 52.5 -85t75.5 -32l-9 -25l-111 3l-166 -2l9 25l18 3q41 6 55 18t14 27q0 7 -2 14.5t-5 15.5l-110 268l-129 -104l-55 -169q-3 -11 -5 -20t-2 -16q0 -18 16 -25t57 -11l19 -2l-8 -25l-149 3zM234 -279l-2 21
q32 2 61.5 18t46.5 49q5 8 7 16.5t2 13.5t-1.5 6t-2.5 1q-3 0 -6 -8q-8 -19 -30 -19q-19 0 -30.5 12t-11.5 29q0 22 14 36t35 14q26 0 39 -17.5t13 -43.5q0 -22 -12 -46q-20 -43 -52 -60t-70 -22z" />
    <glyph glyph-name="uni0137" unicode="&#x137;" horiz-adv-x="486" 
d="M77 0h-72l201 616q7 21 7 36q0 19 -10.5 26t-27 7.5t-35.5 0.5l7 24l161 3l-139 -428q40 5 64.5 23t52.5 47l37 39q28 29 49 44.5t46 15.5q27 0 39.5 -11.5t16.5 -26t4 -24.5q0 -22 -11.5 -38.5t-31.5 -16.5q-13 0 -25 8.5t-12 27.5q0 17 -1 24.5t-4 11.5q-3 5 -10 5
q-10 0 -20 -8t-24 -23l-41 -43q-20 -21 -36.5 -36t-39.5 -23q65 -8 87.5 -41t23.5 -104q1 -49 2.5 -74.5t7.5 -34t19 -8.5t33.5 15.5t40.5 49.5l17 -12q-26 -47 -59 -66.5t-62 -19.5q-43 0 -55 32t-12 114q0 52 -8.5 82t-30 42.5t-62.5 12.5zM68 -279l-2 21q32 2 61.5 18
t46.5 49q5 8 7 16.5t2 13.5t-1.5 6t-2.5 1q-3 0 -6 -8q-8 -19 -30 -19q-19 0 -30.5 12t-11.5 29q0 22 14 36t35 14q26 0 39 -17.5t13 -43.5q0 -22 -12 -46q-20 -43 -52 -60t-70 -22z" />
    <glyph glyph-name="Lacute" unicode="&#x139;" horiz-adv-x="646" 
d="M-23 -3l8 25l21 2q36 4 56.5 9t31.5 15.5t18 31.5l179 544q6 17 6 27q0 18 -17 24.5t-58 10.5l-19 2l8 25l149 -3l149 3l-8 -25l-21 -2q-36 -3 -59 -13t-38 -33t-29 -66l-135 -413q-9 -27 -14.5 -48t-5.5 -36q0 -29 22 -41.5t77 -12.5h75q86 0 141 48t90 139h26l-78 -213
l-435 3zM357 760l60 180h81l-129 -180h-12z" />
    <glyph glyph-name="lacute" unicode="&#x13a;" horiz-adv-x="265" 
d="M90 -14q-31 0 -43.5 15t-12.5 40q0 16 4 34.5t11 37.5l164 502q4 11 5.5 20.5t1.5 16.5q0 19 -10.5 25.5t-27 7.5t-35.5 1l7 24l162 3l-205 -628q-4 -15 -7 -26.5t-3 -19.5q0 -20 16 -20q22 0 43 23t34 45l18 -12q-19 -31 -49 -60t-73 -29zM271 760l60 180h81l-129 -180
h-12z" />
    <glyph glyph-name="uni013B" unicode="&#x13b;" horiz-adv-x="646" 
d="M-23 -3l8 25l21 2q36 4 56.5 9t31.5 15.5t18 31.5l179 544q6 17 6 27q0 18 -17 24.5t-58 10.5l-19 2l8 25l149 -3l149 3l-8 -25l-21 -2q-36 -3 -59 -13t-38 -33t-29 -66l-135 -413q-9 -27 -14.5 -48t-5.5 -36q0 -29 22 -41.5t77 -12.5h75q86 0 141 48t90 139h26l-78 -213
l-435 3zM142 -279l-2 21q32 2 61.5 18t46.5 49q5 8 7 16.5t2 13.5t-1.5 6t-2.5 1q-3 0 -6 -8q-8 -19 -30 -19q-19 0 -30.5 12t-11.5 29q0 22 14 36t35 14q26 0 39 -17.5t13 -43.5q0 -22 -12 -46q-20 -43 -52 -60t-70 -22z" />
    <glyph glyph-name="uni013C" unicode="&#x13c;" horiz-adv-x="265" 
d="M90 -14q-31 0 -43.5 15t-12.5 40q0 16 4 34.5t11 37.5l164 502q4 11 5.5 20.5t1.5 16.5q0 19 -10.5 25.5t-27 7.5t-35.5 1l7 24l162 3l-205 -628q-4 -15 -7 -26.5t-3 -19.5q0 -20 16 -20q22 0 43 23t34 45l18 -12q-19 -31 -49 -60t-73 -29zM-16 -279l-2 21q32 2 61.5 18
t46.5 49q5 8 7 16.5t2 13.5t-1.5 6t-2.5 1q-3 0 -6 -8q-8 -19 -30 -19q-19 0 -30.5 12t-11.5 29q0 22 14 36t35 14q26 0 39 -17.5t13 -43.5q0 -22 -12 -46q-20 -43 -52 -60t-70 -22z" />
    <glyph glyph-name="Lcaron" unicode="&#x13d;" horiz-adv-x="646" 
d="M-23 -3l8 25l21 2q36 4 56.5 9t31.5 15.5t18 31.5l179 544q6 17 6 27q0 18 -17 24.5t-58 10.5l-19 2l8 25l149 -3l149 3l-8 -25l-21 -2q-36 -3 -59 -13t-38 -33t-29 -66l-135 -413q-9 -27 -14.5 -48t-5.5 -36q0 -29 22 -41.5t77 -12.5h75q86 0 141 48t90 139h26l-78 -213
l-435 3zM540 566l49 144h73l-91 -144h-31z" />
    <glyph glyph-name="lcaron" unicode="&#x13e;" horiz-adv-x="265" 
d="M90 -14q-31 0 -43.5 15t-12.5 40q0 16 4 34.5t11 37.5l164 502q4 11 5.5 20.5t1.5 16.5q0 19 -10.5 25.5t-27 7.5t-35.5 1l7 24l162 3l-205 -628q-4 -15 -7 -26.5t-3 -19.5q0 -20 16 -20q22 0 43 23t34 45l18 -12q-19 -31 -49 -60t-73 -29zM334 566l49 144h73l-91 -144
h-31z" />
    <glyph glyph-name="Ldot" unicode="&#x13f;" horiz-adv-x="600" 
d="M-23 -3l8 25l21 2q36 4 56.5 9t31.5 15.5t18 31.5l179 544q6 17 6 27q0 18 -17 24.5t-58 10.5l-19 2l8 25l149 -3l149 3l-8 -25l-21 -2q-36 -3 -59 -13t-38 -33t-29 -66l-135 -413q-9 -27 -14.5 -48t-5.5 -36q0 -29 22 -41.5t77 -12.5h75q86 0 141 48t90 139h26l-78 -213
l-435 3zM548 296q-26 0 -43 17.5t-17 42.5q0 23 17 40.5t43 17.5q24 0 41 -17.5t17 -40.5q0 -25 -17 -42.5t-41 -17.5z" />
    <glyph glyph-name="ldot" unicode="&#x140;" horiz-adv-x="350" 
d="M90 -14q-31 0 -43.5 15t-12.5 40q0 16 4 34.5t11 37.5l164 502q4 11 5.5 20.5t1.5 16.5q0 19 -10.5 25.5t-27 7.5t-35.5 1l7 24l162 3l-205 -628q-4 -15 -7 -26.5t-3 -19.5q0 -20 16 -20q22 0 43 23t34 45l18 -12q-19 -31 -49 -60t-73 -29zM343 272q-26 0 -43 17.5
t-17 42.5q0 23 17 40.5t43 17.5q24 0 41 -17.5t17 -40.5q0 -25 -17 -42.5t-41 -17.5z" />
    <glyph glyph-name="Lslash" unicode="&#x141;" horiz-adv-x="646" 
d="M-23 -3l8 25l21 2q36 4 56.5 9t31.5 15.5t18 31.5l179 544q6 17 6 27q0 18 -17 24.5t-58 10.5l-19 2l8 25l149 -3l149 3l-8 -25l-21 -2q-36 -3 -59 -13t-38 -33t-29 -66l-135 -413q-9 -27 -14.5 -48t-5.5 -36q0 -29 22 -41.5t77 -12.5h75q86 0 141 48t90 139h26l-78 -213
l-435 3zM74 262l-18 28l361 160l15 -27z" />
    <glyph glyph-name="lslash" unicode="&#x142;" horiz-adv-x="265" 
d="M90 -14q-31 0 -43.5 15t-12.5 40q0 16 4 34.5t11 37.5l164 502q4 11 5.5 20.5t1.5 16.5q0 19 -10.5 25.5t-27 7.5t-35.5 1l7 24l162 3l-205 -628q-4 -15 -7 -26.5t-3 -19.5q0 -20 16 -20q22 0 43 23t34 45l18 -12q-19 -31 -49 -60t-73 -29zM22 305l-18 28l361 160l15 -27
z" />
    <glyph glyph-name="Nacute" unicode="&#x143;" horiz-adv-x="793" 
d="M-13 -3l9 25l21 2q31 3 51 9.5t33 22.5t23 47l166 529q-12 25 -24.5 38t-32.5 15l-31 3l9 25l117 -3h18l266 -588l155 502q3 9 4 16t1 13q-1 17 -17 23t-54 10l-19 2l9 25l117 -3l123 3l-9 -25l-21 -2q-31 -3 -51 -8.5t-33 -21.5t-23 -49l-190 -607h-30l-266 590
l-158 -509q-4 -13 -4 -24q1 -17 17 -23t54 -10l19 -2l-9 -25l-117 3zM553 760l60 180h81l-129 -180h-12z" />
    <glyph glyph-name="nacute" unicode="&#x144;" horiz-adv-x="536" 
d="M362 -14q-31 0 -43.5 15t-12.5 39q0 15 4 33t11 37l87 246q11 32 3 52.5t-37 20.5q-27 0 -57 -16.5t-58 -42.5t-49 -56t-31 -57l-93 -257h-72l124 344q17 49 3 60.5t-61 11.5l8 24l147 3l-32 -107q22 31 51.5 57.5t65 43.5t76.5 17q61 0 79 -32t-3 -91l-90 -251
q-7 -21 -7.5 -41t16.5 -20q23 0 42.5 21.5t32.5 43.5l18 -12q-19 -31 -49 -58.5t-73 -27.5zM335 520l42 144q7 24 17 39.5t30 15.5q15 0 22.5 -10.5t7.5 -24.5q0 -12 -5 -27t-24 -42l-68 -95h-22z" />
    <glyph glyph-name="uni0145" unicode="&#x145;" horiz-adv-x="793" 
d="M-13 -3l9 25l21 2q31 3 51 9.5t33 22.5t23 47l166 529q-12 25 -24.5 38t-32.5 15l-31 3l9 25l117 -3h18l266 -588l155 502q3 9 4 16t1 13q-1 17 -17 23t-54 10l-19 2l9 25l117 -3l123 3l-9 -25l-21 -2q-31 -3 -51 -8.5t-33 -21.5t-23 -49l-190 -607h-30l-266 590
l-158 -509q-4 -13 -4 -24q1 -17 17 -23t54 -10l19 -2l-9 -25l-117 3zM296 -279l-2 21q32 2 61.5 18t46.5 49q5 8 7 16.5t2 13.5t-1.5 6t-2.5 1q-3 0 -6 -8q-8 -19 -30 -19q-19 0 -30.5 12t-11.5 29q0 22 14 36t35 14q26 0 39 -17.5t13 -43.5q0 -22 -12 -46q-20 -43 -52 -60
t-70 -22z" />
    <glyph glyph-name="uni0146" unicode="&#x146;" horiz-adv-x="536" 
d="M362 -14q-31 0 -43.5 15t-12.5 39q0 15 4 33t11 37l87 246q11 32 3 52.5t-37 20.5q-27 0 -57 -16.5t-58 -42.5t-49 -56t-31 -57l-93 -257h-72l124 344q17 49 3 60.5t-61 11.5l8 24l147 3l-32 -107q22 31 51.5 57.5t65 43.5t76.5 17q61 0 79 -32t-3 -91l-90 -251
q-7 -21 -7.5 -41t16.5 -20q23 0 42.5 21.5t32.5 43.5l18 -12q-19 -31 -49 -58.5t-73 -27.5zM77 -279l-2 21q32 2 61.5 18t46.5 49q5 8 7 16.5t2 13.5t-1.5 6t-2.5 1q-3 0 -6 -8q-8 -19 -30 -19q-19 0 -30.5 12t-11.5 29q0 22 14 36t35 14q26 0 39 -17.5t13 -43.5
q0 -22 -12 -46q-20 -43 -52 -60t-70 -22z" />
    <glyph glyph-name="Ncaron" unicode="&#x147;" horiz-adv-x="793" 
d="M-13 -3l9 25l21 2q31 3 51 9.5t33 22.5t23 47l166 529q-12 25 -24.5 38t-32.5 15l-31 3l9 25l117 -3h18l266 -588l155 502q3 9 4 16t1 13q-1 17 -17 23t-54 10l-19 2l9 25l117 -3l123 3l-9 -25l-21 -2q-31 -3 -51 -8.5t-33 -21.5t-23 -49l-190 -607h-30l-266 590
l-158 -509q-4 -13 -4 -24q1 -17 17 -23t54 -10l19 -2l-9 -25l-117 3zM555 761l-12 179h29l23 -99l111 99h34l-155 -179h-30z" />
    <glyph glyph-name="ncaron" unicode="&#x148;" horiz-adv-x="536" 
d="M362 -14q-31 0 -43.5 15t-12.5 39q0 15 4 33t11 37l87 246q11 32 3 52.5t-37 20.5q-27 0 -57 -16.5t-58 -42.5t-49 -56t-31 -57l-93 -257h-72l124 344q17 49 3 60.5t-61 11.5l8 24l147 3l-32 -107q22 31 51.5 57.5t65 43.5t76.5 17q61 0 79 -32t-3 -91l-90 -251
q-7 -21 -7.5 -41t16.5 -20q23 0 42.5 21.5t32.5 43.5l18 -12q-19 -31 -49 -58.5t-73 -27.5zM328 522l-6 188h29l18 -106l116 106h34l-161 -188h-30z" />
    <glyph glyph-name="Eng" unicode="&#x14a;" horiz-adv-x="793" 
d="M-13 -3l9 25l21 2q31 3 51 9.5t33 22.5t23 47l166 529q-12 25 -24.5 38t-32.5 15l-31 3l9 25l117 -3h18l266 -588l155 502q3 9 4 16t1 13q-1 17 -17 23t-54 10l-19 2l9 25l117 -3l123 3l-9 -25l-21 -2q-31 -3 -51 -8.5t-33 -21.5t-23 -49l-190 -607l-50 -136
q-20 -55 -39 -90t-43 -51.5t-61 -16.5q-61 0 -86 23t-25 50q0 20 14 33.5t35 13.5q22 0 31.5 -13.5t14 -30.5t11.5 -30.5t23 -13.5q14 0 28.5 10.5t32 39t36.5 81.5l48 131l-266 590l-158 -509q-4 -13 -4 -24q1 -17 17 -23t54 -10l19 -2l-9 -25l-117 3z" />
    <glyph glyph-name="eng" unicode="&#x14b;" horiz-adv-x="507" 
d="M14 0l124 344q10 26 10 42q0 25 -20 27.5t-48 2.5l8 24l147 3l-30 -101v0q33 43 82 77.5t109 34.5q50 0 68.5 -18.5t18.5 -47.5q0 -26 -11 -57l-171 -463q-31 -86 -73.5 -122t-107.5 -36q-61 0 -86 23t-25 50q0 20 14 33.5t35 13.5q22 0 31.5 -15t14 -34t11.5 -34t23 -15
q26 0 49.5 39.5t45.5 101.5l175 483q7 20 7 35q0 20 -11 29t-27 9q-28 0 -58.5 -16.5t-58.5 -42.5t-49.5 -56t-31.5 -57v0l-93 -257h-72z" />
    <glyph glyph-name="Omacron" unicode="&#x14c;" horiz-adv-x="778" 
d="M342 -14q-70 0 -128.5 28.5t-93 85.5t-34.5 141q0 69 22.5 138t63.5 131t97.5 110.5t125 76t145.5 27.5q71 0 127.5 -30t89.5 -87t33 -138q0 -70 -22.5 -139t-63 -131t-96.5 -110t-123.5 -75.5t-142.5 -27.5zM345 16q55 0 107 26t96.5 71.5t79 104.5t53.5 126.5t19 136.5
q0 101 -43 157.5t-121 56.5q-55 0 -107.5 -26t-98 -72.5t-80 -106t-54 -127.5t-19.5 -138q0 -99 44.5 -154t123.5 -55zM490 827l14 40h227l-14 -40h-227z" />
    <glyph glyph-name="omacron" unicode="&#x14d;" horiz-adv-x="514" 
d="M196 -14q-53 0 -89 22.5t-53.5 60t-17.5 80.5q0 60 22.5 114.5t62 97.5t90.5 68t107 25q54 0 90 -22.5t53.5 -58.5t17.5 -79q0 -60 -22.5 -115.5t-62 -99t-90.5 -68.5t-108 -25zM195 8q37 0 69 21.5t58.5 56.5t45.5 77t29.5 83.5t10.5 75.5q0 110 -88 110q-37 0 -69 -21
t-58.5 -56t-45.5 -76.5t-29.5 -82.5t-10.5 -75q0 -113 88 -113zM251 581l14 40h227l-14 -40h-227z" />
    <glyph glyph-name="Ohungarumlaut" unicode="&#x150;" horiz-adv-x="778" 
d="M342 -14q-70 0 -128.5 28.5t-93 85.5t-34.5 141q0 69 22.5 138t63.5 131t97.5 110.5t125 76t145.5 27.5q71 0 127.5 -30t89.5 -87t33 -138q0 -70 -22.5 -139t-63 -131t-96.5 -110t-123.5 -75.5t-142.5 -27.5zM345 16q55 0 107 26t96.5 71.5t79 104.5t53.5 126.5t19 136.5
q0 101 -43 157.5t-121 56.5q-55 0 -107.5 -26t-98 -72.5t-80 -106t-54 -127.5t-19.5 -138q0 -99 44.5 -154t123.5 -55zM483 790l42 144q7 24 17 39.5t30 15.5q15 0 22.5 -10.5t7.5 -24.5q0 -12 -5 -27t-24 -42l-68 -95h-22zM613 790l42 144q7 24 17 39.5t30 15.5
q15 0 22.5 -10.5t7.5 -24.5q0 -12 -5 -27t-24 -42l-68 -95h-22z" />
    <glyph glyph-name="ohungarumlaut" unicode="&#x151;" horiz-adv-x="514" 
d="M196 -14q-53 0 -89 22.5t-53.5 60t-17.5 80.5q0 60 22.5 114.5t62 97.5t90.5 68t107 25q54 0 90 -22.5t53.5 -58.5t17.5 -79q0 -60 -22.5 -115.5t-62 -99t-90.5 -68.5t-108 -25zM195 8q37 0 69 21.5t58.5 56.5t45.5 77t29.5 83.5t10.5 75.5q0 110 -88 110q-37 0 -69 -21
t-58.5 -56t-45.5 -76.5t-29.5 -82.5t-10.5 -75q0 -113 88 -113zM258 520l42 144q7 24 17 39.5t30 15.5q15 0 22.5 -10.5t7.5 -24.5q0 -12 -5 -27t-24 -42l-68 -95h-22zM388 520l42 144q7 24 17 39.5t30 15.5q15 0 22.5 -10.5t7.5 -24.5q0 -12 -5 -27t-24 -42l-68 -95h-22z
" />
    <glyph glyph-name="OE" unicode="&#x152;" horiz-adv-x="1045" 
d="M321 -14q-67 0 -122 25t-87.5 76t-32.5 128q0 73 23 145.5t65 137.5t100 115t128.5 78.5t149.5 28.5q47 0 85 -10h444l-2 -60l-1 -123h-26q0 45 -11 81t-38 57t-75 21l-151 -1l-108 -297h140q22 0 39.5 7.5t35 33t38.5 79.5h26l-51 -137l-49 -145h-26q21 59 21 89
q0 25 -11.5 35.5t-31.5 11.5h-140l-69 -189v0q-2 -6 -5 -12v-1q-18 -50 -18 -79q0 -58 84 -57l138 1q58 1 96.5 22t66.5 62t54 101h26l-50 -136l-24 -74h-529q-51 -14 -102 -14zM164 210q0 -92 42.5 -143t118.5 -51q31 0 62 9t55 27.5t35 45.5l188 519v0q3 9 3 16
q0 20 -17.5 32.5t-45 19t-56.5 6.5q-59 0 -115 -27t-105 -74.5t-86 -109t-58 -130.5t-21 -140zM690 685v0v0v0z" />
    <glyph glyph-name="oe" unicode="&#x153;" horiz-adv-x="763" 
d="M196 -14q-53 0 -89 22.5t-53.5 60t-17.5 80.5q0 60 22.5 114.5t62 97.5t90.5 68t107 25q54 0 90 -22.5t53.5 -58.5t17.5 -79q0 -60 -22.5 -115.5t-62 -99t-90.5 -68.5t-108 -25zM195 8q37 0 69 21.5t58.5 56.5t45.5 77t29.5 83.5t10.5 75.5q0 110 -88 110q-37 0 -69 -21
t-58.5 -56t-45.5 -76.5t-29.5 -82.5t-10.5 -75q0 -113 88 -113zM533 -14q-53 0 -86.5 23.5t-49 62t-15.5 82.5q0 62 24 115.5t64 95t87.5 64.5t95.5 23q47 0 74.5 -23.5t27.5 -62.5q-1 -59 -55.5 -92.5t-146.5 -43.5l-84 -8q-12 -46 -12 -88q0 -29 8.5 -57t28.5 -46.5
t52 -18.5q39 0 71.5 25.5t51.5 52.5l17 -14q-23 -32 -60 -61t-93 -29zM652 432q-33 0 -67 -26t-63 -69t-46 -94l56 8q53 8 85.5 24t49.5 36t23 38.5t6 31.5q0 23 -10 37t-34 14z" />
    <glyph glyph-name="Racute" unicode="&#x154;" horiz-adv-x="743" 
d="M-20 -3l8 25l21 2q34 4 54 10t33.5 25t27.5 61l168 512q3 11 3 18q0 16 -16 24t-57 12l-19 2l8 25l147 -3h11l77 1q125 2 184 -42t59 -119q0 -69 -34.5 -110.5t-93 -60.5t-130.5 -19h-27q72 -8 112.5 -47.5t46.5 -107.5l5 -78q2 -54 13.5 -79.5t44.5 -25.5q21 0 35 10
t24 21l19 -17q-23 -28 -51 -39t-57 -11q-52 0 -86.5 44.5t-37.5 123.5l-1 51q-3 67 -51.5 108.5t-136.5 46.5l-89 -273q-7 -20 -7 -33q0 -16 14 -21t50 -9l19 -2l-8 -25l-137 3zM389 683l-98 -300l117 -1q92 -1 143.5 48.5t51.5 127.5q0 31 -13.5 59.5t-47.5 47t-96 18.5
h-57zM449 760l60 180h81l-129 -180h-12z" />
    <glyph glyph-name="racute" unicode="&#x155;" horiz-adv-x="390" 
d="M9 0l124 344q12 33 9.5 48.5t-19 19.5t-48.5 4l8 24l137 3l-44 -147q22 42 47.5 78t57 58t68.5 22q26 0 51 -16t25 -51q0 -15 -9.5 -30t-32.5 -15q-19 0 -29 10.5t-15 32.5q-6 30 -30 30q-19 0 -40.5 -18t-47.5 -59q-17 -28 -36 -66.5t-38 -89.5l-66 -182h-72zM264 520
l42 144q7 24 17 39.5t30 15.5q15 0 22.5 -10.5t7.5 -24.5q0 -12 -5 -27t-24 -42l-68 -95h-22z" />
    <glyph glyph-name="uni0156" unicode="&#x156;" horiz-adv-x="743" 
d="M-20 -3l8 25l21 2q34 4 54 10t33.5 25t27.5 61l168 512q3 11 3 18q0 16 -16 24t-57 12l-19 2l8 25l147 -3h11l77 1q125 2 184 -42t59 -119q0 -69 -34.5 -110.5t-93 -60.5t-130.5 -19h-27q72 -8 112.5 -47.5t46.5 -107.5l5 -78q2 -54 13.5 -79.5t44.5 -25.5q21 0 35 10
t24 21l19 -17q-23 -28 -51 -39t-57 -11q-52 0 -86.5 44.5t-37.5 123.5l-1 51q-3 67 -51.5 108.5t-136.5 46.5l-89 -273q-7 -20 -7 -33q0 -16 14 -21t50 -9l19 -2l-8 -25l-137 3zM389 683l-98 -300l117 -1q92 -1 143.5 48.5t51.5 127.5q0 31 -13.5 59.5t-47.5 47t-96 18.5
h-57zM288 -279l-2 21q32 2 61.5 18t46.5 49q5 8 7 16.5t2 13.5t-1.5 6t-2.5 1q-3 0 -6 -8q-8 -19 -30 -19q-19 0 -30.5 12t-11.5 29q0 22 14 36t35 14q26 0 39 -17.5t13 -43.5q0 -22 -12 -46q-20 -43 -52 -60t-70 -22z" />
    <glyph glyph-name="uni0157" unicode="&#x157;" horiz-adv-x="390" 
d="M9 0l124 344q12 33 9.5 48.5t-19 19.5t-48.5 4l8 24l137 3l-44 -147q22 42 47.5 78t57 58t68.5 22q26 0 51 -16t25 -51q0 -15 -9.5 -30t-32.5 -15q-19 0 -29 10.5t-15 32.5q-6 30 -30 30q-19 0 -40.5 -18t-47.5 -59q-17 -28 -36 -66.5t-38 -89.5l-66 -182h-72zM-67 -279
l-2 21q32 2 61.5 18t46.5 49q5 8 7 16.5t2 13.5t-1.5 6t-2.5 1q-3 0 -6 -8q-8 -19 -30 -19q-19 0 -30.5 12t-11.5 29q0 22 14 36t35 14q26 0 39 -17.5t13 -43.5q0 -22 -12 -46q-20 -43 -52 -60t-70 -22z" />
    <glyph glyph-name="Rcaron" unicode="&#x158;" horiz-adv-x="743" 
d="M-20 -3l8 25l21 2q34 4 54 10t33.5 25t27.5 61l168 512q3 11 3 18q0 16 -16 24t-57 12l-19 2l8 25l147 -3h11l77 1q125 2 184 -42t59 -119q0 -69 -34.5 -110.5t-93 -60.5t-130.5 -19h-27q72 -8 112.5 -47.5t46.5 -107.5l5 -78q2 -54 13.5 -79.5t44.5 -25.5q21 0 35 10
t24 21l19 -17q-23 -28 -51 -39t-57 -11q-52 0 -86.5 44.5t-37.5 123.5l-1 51q-3 67 -51.5 108.5t-136.5 46.5l-89 -273q-7 -20 -7 -33q0 -16 14 -21t50 -9l19 -2l-8 -25l-137 3zM389 683l-98 -300l117 -1q92 -1 143.5 48.5t51.5 127.5q0 31 -13.5 59.5t-47.5 47t-96 18.5
h-57zM451 761l-12 179h29l23 -99l111 99h34l-155 -179h-30z" />
    <glyph glyph-name="rcaron" unicode="&#x159;" horiz-adv-x="390" 
d="M9 0l124 344q12 33 9.5 48.5t-19 19.5t-48.5 4l8 24l137 3l-44 -147q22 42 47.5 78t57 58t68.5 22q26 0 51 -16t25 -51q0 -15 -9.5 -30t-32.5 -15q-19 0 -29 10.5t-15 32.5q-6 30 -30 30q-19 0 -40.5 -18t-47.5 -59q-17 -28 -36 -66.5t-38 -89.5l-66 -182h-72zM257 522
l-6 188h29l18 -106l116 106h34l-161 -188h-30z" />
    <glyph glyph-name="Sacute" unicode="&#x15a;" horiz-adv-x="589" 
d="M293 -11q-46 0 -79 10t-55.5 23.5t-38 23.5t-28.5 10q-15 0 -25.5 -17t-18.5 -35l-26 15l44 130l31 122l27 -2l-3 -40v-29q3 -87 45 -135t115 -48q66 0 105.5 40t39.5 97q0 56 -21 93t-65 78l-46 44q-23 23 -49.5 49t-45 58t-18.5 73q0 51 26 89.5t71.5 60t105.5 21.5
q40 0 69 -10t49.5 -23.5t34.5 -23.5t23 -10q8 0 14.5 9.5t12.5 31.5l27 -1l-27 -112l-17 -111l-26 1v30q-1 49 -15 92.5t-46 71t-88 27.5q-34 0 -64 -15.5t-48 -43.5t-18 -66q0 -34 13 -59t34 -46.5t45 -44.5l45 -44q52 -49 79.5 -94t27.5 -92q0 -55 -27.5 -100t-76 -71.5
t-112.5 -26.5zM405 760l60 180h81l-129 -180h-12z" />
    <glyph glyph-name="sacute" unicode="&#x15b;" horiz-adv-x="363" 
d="M136 -14q-52 0 -82 18t-43 43t-13 46q0 23 12.5 38.5t35.5 15.5q16 0 25.5 -10t9.5 -25q0 -16 -7 -28t-7 -29q0 -20 18 -33.5t46 -13.5q31 0 51.5 13.5t31.5 34t11 40.5q0 23 -8 40t-30 42l-37 39q-22 24 -33 53t-11 57q0 31 15 60t45 48t76 19q49 0 74 -13t34.5 -30
t9.5 -31q0 -19 -12 -32.5t-32 -13.5q-12 0 -23.5 9t-11.5 28v25.5t-8 25t-32 10.5q-37 0 -57.5 -23t-20.5 -52q0 -20 8 -39.5t26 -39.5l38 -40q19 -19 38 -45t19 -69q0 -34 -20 -65.5t-55 -52t-81 -20.5zM240 520l42 144q7 24 17 39.5t30 15.5q15 0 22.5 -10.5t7.5 -24.5
q0 -12 -5 -27t-24 -42l-68 -95h-22z" />
    <glyph glyph-name="Scedilla" unicode="&#x15e;" horiz-adv-x="589" 
d="M293 -11q-46 0 -79 10t-55.5 23.5t-38 23.5t-28.5 10q-15 0 -25.5 -17t-18.5 -35l-26 15l44 130l31 122l27 -2l-3 -40v-29q3 -87 45 -135t115 -48q66 0 105.5 40t39.5 97q0 56 -21 93t-65 78l-46 44q-23 23 -49.5 49t-45 58t-18.5 73q0 51 26 89.5t71.5 60t105.5 21.5
q40 0 69 -10t49.5 -23.5t34.5 -23.5t23 -10q8 0 14.5 9.5t12.5 31.5l27 -1l-27 -112l-17 -111l-26 1v30q-1 49 -15 92.5t-46 71t-88 27.5q-34 0 -64 -15.5t-48 -43.5t-18 -66q0 -34 13 -59t34 -46.5t45 -44.5l45 -44q52 -49 79.5 -94t27.5 -92q0 -55 -27.5 -100t-76 -71.5
t-112.5 -26.5zM168 -294q-37 0 -53.5 23t-20.5 47l26 5q5 -19 17.5 -33t35.5 -14q28 0 53.5 20.5t42.5 52t17 65.5q0 20 -11 33t-34 13q-17 0 -38 -11.5t-38 -28.5l-16 13q24 26 52.5 39t56.5 13l22 57h30l-25 -60q52 -14 52 -73q0 -36 -23 -73t-61.5 -62.5t-84.5 -25.5z
" />
    <glyph glyph-name="scedilla" unicode="&#x15f;" horiz-adv-x="363" 
d="M136 -14q-52 0 -82 18t-43 43t-13 46q0 23 12.5 38.5t35.5 15.5q16 0 25.5 -10t9.5 -25q0 -16 -7 -28t-7 -29q0 -20 18 -33.5t46 -13.5q31 0 51.5 13.5t31.5 34t11 40.5q0 23 -8 40t-30 42l-37 39q-22 24 -33 53t-11 57q0 31 15 60t45 48t76 19q49 0 74 -13t34.5 -30
t9.5 -31q0 -19 -12 -32.5t-32 -13.5q-12 0 -23.5 9t-11.5 28v25.5t-8 25t-32 10.5q-37 0 -57.5 -23t-20.5 -52q0 -20 8 -39.5t26 -39.5l38 -40q19 -19 38 -45t19 -69q0 -34 -20 -65.5t-55 -52t-81 -20.5zM12 -294q-37 0 -53.5 23t-20.5 47l26 5q5 -19 17.5 -33t35.5 -14
q28 0 53.5 20.5t42.5 52t17 65.5q0 20 -11 33t-34 13q-17 0 -38 -11.5t-38 -28.5l-16 13q24 26 52.5 39t56.5 13l22 57h30l-25 -60q52 -14 52 -73q0 -36 -23 -73t-61.5 -62.5t-84.5 -25.5z" />
    <glyph glyph-name="Scaron" unicode="&#x160;" horiz-adv-x="589" 
d="M293 -11q-46 0 -79 10t-55.5 23.5t-38 23.5t-28.5 10q-15 0 -25.5 -17t-18.5 -35l-26 15l44 130l31 122l27 -2l-3 -40v-29q3 -87 45 -135t115 -48q66 0 105.5 40t39.5 97q0 56 -21 93t-65 78l-46 44q-23 23 -49.5 49t-45 58t-18.5 73q0 51 26 89.5t71.5 60t105.5 21.5
q40 0 69 -10t49.5 -23.5t34.5 -23.5t23 -10q8 0 14.5 9.5t12.5 31.5l27 -1l-27 -112l-17 -111l-26 1v30q-1 49 -15 92.5t-46 71t-88 27.5q-34 0 -64 -15.5t-48 -43.5t-18 -66q0 -34 13 -59t34 -46.5t45 -44.5l45 -44q52 -49 79.5 -94t27.5 -92q0 -55 -27.5 -100t-76 -71.5
t-112.5 -26.5zM407 761l-12 179h29l23 -99l111 99h34l-155 -179h-30z" />
    <glyph glyph-name="scaron" unicode="&#x161;" horiz-adv-x="363" 
d="M136 -14q-52 0 -82 18t-43 43t-13 46q0 23 12.5 38.5t35.5 15.5q16 0 25.5 -10t9.5 -25q0 -16 -7 -28t-7 -29q0 -20 18 -33.5t46 -13.5q31 0 51.5 13.5t31.5 34t11 40.5q0 23 -8 40t-30 42l-37 39q-22 24 -33 53t-11 57q0 31 15 60t45 48t76 19q49 0 74 -13t34.5 -30
t9.5 -31q0 -19 -12 -32.5t-32 -13.5q-12 0 -23.5 9t-11.5 28v25.5t-8 25t-32 10.5q-37 0 -57.5 -23t-20.5 -52q0 -20 8 -39.5t26 -39.5l38 -40q19 -19 38 -45t19 -69q0 -34 -20 -65.5t-55 -52t-81 -20.5zM233 522l-6 188h29l18 -106l116 106h34l-161 -188h-30z" />
    <glyph glyph-name="uni0162" unicode="&#x162;" horiz-adv-x="741" 
d="M139 -3l9 23l16 2q50 7 87 21t51 57l192 587v0l-128 -2q-42 -1 -70 -9.5t-49 -27t-41 -49.5t-45 -77l-26 1l72 190l327 -3l306 3l-2 -81l4 -122h-25q-2 48 -15.5 87.5t-39 63t-65.5 24.5l-122 3l-189 -576q-3 -9 -4 -16t-1 -14q0 -29 23.5 -42.5t63.5 -16.5l36 -3l-8 -23
l-182 3h-11zM209 -279l-2 21q32 2 61.5 18t46.5 49q5 8 7 16.5t2 13.5t-1.5 6t-2.5 1q-3 0 -6 -8q-8 -19 -30 -19q-19 0 -30.5 12t-11.5 29q0 22 14 36t35 14q26 0 39 -17.5t13 -43.5q0 -22 -12 -46q-20 -43 -52 -60t-70 -22z" />
    <glyph glyph-name="uni0163" unicode="&#x163;" horiz-adv-x="308" 
d="M102 -14q-29 0 -42 15.5t-13 40.5q0 14 4 31.5t11 36.5l110 306h-65l8 24h66l31 86h67l-30 -86h92l-8 -24h-93l-117 -334q-8 -24 -8 -36q0 -27 24 -27q23 0 44 21.5t34 43.5l18 -12q-19 -31 -51.5 -58.5t-81.5 -27.5zM8 -279l-2 21q32 2 61.5 18t46.5 49q5 8 7 16.5
t2 13.5t-1.5 6t-2.5 1q-3 0 -6 -8q-8 -19 -30 -19q-19 0 -30.5 12t-11.5 29q0 22 14 36t35 14q26 0 39 -17.5t13 -43.5q0 -22 -12 -46q-20 -43 -52 -60t-70 -22z" />
    <glyph glyph-name="Tcaron" unicode="&#x164;" horiz-adv-x="741" 
d="M139 -3l9 23l16 2q50 7 87 21t51 57l192 587v0l-128 -2q-42 -1 -70 -9.5t-49 -27t-41 -49.5t-45 -77l-26 1l72 190l327 -3l306 3l-2 -81l4 -122h-25q-2 48 -15.5 87.5t-39 63t-65.5 24.5l-122 3l-189 -576q-3 -9 -4 -16t-1 -14q0 -29 23.5 -42.5t63.5 -16.5l36 -3l-8 -23
l-182 3h-11zM548 761l-12 179h29l23 -99l111 99h34l-155 -179h-30z" />
    <glyph glyph-name="tcaron" unicode="&#x165;" horiz-adv-x="308" 
d="M102 -14q-29 0 -42 15.5t-13 40.5q0 14 4 31.5t11 36.5l110 306h-65l8 24h66l31 86h67l-30 -86h92l-8 -24h-93l-117 -334q-8 -24 -8 -36q0 -27 24 -27q23 0 44 21.5t34 43.5l18 -12q-19 -31 -51.5 -58.5t-81.5 -27.5zM338 521l49 144h73l-91 -144h-31z" />
    <glyph glyph-name="Tbar" unicode="&#x166;" horiz-adv-x="741" 
d="M139 -3l9 23l16 2q50 7 87 21t51 57l192 587v0l-128 -2q-42 -1 -70 -9.5t-49 -27t-41 -49.5t-45 -77l-26 1l72 190l327 -3l306 3l-2 -81l4 -122h-25q-2 48 -15.5 87.5t-39 63t-65.5 24.5l-122 3l-189 -576q-3 -9 -4 -16t-1 -14q0 -29 23.5 -42.5t63.5 -16.5l36 -3l-8 -23
l-182 3h-11zM236 342l10 29h385l-10 -29h-385z" />
    <glyph glyph-name="tbar" unicode="&#x167;" horiz-adv-x="308" 
d="M102 -14q-29 0 -42 15.5t-13 40.5q0 14 4 31.5t11 36.5l110 306h-65l8 24h66l31 86h67l-30 -86h92l-8 -24h-93l-117 -334q-8 -24 -8 -36q0 -27 24 -27q23 0 44 21.5t34 43.5l18 -12q-19 -31 -51.5 -58.5t-81.5 -27.5zM47 246l10 24h255l-10 -24h-255z" />
    <glyph glyph-name="Utilde" unicode="&#x168;" horiz-adv-x="758" 
d="M366 -14q-123 0 -176 45.5t-53 124.5q0 26 6 56t16 63l109 339q3 11 5 20t2 16q0 18 -16 25t-57 11l-19 2l8 25l149 -3l149 3l-8 -25l-21 -2q-36 -3 -58.5 -12.5t-37.5 -32t-29 -67.5l-95 -299q-9 -29 -14 -56t-5 -51q0 -67 38 -108.5t118 -41.5q56 0 101.5 24t82.5 80
t68 152l113 351q5 18 5 27q0 19 -16.5 24.5t-53.5 9.5l-19 2l8 25l118 -3l123 3l-8 -25l-21 -2q-32 -3 -52.5 -8t-33.5 -19.5t-23 -46.5l-97 -304q-35 -108 -72.5 -179.5t-92.5 -107t-141 -35.5zM663 801q-19 0 -34 9t-25 16l-20 16q-14 11 -26 18.5t-26 7.5q-22 0 -45 -19
t-34 -37h-19q6 15 23.5 39.5t44 44.5t56.5 20q19 0 34.5 -10t22.5 -16l29 -22q6 -4 19 -11.5t26 -7.5q20 0 39 15t33 36h19q-22 -45 -54.5 -72t-62.5 -27z" />
    <glyph glyph-name="utilde" unicode="&#x169;" horiz-adv-x="533" 
d="M139 -14q-131 0 -73 151l79 209q5 11 6.5 20.5t1.5 16.5q0 18 -11 25t-28 7.5t-36 0.5l7 24l164 3l-120 -335q-16 -43 -9.5 -70t38.5 -27q25 0 53.5 16t55.5 42t48.5 56.5t32.5 60.5l95 254h66l-125 -355q-4 -15 -7 -26.5t-3 -19.5q0 -20 16 -20q22 0 43 23t34 45l18 -12
q-19 -31 -49 -60t-73 -29q-31 0 -43.5 15t-12.5 40q0 20 8 50q-32 -42 -77 -73.5t-99 -31.5zM427 553q-19 0 -34 9t-25 16l-20 16q-14 11 -26 18.5t-26 7.5q-22 0 -45 -19t-34 -37h-19q6 15 23.5 39.5t44 44.5t56.5 20q19 0 34.5 -10t22.5 -16l29 -22q6 -4 19 -11.5t26 -7.5
q20 0 39 15t33 36h19q-22 -45 -54.5 -72t-62.5 -27z" />
    <glyph glyph-name="Umacron" unicode="&#x16a;" horiz-adv-x="758" 
d="M366 -14q-123 0 -176 45.5t-53 124.5q0 26 6 56t16 63l109 339q3 11 5 20t2 16q0 18 -16 25t-57 11l-19 2l8 25l149 -3l149 3l-8 -25l-21 -2q-36 -3 -58.5 -12.5t-37.5 -32t-29 -67.5l-95 -299q-9 -29 -14 -56t-5 -51q0 -67 38 -108.5t118 -41.5q56 0 101.5 24t82.5 80
t68 152l113 351q5 18 5 27q0 19 -16.5 24.5t-53.5 9.5l-19 2l8 25l118 -3l123 3l-8 -25l-21 -2q-32 -3 -52.5 -8t-33.5 -19.5t-23 -46.5l-97 -304q-35 -108 -72.5 -179.5t-92.5 -107t-141 -35.5zM506 827l14 40h227l-14 -40h-227z" />
    <glyph glyph-name="umacron" unicode="&#x16b;" horiz-adv-x="533" 
d="M139 -14q-131 0 -73 151l79 209q5 11 6.5 20.5t1.5 16.5q0 18 -11 25t-28 7.5t-36 0.5l7 24l164 3l-120 -335q-16 -43 -9.5 -70t38.5 -27q25 0 53.5 16t55.5 42t48.5 56.5t32.5 60.5l95 254h66l-125 -355q-4 -15 -7 -26.5t-3 -19.5q0 -20 16 -20q22 0 43 23t34 45l18 -12
q-19 -31 -49 -60t-73 -29q-31 0 -43.5 15t-12.5 40q0 20 8 50q-32 -42 -77 -73.5t-99 -31.5zM238 581l14 40h227l-14 -40h-227z" />
    <glyph glyph-name="Uring" unicode="&#x16e;" horiz-adv-x="758" 
d="M366 -14q-123 0 -176 45.5t-53 124.5q0 26 6 56t16 63l109 339q3 11 5 20t2 16q0 18 -16 25t-57 11l-19 2l8 25l149 -3l149 3l-8 -25l-21 -2q-36 -3 -58.5 -12.5t-37.5 -32t-29 -67.5l-95 -299q-9 -29 -14 -56t-5 -51q0 -67 38 -108.5t118 -41.5q56 0 101.5 24t82.5 80
t68 152l113 351q5 18 5 27q0 19 -16.5 24.5t-53.5 9.5l-19 2l8 25l118 -3l123 3l-8 -25l-21 -2q-32 -3 -52.5 -8t-33.5 -19.5t-23 -46.5l-97 -304q-35 -108 -72.5 -179.5t-92.5 -107t-141 -35.5zM602 784q-39 0 -62.5 25t-23.5 60q0 32 22 58.5t63 26.5q30 0 48.5 -13.5
t27 -33t8.5 -38.5q0 -44 -26.5 -64.5t-56.5 -20.5zM602 810q21 0 37.5 15t16.5 44t-16.5 44t-38.5 15q-19 0 -37.5 -13.5t-18.5 -45.5q0 -28 17 -43.5t40 -15.5z" />
    <glyph glyph-name="uring" unicode="&#x16f;" horiz-adv-x="533" 
d="M139 -14q-131 0 -73 151l79 209q5 11 6.5 20.5t1.5 16.5q0 18 -11 25t-28 7.5t-36 0.5l7 24l164 3l-120 -335q-16 -43 -9.5 -70t38.5 -27q25 0 53.5 16t55.5 42t48.5 56.5t32.5 60.5l95 254h66l-125 -355q-4 -15 -7 -26.5t-3 -19.5q0 -20 16 -20q22 0 43 23t34 45l18 -12
q-19 -31 -49 -60t-73 -29q-31 0 -43.5 15t-12.5 40q0 20 8 50q-32 -42 -77 -73.5t-99 -31.5zM371 528q-39 0 -62.5 25t-23.5 60q0 32 22 58.5t63 26.5q30 0 48.5 -13.5t27 -33t8.5 -38.5q0 -44 -26.5 -64.5t-56.5 -20.5zM371 554q21 0 37.5 15t16.5 44t-16.5 44t-38.5 15
q-19 0 -37.5 -13.5t-18.5 -45.5q0 -28 17 -43.5t40 -15.5z" />
    <glyph glyph-name="Uhungarumlaut" unicode="&#x170;" horiz-adv-x="758" 
d="M366 -14q-123 0 -176 45.5t-53 124.5q0 26 6 56t16 63l109 339q3 11 5 20t2 16q0 18 -16 25t-57 11l-19 2l8 25l149 -3l149 3l-8 -25l-21 -2q-36 -3 -58.5 -12.5t-37.5 -32t-29 -67.5l-95 -299q-9 -29 -14 -56t-5 -51q0 -67 38 -108.5t118 -41.5q56 0 101.5 24t82.5 80
t68 152l113 351q5 18 5 27q0 19 -16.5 24.5t-53.5 9.5l-19 2l8 25l118 -3l123 3l-8 -25l-21 -2q-32 -3 -52.5 -8t-33.5 -19.5t-23 -46.5l-97 -304q-35 -108 -72.5 -179.5t-92.5 -107t-141 -35.5zM499 790l42 144q7 24 17 39.5t30 15.5q15 0 22.5 -10.5t7.5 -24.5
q0 -12 -5 -27t-24 -42l-68 -95h-22zM629 790l42 144q7 24 17 39.5t30 15.5q15 0 22.5 -10.5t7.5 -24.5q0 -12 -5 -27t-24 -42l-68 -95h-22z" />
    <glyph glyph-name="uhungarumlaut" unicode="&#x171;" horiz-adv-x="533" 
d="M139 -14q-131 0 -73 151l79 209q5 11 6.5 20.5t1.5 16.5q0 18 -11 25t-28 7.5t-36 0.5l7 24l164 3l-120 -335q-16 -43 -9.5 -70t38.5 -27q25 0 53.5 16t55.5 42t48.5 56.5t32.5 60.5l95 254h66l-125 -355q-4 -15 -7 -26.5t-3 -19.5q0 -20 16 -20q22 0 43 23t34 45l18 -12
q-19 -31 -49 -60t-73 -29q-31 0 -43.5 15t-12.5 40q0 20 8 50q-32 -42 -77 -73.5t-99 -31.5zM245 520l42 144q7 24 17 39.5t30 15.5q15 0 22.5 -10.5t7.5 -24.5q0 -12 -5 -27t-24 -42l-68 -95h-22zM375 520l42 144q7 24 17 39.5t30 15.5q15 0 22.5 -10.5t7.5 -24.5
q0 -12 -5 -27t-24 -42l-68 -95h-22z" />
    <glyph glyph-name="Uogonek" unicode="&#x172;" horiz-adv-x="758" 
d="M366 -14q-123 0 -176 45.5t-53 124.5q0 26 6 56t16 63l109 339q3 11 5 20t2 16q0 18 -16 25t-57 11l-19 2l8 25l149 -3l149 3l-8 -25l-21 -2q-36 -3 -58.5 -12.5t-37.5 -32t-29 -67.5l-95 -299q-9 -29 -14 -56t-5 -51q0 -67 38 -108.5t118 -41.5q56 0 101.5 24t82.5 80
t68 152l113 351q5 18 5 27q0 19 -16.5 24.5t-53.5 9.5l-19 2l8 25l118 -3l123 3l-8 -25l-21 -2q-32 -3 -52.5 -8t-33.5 -19.5t-23 -46.5l-97 -304q-35 -108 -72.5 -179.5t-92.5 -107t-141 -35.5zM425 -294q-46 0 -77 29.5t-31 72.5q0 38 25 74.5t61.5 71.5t72.5 65h26
q-35 -31 -66 -59.5t-50 -56t-19 -57.5q0 -42 21.5 -63.5t57.5 -21.5q28 0 53 18t39 43l17 -5q-3 -25 -18 -51t-42.5 -43t-69.5 -17z" />
    <glyph glyph-name="uogonek" unicode="&#x173;" horiz-adv-x="533" 
d="M139 -14q-131 0 -73 151l79 209q5 11 6.5 20.5t1.5 16.5q0 18 -11 25t-28 7.5t-36 0.5l7 24l164 3l-120 -335q-16 -43 -9.5 -70t38.5 -27q25 0 53.5 16t55.5 42t48.5 56.5t32.5 60.5l95 254h66l-125 -355q-4 -15 -7 -26.5t-3 -19.5q0 -20 16 -20q22 0 43 23t34 45l18 -12
q-19 -31 -49 -60t-73 -29q-31 0 -43.5 15t-12.5 40q0 20 8 50q-32 -42 -77 -73.5t-99 -31.5zM289 -294q-48 0 -74 27.5t-26 66.5q0 35 24 70t62 67.5t82 59t83 43.5l-24 -33q-44 -21 -81 -51t-59 -64.5t-22 -71.5q0 -34 19 -55t51 -21q17 0 33.5 7t34.5 23l12 -14
q-16 -23 -45 -38.5t-70 -15.5z" />
    <glyph glyph-name="Wcircumflex" unicode="&#x174;" horiz-adv-x="1019" 
d="M292 -8l-55 601q-3 29 -6 48t-18 30t-53 15l-19 2l8 25l139 -3l127 3l-8 -25l-12 -2q-21 -3 -40.5 -9.5t-31 -21t-9.5 -42.5l43 -489l249 438q10 18 18 37.5t8 35.5q0 17 -11 29.5t-40 16.5l-38 6l4 26l27 -3q31 -4 50 -11.5t29 -19.5q22 18 48.5 24t57.5 8l27 2l-1 -26
l-40 -4q-37 -3 -59.5 -21t-22.5 -53q0 -5 0.5 -10.5t1.5 -11.5l61 -469l278 495q12 23 12 37q0 32 -69 36l-37 2l8 25l137 -3l122 3l-8 -25l-21 -2q-35 -3 -55.5 -13.5t-33.5 -28.5t-29 -46l-340 -606h-26l-63 498l-283 -498h-26zM553 761l142 179h39l16 -179h-29l-29 98
l-105 -98h-34z" />
    <glyph glyph-name="wcircumflex" unicode="&#x175;" horiz-adv-x="728" 
d="M175 -11q-10 47 -27 86t-33 73q-15 33 -26 63.5t-11 62.5q0 50 32 84.5t79 63.5l-103 -6l9 24l152 8l5 -17q-16 -8 -37.5 -21t-37.5 -36.5t-16 -64.5t11 -85t28 -103l20 -66l108 133q22 26 37 54.5t15 59.5q0 25 -9.5 44.5t-19 35.5t-9.5 29q0 16 13 29.5t29 13.5
q19 0 35 -15.5t21 -46.5q16 17 38 32.5t47 23.5l8 -16q-18 -8 -41.5 -23.5t-40.5 -42.5t-17 -72q0 -40 10.5 -77t31.5 -96l23 -65l107 132q22 26 36.5 54.5t14.5 59.5q0 25 -9 44.5t-18 35.5t-9 28q0 15 12.5 29.5t30.5 14.5q20 0 37.5 -21t17.5 -62q0 -40 -19 -84t-62 -95
l-168 -203h-17q-10 47 -26 83t-31 80q-4 13 -9 28.5t-7 37.5q-9 -13 -20 -26l-168 -203h-17zM342 521l162 189h39l-4 -189h-29l-15 108l-119 -108h-34z" />
    <glyph glyph-name="Ycircumflex" unicode="&#x176;" horiz-adv-x="663" 
d="M150 -3l9 25l21 2q31 4 50.5 8.5t33 20t24.5 49.5l48 173l-79 318q-7 29 -15 48t-26 30t-56 15l-19 2l9 25l131 -3l146 3l-9 -25l-21 -2q-66 -6 -66 -60q0 -10 2 -21t5 -24l68 -265l222 279q26 33 26 53q0 18 -20 26t-58 12l-19 2l9 25l128 -3l126 3l-9 -25l-21 -3
q-27 -4 -57.5 -24t-62.5 -60l-250 -314l-56 -198q-3 -10 -3 -19q0 -26 26.5 -33.5t70.5 -12.5l19 -2l-9 -25l-173 3zM427 761l142 179h39l16 -179h-29l-29 98l-105 -98h-34z" />
    <glyph glyph-name="ycircumflex" unicode="&#x177;" horiz-adv-x="481" 
d="M-55 -290q-32 0 -51.5 15t-19.5 37q0 23 15.5 36t37.5 13q19 0 33.5 -11t30 -22.5t38.5 -11.5q32 0 64 35l82 87q17 17 28.5 38t11.5 43q0 30 -16 63.5t-39 68.5q-28 44 -52 89.5t-24 87.5q0 53 31.5 85t74.5 59l-103 -6l8 24l153 8l5 -17q-51 -25 -69 -52t-18 -63
q0 -31 10.5 -67t25.5 -71t27 -66l42 -103l46 57q48 60 68.5 104t25 74t4.5 46q0 22 -6 39t-22 33q-11 11 -19.5 21t-8.5 26q0 13 13 29t34 16q20 0 38 -23t18 -77q0 -58 -23 -128.5t-94 -159.5l-142 -176q-59 -74 -101.5 -113t-78.5 -53t-78 -14zM211 521l162 189h39
l-4 -189h-29l-15 108l-119 -108h-34z" />
    <glyph glyph-name="Ydieresis" unicode="&#x178;" horiz-adv-x="663" 
d="M150 -3l9 25l21 2q31 4 50.5 8.5t33 20t24.5 49.5l48 173l-79 318q-7 29 -15 48t-26 30t-56 15l-19 2l9 25l131 -3l146 3l-9 -25l-21 -2q-66 -6 -66 -60q0 -10 2 -21t5 -24l68 -265l222 279q26 33 26 53q0 18 -20 26t-58 12l-19 2l9 25l128 -3l126 3l-9 -25l-21 -3
q-27 -4 -57.5 -24t-62.5 -60l-250 -314l-56 -198q-3 -10 -3 -19q0 -26 26.5 -33.5t70.5 -12.5l19 -2l-9 -25l-173 3zM446 806q-22 0 -36 15t-14 35q0 19 14 33.5t36 14.5q20 0 34 -14.5t14 -33.5q0 -20 -14 -35t-34 -15zM640 806q-22 0 -36 15t-14 35q0 19 14 33.5t36 14.5
q20 0 34 -14.5t14 -33.5q0 -20 -14 -35t-34 -15z" />
    <glyph glyph-name="Zacute" unicode="&#x179;" horiz-adv-x="675" 
d="M-9 0l-7 9l659 676h-228q-57 0 -93.5 -13t-59.5 -36.5t-40 -56.5t-37 -73h-26l77 204h523l3 -7l-657 -674h222q70 0 116 13.5t76 41.5t53 72t46 104h26l-37 -153l-21 -106zM475 760l60 180h81l-129 -180h-12z" />
    <glyph glyph-name="zacute" unicode="&#x17a;" horiz-adv-x="488" 
d="M26 -14q-13 0 -22 9t-9 25q0 31 48 51q22 8 38 22.5t32 29.5l249 222q-9 -2 -19 -2q-45 0 -77 9.5t-54.5 18.5t-41.5 9q-37 0 -50.5 -19t-14.5 -46l-24 1q4 62 38.5 100t81.5 38q29 0 50 -12.5t40 -28.5t39 -28.5t47 -12.5q11 0 15 3.5t9 12.5q17 28 29.5 51t39.5 23
q11 0 21 -7.5t10 -22.5q0 -21 -18 -37t-41 -27t-38 -17l-300 -267q13 6 28 9.5t32 3.5q32 0 60 -10.5t55 -21t54 -10.5q20 0 36.5 18t16.5 53q0 5 -0.5 10.5t-1.5 11.5l27 3q1 -8 1.5 -16t0.5 -16q0 -47 -15 -76.5t-38.5 -43t-49.5 -13.5q-30 0 -52 12.5t-39.5 28.5
t-35 28.5t-39.5 12.5q-26 0 -41.5 -12.5t-25.5 -28.5t-21.5 -28.5t-29.5 -12.5zM298 534l42 144q7 24 17 39.5t30 15.5q15 0 22.5 -10.5t7.5 -24.5q0 -12 -5 -27t-24 -42l-68 -95h-22z" />
    <glyph glyph-name="Zdotaccent" unicode="&#x17b;" horiz-adv-x="675" 
d="M-9 0l-7 9l659 676h-228q-57 0 -93.5 -13t-59.5 -36.5t-40 -56.5t-37 -73h-26l77 204h523l3 -7l-657 -674h222q70 0 116 13.5t76 41.5t53 72t46 104h26l-37 -153l-21 -106zM481 752q-24 0 -39.5 16t-15.5 38q0 21 15.5 37t39.5 16q21 0 36.5 -16t15.5 -37
q0 -22 -15.5 -38t-36.5 -16z" />
    <glyph glyph-name="zdotaccent" unicode="&#x17c;" horiz-adv-x="488" 
d="M26 -14q-13 0 -22 9t-9 25q0 31 48 51q22 8 38 22.5t32 29.5l249 222q-9 -2 -19 -2q-45 0 -77 9.5t-54.5 18.5t-41.5 9q-37 0 -50.5 -19t-14.5 -46l-24 1q4 62 38.5 100t81.5 38q29 0 50 -12.5t40 -28.5t39 -28.5t47 -12.5q11 0 15 3.5t9 12.5q17 28 29.5 51t39.5 23
q11 0 21 -7.5t10 -22.5q0 -21 -18 -37t-41 -27t-38 -17l-300 -267q13 6 28 9.5t32 3.5q32 0 60 -10.5t55 -21t54 -10.5q20 0 36.5 18t16.5 53q0 5 -0.5 10.5t-1.5 11.5l27 3q1 -8 1.5 -16t0.5 -16q0 -47 -15 -76.5t-38.5 -43t-49.5 -13.5q-30 0 -52 12.5t-39.5 28.5
t-35 28.5t-39.5 12.5q-26 0 -41.5 -12.5t-25.5 -28.5t-21.5 -28.5t-29.5 -12.5zM334 567q-24 0 -39.5 16t-15.5 38q0 21 15.5 37t39.5 16q21 0 36.5 -16t15.5 -37q0 -22 -15.5 -38t-36.5 -16z" />
    <glyph glyph-name="Zcaron" unicode="&#x17d;" horiz-adv-x="675" 
d="M-9 0l-7 9l659 676h-228q-57 0 -93.5 -13t-59.5 -36.5t-40 -56.5t-37 -73h-26l77 204h523l3 -7l-657 -674h222q70 0 116 13.5t76 41.5t53 72t46 104h26l-37 -153l-21 -106zM477 761l-12 179h29l23 -99l111 99h34l-155 -179h-30z" />
    <glyph glyph-name="zcaron" unicode="&#x17e;" horiz-adv-x="488" 
d="M26 -14q-13 0 -22 9t-9 25q0 31 48 51q22 8 38 22.5t32 29.5l249 222q-9 -2 -19 -2q-45 0 -77 9.5t-54.5 18.5t-41.5 9q-37 0 -50.5 -19t-14.5 -46l-24 1q4 62 38.5 100t81.5 38q29 0 50 -12.5t40 -28.5t39 -28.5t47 -12.5q11 0 15 3.5t9 12.5q17 28 29.5 51t39.5 23
q11 0 21 -7.5t10 -22.5q0 -21 -18 -37t-41 -27t-38 -17l-300 -267q13 6 28 9.5t32 3.5q32 0 60 -10.5t55 -21t54 -10.5q20 0 36.5 18t16.5 53q0 5 -0.5 10.5t-1.5 11.5l27 3q1 -8 1.5 -16t0.5 -16q0 -47 -15 -76.5t-38.5 -43t-49.5 -13.5q-30 0 -52 12.5t-39.5 28.5
t-35 28.5t-39.5 12.5q-26 0 -41.5 -12.5t-25.5 -28.5t-21.5 -28.5t-29.5 -12.5zM291 536l-6 188h29l18 -106l116 106h34l-161 -188h-30z" />
    <glyph glyph-name="uni0191" unicode="&#x191;" horiz-adv-x="599" 
d="M-62 -294q-61 0 -86 23t-25 50q0 20 14 33.5t35 13.5q22 0 31.5 -15t14 -34t11.5 -34t23 -15q24 0 44.5 38t42.5 106l249 759q2 6 3 11t1 9q0 17 -17 24t-57 11l-19 2l8 25l147 -3l326 -1l6 -183h-26q-1 45 -13.5 81t-40.5 57t-76 21h-144l-107 -327h132q22 0 39 7.5
t34 33t36 79.5h26l-51 -137l-39 -145h-26q9 28 13 49t4 37q0 27 -12 38.5t-32 11.5h-133l-152 -463q-21 -64 -47 -99.5t-59.5 -49.5t-77.5 -14z" />
    <glyph glyph-name="florin" unicode="&#x192;" horiz-adv-x="342" 
d="M-99 -290q-61 0 -86 23t-25 50q0 20 14 33.5t35 13.5q22 0 31.5 -15t14 -34t11.5 -34t23 -15q26 0 49.5 38.5t44.5 102.5l177 543h-87l8 24h87l36 112q32 98 85 135t117 37q55 0 79.5 -22t24.5 -48q0 -20 -10.5 -36.5t-35.5 -16.5q-23 0 -32 14t-9 36q0 29 -7.5 40
t-27.5 11q-19 0 -46 -18t-45 -73l-56 -171h107l-8 -24h-107l-178 -543q-22 -66 -48 -101.5t-59 -48.5t-77 -13z" />
    <glyph glyph-name="uni01CD" unicode="&#x1cd;" horiz-adv-x="662" 
d="M-70 -3l8 25l21 2q52 5 78 31t47 57l424 612l22 -14v-596q0 -27 4 -46t19.5 -29.5t51.5 -14.5l19 -2l-8 -25l-145 3l-145 -3l8 25l21 2q44 5 68.5 21.5t24.5 70.5v142h-229l-102 -147q-22 -32 -22 -51q0 -30 65 -36l19 -2l-8 -25l-118 3zM237 284h211v306zM513 761
l-12 179h29l23 -99l111 99h34l-155 -179h-30z" />
    <glyph glyph-name="uni01CE" unicode="&#x1ce;" horiz-adv-x="533" 
d="M162 -14q-47 0 -77 19.5t-44 52t-14 69.5q0 63 27 122t70.5 105t94.5 73t100 27q46 0 69.5 -30t27.5 -77l34 93h66l-125 -355q-4 -15 -7 -26.5t-3 -19.5q0 -20 16 -20q22 0 43 23t34 45l18 -12q-19 -31 -49 -60t-73 -29q-31 0 -43.5 15t-12.5 40q0 19 6 43
q-33 -46 -73 -72t-85 -26zM172 12q57 0 107 54.5t86 143.5l12 34q17 50 17 92q0 41 -17 66.5t-52 25.5q-40 0 -79.5 -30.5t-72 -79.5t-52 -104.5t-19.5 -106.5q0 -47 19 -71t51 -24zM321 522l-6 188h29l18 -106l116 106h34l-161 -188h-30z" />
    <glyph glyph-name="uni01CF" unicode="&#x1cf;" horiz-adv-x="384" 
d="M-23 -3l8 25l21 2q37 4 59 14t37 33t29 65l160 488q4 13 4 26q0 18 -16 25t-57 11l-19 2l8 25l149 -3l149 3l-8 -25l-21 -2q-36 -3 -58.5 -13t-37.5 -33t-30 -67l-156 -477q-3 -11 -5 -20t-2 -16q0 -18 16 -25t57 -11l19 -2l-8 -25l-149 3zM357 761l-12 179h29l23 -99
l111 99h34l-155 -179h-30z" />
    <glyph glyph-name="uni01D0" unicode="&#x1d0;" horiz-adv-x="279" 
d="M100 -14q-31 0 -43.5 15t-12.5 40q0 16 4 34.5t11 37.5l87 234q8 22 8 35q0 18 -11 25t-28.5 8t-36.5 1l7 24l162 3l-126 -358q-4 -15 -7 -26.5t-3 -19.5q0 -20 16 -20q22 0 43 23t34 45l18 -12q-19 -31 -49 -60t-73 -29zM197 522l-6 188h29l18 -106l116 106h34
l-161 -188h-30z" />
    <glyph glyph-name="uni01D1" unicode="&#x1d1;" horiz-adv-x="778" 
d="M342 -14q-70 0 -128.5 28.5t-93 85.5t-34.5 141q0 69 22.5 138t63.5 131t97.5 110.5t125 76t145.5 27.5q71 0 127.5 -30t89.5 -87t33 -138q0 -70 -22.5 -139t-63 -131t-96.5 -110t-123.5 -75.5t-142.5 -27.5zM345 16q55 0 107 26t96.5 71.5t79 104.5t53.5 126.5t19 136.5
q0 101 -43 157.5t-121 56.5q-55 0 -107.5 -26t-98 -72.5t-80 -106t-54 -127.5t-19.5 -138q0 -99 44.5 -154t123.5 -55zM558 761l-12 179h29l23 -99l111 99h34l-155 -179h-30z" />
    <glyph glyph-name="uni01D2" unicode="&#x1d2;" horiz-adv-x="514" 
d="M196 -14q-53 0 -89 22.5t-53.5 60t-17.5 80.5q0 60 22.5 114.5t62 97.5t90.5 68t107 25q54 0 90 -22.5t53.5 -58.5t17.5 -79q0 -60 -22.5 -115.5t-62 -99t-90.5 -68.5t-108 -25zM195 8q37 0 69 21.5t58.5 56.5t45.5 77t29.5 83.5t10.5 75.5q0 110 -88 110q-37 0 -69 -21
t-58.5 -56t-45.5 -76.5t-29.5 -82.5t-10.5 -75q0 -113 88 -113zM328 522l-6 188h29l18 -106l116 106h34l-161 -188h-30z" />
    <glyph glyph-name="uni01D3" unicode="&#x1d3;" horiz-adv-x="758" 
d="M366 -14q-123 0 -176 45.5t-53 124.5q0 26 6 56t16 63l109 339q3 11 5 20t2 16q0 18 -16 25t-57 11l-19 2l8 25l149 -3l149 3l-8 -25l-21 -2q-36 -3 -58.5 -12.5t-37.5 -32t-29 -67.5l-95 -299q-9 -29 -14 -56t-5 -51q0 -67 38 -108.5t118 -41.5q56 0 101.5 24t82.5 80
t68 152l113 351q5 18 5 27q0 19 -16.5 24.5t-53.5 9.5l-19 2l8 25l118 -3l123 3l-8 -25l-21 -2q-32 -3 -52.5 -8t-33.5 -19.5t-23 -46.5l-97 -304q-35 -108 -72.5 -179.5t-92.5 -107t-141 -35.5zM574 761l-12 179h29l23 -99l111 99h34l-155 -179h-30z" />
    <glyph glyph-name="uni01D4" unicode="&#x1d4;" horiz-adv-x="533" 
d="M139 -14q-131 0 -73 151l79 209q5 11 6.5 20.5t1.5 16.5q0 18 -11 25t-28 7.5t-36 0.5l7 24l164 3l-120 -335q-16 -43 -9.5 -70t38.5 -27q25 0 53.5 16t55.5 42t48.5 56.5t32.5 60.5l95 254h66l-125 -355q-4 -15 -7 -26.5t-3 -19.5q0 -20 16 -20q22 0 43 23t34 45l18 -12
q-19 -31 -49 -60t-73 -29q-31 0 -43.5 15t-12.5 40q0 20 8 50q-32 -42 -77 -73.5t-99 -31.5zM315 522l-6 188h29l18 -106l116 106h34l-161 -188h-30z" />
    <glyph glyph-name="uni01D5" unicode="&#x1d5;" horiz-adv-x="758" 
d="M366 -14q-123 0 -176 45.5t-53 124.5q0 26 6 56t16 63l109 339q3 11 5 20t2 16q0 18 -16 25t-57 11l-19 2l8 25l149 -3l149 3l-8 -25l-21 -2q-36 -3 -58.5 -12.5t-37.5 -32t-29 -67.5l-95 -299q-9 -29 -14 -56t-5 -51q0 -67 38 -108.5t118 -41.5q56 0 101.5 24t82.5 80
t68 152l113 351q5 18 5 27q0 19 -16.5 24.5t-53.5 9.5l-19 2l8 25l118 -3l123 3l-8 -25l-21 -2q-32 -3 -52.5 -8t-33.5 -19.5t-23 -46.5l-97 -304q-35 -108 -72.5 -179.5t-92.5 -107t-141 -35.5zM500 806q-22 0 -36 15t-14 35q0 19 14 33.5t36 14.5q20 0 34 -14.5t14 -33.5
q0 -20 -14 -35t-34 -15zM694 806q-22 0 -36 15t-14 35q0 19 14 33.5t36 14.5q20 0 34 -14.5t14 -33.5q0 -20 -14 -35t-34 -15zM509 984l14 40h227l-14 -40h-227z" />
    <glyph glyph-name="uni01D6" unicode="&#x1d6;" horiz-adv-x="533" 
d="M139 -14q-131 0 -73 151l79 209q5 11 6.5 20.5t1.5 16.5q0 18 -11 25t-28 7.5t-36 0.5l7 24l164 3l-120 -335q-16 -43 -9.5 -70t38.5 -27q25 0 53.5 16t55.5 42t48.5 56.5t32.5 60.5l95 254h66l-125 -355q-4 -15 -7 -26.5t-3 -19.5q0 -20 16 -20q22 0 43 23t34 45l18 -12
q-19 -31 -49 -60t-73 -29q-31 0 -43.5 15t-12.5 40q0 20 8 50q-32 -42 -77 -73.5t-99 -31.5zM273 557q-22 0 -36 15t-14 35q0 19 14 33.5t36 14.5q20 0 34 -14.5t14 -33.5q0 -20 -14 -35t-34 -15zM467 557q-22 0 -36 15t-14 35q0 19 14 33.5t36 14.5q20 0 34 -14.5t14 -33.5
q0 -20 -14 -35t-34 -15zM276 735l14 40h227l-14 -40h-227z" />
    <glyph glyph-name="uni01D7" unicode="&#x1d7;" horiz-adv-x="758" 
d="M366 -14q-123 0 -176 45.5t-53 124.5q0 26 6 56t16 63l109 339q3 11 5 20t2 16q0 18 -16 25t-57 11l-19 2l8 25l149 -3l149 3l-8 -25l-21 -2q-36 -3 -58.5 -12.5t-37.5 -32t-29 -67.5l-95 -299q-9 -29 -14 -56t-5 -51q0 -67 38 -108.5t118 -41.5q56 0 101.5 24t82.5 80
t68 152l113 351q5 18 5 27q0 19 -16.5 24.5t-53.5 9.5l-19 2l8 25l118 -3l123 3l-8 -25l-21 -2q-32 -3 -52.5 -8t-33.5 -19.5t-23 -46.5l-97 -304q-35 -108 -72.5 -179.5t-92.5 -107t-141 -35.5zM500 806q-22 0 -36 15t-14 35q0 19 14 33.5t36 14.5q20 0 34 -14.5t14 -33.5
q0 -20 -14 -35t-34 -15zM694 806q-22 0 -36 15t-14 35q0 19 14 33.5t36 14.5q20 0 34 -14.5t14 -33.5q0 -20 -14 -35t-34 -15zM590 906l60 180h81l-129 -180h-12z" />
    <glyph glyph-name="uni01D8" unicode="&#x1d8;" horiz-adv-x="533" 
d="M139 -14q-131 0 -73 151l79 209q5 11 6.5 20.5t1.5 16.5q0 18 -11 25t-28 7.5t-36 0.5l7 24l164 3l-120 -335q-16 -43 -9.5 -70t38.5 -27q25 0 53.5 16t55.5 42t48.5 56.5t32.5 60.5l95 254h66l-125 -355q-4 -15 -7 -26.5t-3 -19.5q0 -20 16 -20q22 0 43 23t34 45l18 -12
q-19 -31 -49 -60t-73 -29q-31 0 -43.5 15t-12.5 40q0 20 8 50q-32 -42 -77 -73.5t-99 -31.5zM273 557q-22 0 -36 15t-14 35q0 19 14 33.5t36 14.5q20 0 34 -14.5t14 -33.5q0 -20 -14 -35t-34 -15zM467 557q-22 0 -36 15t-14 35q0 19 14 33.5t36 14.5q20 0 34 -14.5t14 -33.5
q0 -20 -14 -35t-34 -15zM359 665l42 144q7 24 17 39.5t30 15.5q15 0 22.5 -10.5t7.5 -24.5q0 -12 -5 -27t-24 -42l-68 -95h-22z" />
    <glyph glyph-name="uni01D9" unicode="&#x1d9;" horiz-adv-x="758" 
d="M366 -14q-123 0 -176 45.5t-53 124.5q0 26 6 56t16 63l109 339q3 11 5 20t2 16q0 18 -16 25t-57 11l-19 2l8 25l149 -3l149 3l-8 -25l-21 -2q-36 -3 -58.5 -12.5t-37.5 -32t-29 -67.5l-95 -299q-9 -29 -14 -56t-5 -51q0 -67 38 -108.5t118 -41.5q56 0 101.5 24t82.5 80
t68 152l113 351q5 18 5 27q0 19 -16.5 24.5t-53.5 9.5l-19 2l8 25l118 -3l123 3l-8 -25l-21 -2q-32 -3 -52.5 -8t-33.5 -19.5t-23 -46.5l-97 -304q-35 -108 -72.5 -179.5t-92.5 -107t-141 -35.5zM500 806q-22 0 -36 15t-14 35q0 19 14 33.5t36 14.5q20 0 34 -14.5t14 -33.5
q0 -20 -14 -35t-34 -15zM694 806q-22 0 -36 15t-14 35q0 19 14 33.5t36 14.5q20 0 34 -14.5t14 -33.5q0 -20 -14 -35t-34 -15zM592 907l-12 179h29l23 -99l111 99h34l-155 -179h-30z" />
    <glyph glyph-name="uni01DA" unicode="&#x1da;" horiz-adv-x="533" 
d="M139 -14q-131 0 -73 151l79 209q5 11 6.5 20.5t1.5 16.5q0 18 -11 25t-28 7.5t-36 0.5l7 24l164 3l-120 -335q-16 -43 -9.5 -70t38.5 -27q25 0 53.5 16t55.5 42t48.5 56.5t32.5 60.5l95 254h66l-125 -355q-4 -15 -7 -26.5t-3 -19.5q0 -20 16 -20q22 0 43 23t34 45l18 -12
q-19 -31 -49 -60t-73 -29q-31 0 -43.5 15t-12.5 40q0 20 8 50q-32 -42 -77 -73.5t-99 -31.5zM273 557q-22 0 -36 15t-14 35q0 19 14 33.5t36 14.5q20 0 34 -14.5t14 -33.5q0 -20 -14 -35t-34 -15zM467 557q-22 0 -36 15t-14 35q0 19 14 33.5t36 14.5q20 0 34 -14.5t14 -33.5
q0 -20 -14 -35t-34 -15zM352 667l-6 188h29l18 -106l116 106h34l-161 -188h-30z" />
    <glyph glyph-name="uni01DB" unicode="&#x1db;" horiz-adv-x="758" 
d="M366 -14q-123 0 -176 45.5t-53 124.5q0 26 6 56t16 63l109 339q3 11 5 20t2 16q0 18 -16 25t-57 11l-19 2l8 25l149 -3l149 3l-8 -25l-21 -2q-36 -3 -58.5 -12.5t-37.5 -32t-29 -67.5l-95 -299q-9 -29 -14 -56t-5 -51q0 -67 38 -108.5t118 -41.5q56 0 101.5 24t82.5 80
t68 152l113 351q5 18 5 27q0 19 -16.5 24.5t-53.5 9.5l-19 2l8 25l118 -3l123 3l-8 -25l-21 -2q-32 -3 -52.5 -8t-33.5 -19.5t-23 -46.5l-97 -304q-35 -108 -72.5 -179.5t-92.5 -107t-141 -35.5zM500 806q-22 0 -36 15t-14 35q0 19 14 33.5t36 14.5q20 0 34 -14.5t14 -33.5
q0 -20 -14 -35t-34 -15zM694 806q-22 0 -36 15t-14 35q0 19 14 33.5t36 14.5q20 0 34 -14.5t14 -33.5q0 -20 -14 -35t-34 -15zM611 906h-12l-41 180h81z" />
    <glyph glyph-name="uni01DC" unicode="&#x1dc;" horiz-adv-x="533" 
d="M139 -14q-131 0 -73 151l79 209q5 11 6.5 20.5t1.5 16.5q0 18 -11 25t-28 7.5t-36 0.5l7 24l164 3l-120 -335q-16 -43 -9.5 -70t38.5 -27q25 0 53.5 16t55.5 42t48.5 56.5t32.5 60.5l95 254h66l-125 -355q-4 -15 -7 -26.5t-3 -19.5q0 -20 16 -20q22 0 43 23t34 45l18 -12
q-19 -31 -49 -60t-73 -29q-31 0 -43.5 15t-12.5 40q0 20 8 50q-32 -42 -77 -73.5t-99 -31.5zM273 557q-22 0 -36 15t-14 35q0 19 14 33.5t36 14.5q20 0 34 -14.5t14 -33.5q0 -20 -14 -35t-34 -15zM467 557q-22 0 -36 15t-14 35q0 19 14 33.5t36 14.5q20 0 34 -14.5t14 -33.5
q0 -20 -14 -35t-34 -15zM367 665l-36 97q-7 19 -10.5 33t-3.5 28q0 17 9.5 29.5t28.5 12.5q14 0 23 -14.5t10 -49.5l3 -136h-24z" />
    <glyph glyph-name="Aringacute" unicode="&#x1fa;" horiz-adv-x="662" 
d="M-70 -3l8 25l21 2q52 5 78 31t47 57l424 612l22 -14v-596q0 -27 4 -46t19.5 -29.5t51.5 -14.5l19 -2l-8 -25l-145 3l-145 -3l8 25l21 2q44 5 68.5 21.5t24.5 70.5v142h-229l-102 -147q-22 -32 -22 -51q0 -30 65 -36l19 -2l-8 -25l-118 3zM237 284h211v306zM541 784
q-39 0 -62.5 25t-23.5 60q0 32 22 58.5t63 26.5q30 0 48.5 -13.5t27 -33t8.5 -38.5q0 -44 -26.5 -64.5t-56.5 -20.5zM541 810q21 0 37.5 15t16.5 44t-16.5 44t-38.5 15q-19 0 -37.5 -13.5t-18.5 -45.5q0 -28 17 -43.5t40 -15.5zM569 958l60 180h81l-129 -180h-12z" />
    <glyph glyph-name="Aringacute" unicode="&#x1fb;" horiz-adv-x="662" 
d="M-70 -3l8 25l21 2q52 5 78 31t47 57l424 612l22 -14v-596q0 -27 4 -46t19.5 -29.5t51.5 -14.5l19 -2l-8 -25l-145 3l-145 -3l8 25l21 2q44 5 68.5 21.5t24.5 70.5v142h-229l-102 -147q-22 -32 -22 -51q0 -30 65 -36l19 -2l-8 -25l-118 3zM237 284h211v306zM541 784
q-39 0 -62.5 25t-23.5 60q0 32 22 58.5t63 26.5q30 0 48.5 -13.5t27 -33t8.5 -38.5q0 -44 -26.5 -64.5t-56.5 -20.5zM541 810q21 0 37.5 15t16.5 44t-16.5 44t-38.5 15q-19 0 -37.5 -13.5t-18.5 -45.5q0 -28 17 -43.5t40 -15.5zM569 958l60 180h81l-129 -180h-12z" />
    <glyph glyph-name="uni0218" unicode="&#x218;" horiz-adv-x="589" 
d="M293 -11q-46 0 -79 10t-55.5 23.5t-38 23.5t-28.5 10q-15 0 -25.5 -17t-18.5 -35l-26 15l44 130l31 122l27 -2l-3 -40v-29q3 -87 45 -135t115 -48q66 0 105.5 40t39.5 97q0 56 -21 93t-65 78l-46 44q-23 23 -49.5 49t-45 58t-18.5 73q0 51 26 89.5t71.5 60t105.5 21.5
q40 0 69 -10t49.5 -23.5t34.5 -23.5t23 -10q8 0 14.5 9.5t12.5 31.5l27 -1l-27 -112l-17 -111l-26 1v30q-1 49 -15 92.5t-46 71t-88 27.5q-34 0 -64 -15.5t-48 -43.5t-18 -66q0 -34 13 -59t34 -46.5t45 -44.5l45 -44q52 -49 79.5 -94t27.5 -92q0 -55 -27.5 -100t-76 -71.5
t-112.5 -26.5zM189 -279l-2 21q32 2 61.5 18t46.5 49q5 8 7 16.5t2 13.5t-1.5 6t-2.5 1q-3 0 -6 -8q-8 -19 -30 -19q-19 0 -30.5 12t-11.5 29q0 22 14 36t35 14q26 0 39 -17.5t13 -43.5q0 -22 -12 -46q-20 -43 -52 -60t-70 -22z" />
    <glyph glyph-name="uni0219" unicode="&#x219;" horiz-adv-x="363" 
d="M136 -14q-52 0 -82 18t-43 43t-13 46q0 23 12.5 38.5t35.5 15.5q16 0 25.5 -10t9.5 -25q0 -16 -7 -28t-7 -29q0 -20 18 -33.5t46 -13.5q31 0 51.5 13.5t31.5 34t11 40.5q0 23 -8 40t-30 42l-37 39q-22 24 -33 53t-11 57q0 31 15 60t45 48t76 19q49 0 74 -13t34.5 -30
t9.5 -31q0 -19 -12 -32.5t-32 -13.5q-12 0 -23.5 9t-11.5 28v25.5t-8 25t-32 10.5q-37 0 -57.5 -23t-20.5 -52q0 -20 8 -39.5t26 -39.5l38 -40q19 -19 38 -45t19 -69q0 -34 -20 -65.5t-55 -52t-81 -20.5zM33 -279l-2 21q32 2 61.5 18t46.5 49q5 8 7 16.5t2 13.5t-1.5 6
t-2.5 1q-3 0 -6 -8q-8 -19 -30 -19q-19 0 -30.5 12t-11.5 29q0 22 14 36t35 14q26 0 39 -17.5t13 -43.5q0 -22 -12 -46q-20 -43 -52 -60t-70 -22z" />
    <glyph glyph-name="uni021A" unicode="&#x21a;" horiz-adv-x="741" 
d="M139 -3l9 23l16 2q50 7 87 21t51 57l192 587v0l-128 -2q-42 -1 -70 -9.5t-49 -27t-41 -49.5t-45 -77l-26 1l72 190l327 -3l306 3l-2 -81l4 -122h-25q-2 48 -15.5 87.5t-39 63t-65.5 24.5l-122 3l-189 -576q-3 -9 -4 -16t-1 -14q0 -29 23.5 -42.5t63.5 -16.5l36 -3l-8 -23
l-182 3h-11zM209 -279l-2 21q32 2 61.5 18t46.5 49q5 8 7 16.5t2 13.5t-1.5 6t-2.5 1q-3 0 -6 -8q-8 -19 -30 -19q-19 0 -30.5 12t-11.5 29q0 22 14 36t35 14q26 0 39 -17.5t13 -43.5q0 -22 -12 -46q-20 -43 -52 -60t-70 -22z" />
    <glyph glyph-name="uni021B" unicode="&#x21b;" horiz-adv-x="308" 
d="M102 -14q-29 0 -42 15.5t-13 40.5q0 14 4 31.5t11 36.5l110 306h-65l8 24h66l31 86h67l-30 -86h92l-8 -24h-93l-117 -334q-8 -24 -8 -36q0 -27 24 -27q23 0 44 21.5t34 43.5l18 -12q-19 -31 -51.5 -58.5t-81.5 -27.5zM8 -279l-2 21q32 2 61.5 18t46.5 49q5 8 7 16.5
t2 13.5t-1.5 6t-2.5 1q-3 0 -6 -8q-8 -19 -30 -19q-19 0 -30.5 12t-11.5 29q0 22 14 36t35 14q26 0 39 -17.5t13 -43.5q0 -22 -12 -46q-20 -43 -52 -60t-70 -22z" />
    <glyph glyph-name="uni0237" unicode="&#x237;" horiz-adv-x="270" 
d="M-111 -290q-61 0 -86 23t-25 50q0 20 14 33.5t35 13.5q22 0 31.5 -15t14 -34t11.5 -34t23 -15q27 0 48.5 38t42.5 103l158 487q5 17 5 24q0 25 -24 28.5t-52 3.5l7 24l162 3l-187 -575q-28 -88 -70.5 -123t-107.5 -35z" />
    <glyph glyph-name="circumflex" unicode="&#x2c6;" horiz-adv-x="287" 
d="M155 521l162 189h39l-4 -189h-29l-15 108l-119 -108h-34z" />
    <glyph glyph-name="caron" unicode="&#x2c7;" horiz-adv-x="310" 
d="M242 522l-6 188h29l18 -106l116 106h34l-161 -188h-30z" />
    <glyph glyph-name="breve" unicode="&#x2d8;" horiz-adv-x="279" 
d="M256 535q-36 0 -53 18t-17 46q0 22 11 52h25q-1 -4 -1.5 -8.5t-0.5 -8.5q0 -39 58 -39q31 0 54 12.5t39 43.5h25q-22 -61 -61 -88.5t-79 -27.5z" />
    <glyph glyph-name="dotaccent" unicode="&#x2d9;" horiz-adv-x="216" 
d="M252 553q-24 0 -39.5 16t-15.5 38q0 21 15.5 37t39.5 16q21 0 36.5 -16t15.5 -37q0 -22 -15.5 -38t-36.5 -16z" />
    <glyph glyph-name="ring" unicode="&#x2da;" horiz-adv-x="281" 
d="M266 528q-39 0 -62.5 25t-23.5 60q0 32 22 58.5t63 26.5q30 0 48.5 -13.5t27 -33t8.5 -38.5q0 -44 -26.5 -64.5t-56.5 -20.5zM266 554q21 0 37.5 15t16.5 44t-16.5 44t-38.5 15q-19 0 -37.5 -13.5t-18.5 -45.5q0 -28 17 -43.5t40 -15.5z" />
    <glyph glyph-name="ogonek" unicode="&#x2db;" horiz-adv-x="298" 
d="M-9 -294q-48 0 -74 27.5t-26 66.5q0 35 24 70t62 67.5t82 59t83 43.5l-24 -33q-44 -21 -81 -51t-59 -64.5t-22 -71.5q0 -34 19 -55t51 -21q17 0 33.5 7t34.5 23l12 -14q-16 -23 -45 -38.5t-70 -15.5z" />
    <glyph glyph-name="tilde" unicode="&#x2dc;" horiz-adv-x="393" 
d="M393 553q-19 0 -34 9t-25 16l-20 16q-14 11 -26 18.5t-26 7.5q-22 0 -45 -19t-34 -37h-19q6 15 23.5 39.5t44 44.5t56.5 20q19 0 34.5 -10t22.5 -16l29 -22q6 -4 19 -11.5t26 -7.5q20 0 39 15t33 36h19q-22 -45 -54.5 -72t-62.5 -27z" />
    <glyph glyph-name="hungarumlaut" unicode="&#x2dd;" horiz-adv-x="348" 
d="M170 520l42 144q7 24 17 39.5t30 15.5q15 0 22.5 -10.5t7.5 -24.5q0 -12 -5 -27t-24 -42l-68 -95h-22zM300 520l42 144q7 24 17 39.5t30 15.5q15 0 22.5 -10.5t7.5 -24.5q0 -12 -5 -27t-24 -42l-68 -95h-22z" />
    <glyph glyph-name="gravecomb" unicode="&#x300;" 
d="M287 520l-36 97q-7 19 -10.5 33t-3.5 28q0 17 9.5 29.5t28.5 12.5q14 0 23 -14.5t10 -49.5l3 -136h-24z" />
    <glyph glyph-name="acutecomb" unicode="&#x301;" 
d="M170 520l42 144q7 24 17 39.5t30 15.5q15 0 22.5 -10.5t7.5 -24.5q0 -12 -5 -27t-24 -42l-68 -95h-22z" />
    <glyph glyph-name="uni0302" unicode="&#x302;" 
d="M155 521l162 189h39l-4 -189h-29l-15 108l-119 -108h-34z" />
    <glyph glyph-name="tildecomb" unicode="&#x303;" 
d="M393 553q-19 0 -34 9t-25 16l-20 16q-14 11 -26 18.5t-26 7.5q-22 0 -45 -19t-34 -37h-19q6 15 23.5 39.5t44 44.5t56.5 20q19 0 34.5 -10t22.5 -16l29 -22q6 -4 19 -11.5t26 -7.5q20 0 39 15t33 36h19q-22 -45 -54.5 -72t-62.5 -27z" />
    <glyph glyph-name="uni0304" unicode="&#x304;" 
d="M179 581l14 40h227l-14 -40h-227z" />
    <glyph glyph-name="uni0306" unicode="&#x306;" 
d="M256 535q-36 0 -53 18t-17 46q0 22 11 52h25q-1 -4 -1.5 -8.5t-0.5 -8.5q0 -39 58 -39q31 0 54 12.5t39 43.5h25q-22 -61 -61 -88.5t-79 -27.5z" />
    <glyph glyph-name="uni0307" unicode="&#x307;" 
d="M252 553q-24 0 -39.5 16t-15.5 38q0 21 15.5 37t39.5 16q21 0 36.5 -16t15.5 -37q0 -22 -15.5 -38t-36.5 -16z" />
    <glyph glyph-name="uni0308" unicode="&#x308;" 
d="M245 557q-22 0 -36 15t-14 35q0 19 14 33.5t36 14.5q20 0 34 -14.5t14 -33.5q0 -20 -14 -35t-34 -15zM439 557q-22 0 -36 15t-14 35q0 19 14 33.5t36 14.5q20 0 34 -14.5t14 -33.5q0 -20 -14 -35t-34 -15z" />
    <glyph glyph-name="uni030A" unicode="&#x30a;" 
d="M266 528q-39 0 -62.5 25t-23.5 60q0 32 22 58.5t63 26.5q30 0 48.5 -13.5t27 -33t8.5 -38.5q0 -44 -26.5 -64.5t-56.5 -20.5zM266 554q21 0 37.5 15t16.5 44t-16.5 44t-38.5 15q-19 0 -37.5 -13.5t-18.5 -45.5q0 -28 17 -43.5t40 -15.5z" />
    <glyph glyph-name="uni030B" unicode="&#x30b;" 
d="M170 520l42 144q7 24 17 39.5t30 15.5q15 0 22.5 -10.5t7.5 -24.5q0 -12 -5 -27t-24 -42l-68 -95h-22zM300 520l42 144q7 24 17 39.5t30 15.5q15 0 22.5 -10.5t7.5 -24.5q0 -12 -5 -27t-24 -42l-68 -95h-22z" />
    <glyph glyph-name="uni030C" unicode="&#x30c;" 
d="M242 522l-6 188h29l18 -106l116 106h34l-161 -188h-30z" />
    <glyph glyph-name="uni0312" unicode="&#x312;" 
d="M347 702l2 -21q-32 -2 -61.5 -18t-46.5 -49q-4 -7 -6.5 -16t-2.5 -14t1.5 -6t2.5 -1q3 0 6 8q8 19 30 19q19 0 30.5 -12t11.5 -29q0 -22 -14 -36t-35 -14q-25 0 -38.5 18t-13.5 43q0 22 12 46q20 43 52 60.5t70 21.5z" />
    <glyph glyph-name="uni0326" unicode="&#x326;" 
d="M-107 -279l-2 21q32 2 61.5 18t46.5 49q5 8 7 16.5t2 13.5t-1.5 6t-2.5 1q-3 0 -6 -8q-8 -19 -30 -19q-19 0 -30.5 12t-11.5 29q0 22 14 36t35 14q26 0 39 -17.5t13 -43.5q0 -22 -12 -46q-20 -43 -52 -60t-70 -22z" />
    <glyph glyph-name="uni0327" unicode="&#x327;" 
d="M-36 -294q-37 0 -53.5 23t-20.5 47l26 5q5 -19 17.5 -33t35.5 -14q28 0 53.5 20.5t42.5 52t17 65.5q0 20 -11 33t-34 13q-17 0 -38 -11.5t-38 -28.5l-16 13q24 26 52.5 39t56.5 13l22 57h30l-25 -60q52 -14 52 -73q0 -36 -23 -73t-61.5 -62.5t-84.5 -25.5z" />
    <glyph glyph-name="uni0328" unicode="&#x328;" 
d="M-9 -294q-48 0 -74 27.5t-26 66.5q0 35 24 70t62 67.5t82 59t83 43.5l-24 -33q-44 -21 -81 -51t-59 -64.5t-22 -71.5q0 -34 19 -55t51 -21q17 0 33.5 7t34.5 23l12 -14q-16 -23 -45 -38.5t-70 -15.5z" />
    <glyph glyph-name="uni0335" unicode="&#x335;" 
d="M166 557l10 24h255l-10 -24h-255z" />
    <glyph glyph-name="uni0336" unicode="&#x336;" 
d="M155 522l10 29h752l-10 -29h-752z" />
    <glyph glyph-name="uni0337" unicode="&#x337;" 
d="M-119 -12l535 465h56l-534 -465h-57z" />
    <glyph glyph-name="uni0338" unicode="&#x338;" 
d="M-55 -14l644 740h56l-644 -740h-56z" />
    <glyph glyph-name="Wgrave" unicode="&#x1e80;" horiz-adv-x="1019" 
d="M292 -8l-55 601q-3 29 -6 48t-18 30t-53 15l-19 2l8 25l139 -3l127 3l-8 -25l-12 -2q-21 -3 -40.5 -9.5t-31 -21t-9.5 -42.5l43 -489l249 438q10 18 18 37.5t8 35.5q0 17 -11 29.5t-40 16.5l-38 6l4 26l27 -3q31 -4 50 -11.5t29 -19.5q22 18 48.5 24t57.5 8l27 2l-1 -26
l-40 -4q-37 -3 -59.5 -21t-22.5 -53q0 -5 0.5 -10.5t1.5 -11.5l61 -469l278 495q12 23 12 37q0 32 -69 36l-37 2l8 25l137 -3l122 3l-8 -25l-21 -2q-35 -3 -55.5 -13.5t-33.5 -28.5t-29 -46l-340 -606h-26l-63 498l-283 -498h-26zM665 760h-12l-41 180h81z" />
    <glyph glyph-name="wgrave" unicode="&#x1e81;" horiz-adv-x="728" 
d="M175 -11q-10 47 -27 86t-33 73q-15 33 -26 63.5t-11 62.5q0 50 32 84.5t79 63.5l-103 -6l9 24l152 8l5 -17q-16 -8 -37.5 -21t-37.5 -36.5t-16 -64.5t11 -85t28 -103l20 -66l108 133q22 26 37 54.5t15 59.5q0 25 -9.5 44.5t-19 35.5t-9.5 29q0 16 13 29.5t29 13.5
q19 0 35 -15.5t21 -46.5q16 17 38 32.5t47 23.5l8 -16q-18 -8 -41.5 -23.5t-40.5 -42.5t-17 -72q0 -40 10.5 -77t31.5 -96l23 -65l107 132q22 26 36.5 54.5t14.5 59.5q0 25 -9 44.5t-18 35.5t-9 28q0 15 12.5 29.5t30.5 14.5q20 0 37.5 -21t17.5 -62q0 -40 -19 -84t-62 -95
l-168 -203h-17q-10 47 -26 83t-31 80q-4 13 -9 28.5t-7 37.5q-9 -13 -20 -26l-168 -203h-17zM440 520l-36 97q-7 19 -10.5 33t-3.5 28q0 17 9.5 29.5t28.5 12.5q14 0 23 -14.5t10 -49.5l3 -136h-24z" />
    <glyph glyph-name="Wacute" unicode="&#x1e82;" horiz-adv-x="1019" 
d="M292 -8l-55 601q-3 29 -6 48t-18 30t-53 15l-19 2l8 25l139 -3l127 3l-8 -25l-12 -2q-21 -3 -40.5 -9.5t-31 -21t-9.5 -42.5l43 -489l249 438q10 18 18 37.5t8 35.5q0 17 -11 29.5t-40 16.5l-38 6l4 26l27 -3q31 -4 50 -11.5t29 -19.5q22 18 48.5 24t57.5 8l27 2l-1 -26
l-40 -4q-37 -3 -59.5 -21t-22.5 -53q0 -5 0.5 -10.5t1.5 -11.5l61 -469l278 495q12 23 12 37q0 32 -69 36l-37 2l8 25l137 -3l122 3l-8 -25l-21 -2q-35 -3 -55.5 -13.5t-33.5 -28.5t-29 -46l-340 -606h-26l-63 498l-283 -498h-26zM644 760l60 180h81l-129 -180h-12z" />
    <glyph glyph-name="wacute" unicode="&#x1e83;" horiz-adv-x="728" 
d="M175 -11q-10 47 -27 86t-33 73q-15 33 -26 63.5t-11 62.5q0 50 32 84.5t79 63.5l-103 -6l9 24l152 8l5 -17q-16 -8 -37.5 -21t-37.5 -36.5t-16 -64.5t11 -85t28 -103l20 -66l108 133q22 26 37 54.5t15 59.5q0 25 -9.5 44.5t-19 35.5t-9.5 29q0 16 13 29.5t29 13.5
q19 0 35 -15.5t21 -46.5q16 17 38 32.5t47 23.5l8 -16q-18 -8 -41.5 -23.5t-40.5 -42.5t-17 -72q0 -40 10.5 -77t31.5 -96l23 -65l107 132q22 26 36.5 54.5t14.5 59.5q0 25 -9 44.5t-18 35.5t-9 28q0 15 12.5 29.5t30.5 14.5q20 0 37.5 -21t17.5 -62q0 -40 -19 -84t-62 -95
l-168 -203h-17q-10 47 -26 83t-31 80q-4 13 -9 28.5t-7 37.5q-9 -13 -20 -26l-168 -203h-17zM432 520l42 144q7 24 17 39.5t30 15.5q15 0 22.5 -10.5t7.5 -24.5q0 -12 -5 -27t-24 -42l-68 -95h-22z" />
    <glyph glyph-name="Wdieresis" unicode="&#x1e84;" horiz-adv-x="1019" 
d="M292 -8l-55 601q-3 29 -6 48t-18 30t-53 15l-19 2l8 25l139 -3l127 3l-8 -25l-12 -2q-21 -3 -40.5 -9.5t-31 -21t-9.5 -42.5l43 -489l249 438q10 18 18 37.5t8 35.5q0 17 -11 29.5t-40 16.5l-38 6l4 26l27 -3q31 -4 50 -11.5t29 -19.5q22 18 48.5 24t57.5 8l27 2l-1 -26
l-40 -4q-37 -3 -59.5 -21t-22.5 -53q0 -5 0.5 -10.5t1.5 -11.5l61 -469l278 495q12 23 12 37q0 32 -69 36l-37 2l8 25l137 -3l122 3l-8 -25l-21 -2q-35 -3 -55.5 -13.5t-33.5 -28.5t-29 -46l-340 -606h-26l-63 498l-283 -498h-26zM572 806q-22 0 -36 15t-14 35q0 19 14 33.5
t36 14.5q20 0 34 -14.5t14 -33.5q0 -20 -14 -35t-34 -15zM766 806q-22 0 -36 15t-14 35q0 19 14 33.5t36 14.5q20 0 34 -14.5t14 -33.5q0 -20 -14 -35t-34 -15z" />
    <glyph glyph-name="wdieresis" unicode="&#x1e85;" horiz-adv-x="728" 
d="M175 -11q-10 47 -27 86t-33 73q-15 33 -26 63.5t-11 62.5q0 50 32 84.5t79 63.5l-103 -6l9 24l152 8l5 -17q-16 -8 -37.5 -21t-37.5 -36.5t-16 -64.5t11 -85t28 -103l20 -66l108 133q22 26 37 54.5t15 59.5q0 25 -9.5 44.5t-19 35.5t-9.5 29q0 16 13 29.5t29 13.5
q19 0 35 -15.5t21 -46.5q16 17 38 32.5t47 23.5l8 -16q-18 -8 -41.5 -23.5t-40.5 -42.5t-17 -72q0 -40 10.5 -77t31.5 -96l23 -65l107 132q22 26 36.5 54.5t14.5 59.5q0 25 -9 44.5t-18 35.5t-9 28q0 15 12.5 29.5t30.5 14.5q20 0 37.5 -21t17.5 -62q0 -40 -19 -84t-62 -95
l-168 -203h-17q-10 47 -26 83t-31 80q-4 13 -9 28.5t-7 37.5q-9 -13 -20 -26l-168 -203h-17zM383 557q-22 0 -36 15t-14 35q0 19 14 33.5t36 14.5q20 0 34 -14.5t14 -33.5q0 -20 -14 -35t-34 -15zM577 557q-22 0 -36 15t-14 35q0 19 14 33.5t36 14.5q20 0 34 -14.5t14 -33.5
q0 -20 -14 -35t-34 -15z" />
    <glyph glyph-name="Ygrave" unicode="&#x1ef2;" horiz-adv-x="663" 
d="M150 -3l9 25l21 2q31 4 50.5 8.5t33 20t24.5 49.5l48 173l-79 318q-7 29 -15 48t-26 30t-56 15l-19 2l9 25l131 -3l146 3l-9 -25l-21 -2q-66 -6 -66 -60q0 -10 2 -21t5 -24l68 -265l222 279q26 33 26 53q0 18 -20 26t-58 12l-19 2l9 25l128 -3l126 3l-9 -25l-21 -3
q-27 -4 -57.5 -24t-62.5 -60l-250 -314l-56 -198q-3 -10 -3 -19q0 -26 26.5 -33.5t70.5 -12.5l19 -2l-9 -25l-173 3zM539 760h-12l-41 180h81z" />
    <glyph glyph-name="ygrave" unicode="&#x1ef3;" horiz-adv-x="481" 
d="M-55 -290q-32 0 -51.5 15t-19.5 37q0 23 15.5 36t37.5 13q19 0 33.5 -11t30 -22.5t38.5 -11.5q32 0 64 35l82 87q17 17 28.5 38t11.5 43q0 30 -16 63.5t-39 68.5q-28 44 -52 89.5t-24 87.5q0 53 31.5 85t74.5 59l-103 -6l8 24l153 8l5 -17q-51 -25 -69 -52t-18 -63
q0 -31 10.5 -67t25.5 -71t27 -66l42 -103l46 57q48 60 68.5 104t25 74t4.5 46q0 22 -6 39t-22 33q-11 11 -19.5 21t-8.5 26q0 13 13 29t34 16q20 0 38 -23t18 -77q0 -58 -23 -128.5t-94 -159.5l-142 -176q-59 -74 -101.5 -113t-78.5 -53t-78 -14zM309 520l-36 97
q-7 19 -10.5 33t-3.5 28q0 17 9.5 29.5t28.5 12.5q14 0 23 -14.5t10 -49.5l3 -136h-24z" />
    <glyph glyph-name="uni1EF8" unicode="&#x1ef8;" horiz-adv-x="663" 
d="M150 -3l9 25l21 2q31 4 50.5 8.5t33 20t24.5 49.5l48 173l-79 318q-7 29 -15 48t-26 30t-56 15l-19 2l9 25l131 -3l146 3l-9 -25l-21 -2q-66 -6 -66 -60q0 -10 2 -21t5 -24l68 -265l222 279q26 33 26 53q0 18 -20 26t-58 12l-19 2l9 25l128 -3l126 3l-9 -25l-21 -3
q-27 -4 -57.5 -24t-62.5 -60l-250 -314l-56 -198q-3 -10 -3 -19q0 -26 26.5 -33.5t70.5 -12.5l19 -2l-9 -25l-173 3zM609 801q-19 0 -34 9t-25 16l-20 16q-14 11 -26 18.5t-26 7.5q-22 0 -45 -19t-34 -37h-19q6 15 23.5 39.5t44 44.5t56.5 20q19 0 34.5 -10t22.5 -16l29 -22
q6 -4 19 -11.5t26 -7.5q20 0 39 15t33 36h19q-22 -45 -54.5 -72t-62.5 -27z" />
    <glyph glyph-name="uni1EF9" unicode="&#x1ef9;" horiz-adv-x="481" 
d="M-55 -290q-32 0 -51.5 15t-19.5 37q0 23 15.5 36t37.5 13q19 0 33.5 -11t30 -22.5t38.5 -11.5q32 0 64 35l82 87q17 17 28.5 38t11.5 43q0 30 -16 63.5t-39 68.5q-28 44 -52 89.5t-24 87.5q0 53 31.5 85t74.5 59l-103 -6l8 24l153 8l5 -17q-51 -25 -69 -52t-18 -63
q0 -31 10.5 -67t25.5 -71t27 -66l42 -103l46 57q48 60 68.5 104t25 74t4.5 46q0 22 -6 39t-22 33q-11 11 -19.5 21t-8.5 26q0 13 13 29t34 16q20 0 38 -23t18 -77q0 -58 -23 -128.5t-94 -159.5l-142 -176q-59 -74 -101.5 -113t-78.5 -53t-78 -14zM406 553q-19 0 -34 9
t-25 16l-20 16q-14 11 -26 18.5t-26 7.5q-22 0 -45 -19t-34 -37h-19q6 15 23.5 39.5t44 44.5t56.5 20q19 0 34.5 -10t22.5 -16l29 -22q6 -4 19 -11.5t26 -7.5q20 0 39 15t33 36h19q-22 -45 -54.5 -72t-62.5 -27z" />
    <glyph glyph-name="endash" unicode="&#x2013;" horiz-adv-x="494" 
d="M11 196l13 36h454l-13 -36h-454z" />
    <glyph glyph-name="emdash" unicode="&#x2014;" horiz-adv-x="736" 
d="M14 196l16 36h695l-16 -36h-695z" />
    <glyph glyph-name="quoteleft" unicode="&#x2018;" horiz-adv-x="231" 
d="M367 724l3 -28q-43 -3 -82 -24t-62 -65q-12 -22 -12 -40q0 -7 2.5 -8.5t3.5 -1.5q3 0 8 11q11 26 40 26q25 0 40.5 -16t15.5 -39q0 -29 -18.5 -47.5t-46.5 -18.5q-34 0 -52 23t-18 57q0 28 16 62q27 56 69.5 79.5t92.5 29.5z" />
    <glyph glyph-name="quoteright" unicode="&#x2019;" horiz-adv-x="234" 
d="M141 467l-3 28q43 3 82 24.5t62 64.5q12 22 12 40q0 7 -2 8.5t-4 1.5q-3 0 -8 -11q-11 -26 -40 -26q-25 0 -40.5 16t-15.5 39q0 29 18.5 47.5t46.5 18.5q35 0 52.5 -23t17.5 -57q0 -28 -16 -62q-27 -56 -69.5 -79.5t-92.5 -29.5z" />
    <glyph glyph-name="quotesinglbase" unicode="&#x201a;" horiz-adv-x="232" 
d="M-63 -179l-5 28q36 8 71.5 21.5t64 37t41.5 61.5q7 21 7 44q0 9 -2 18t-8 15l-3 -4q2 -4 2 -10q2 -20 -10 -35t-36 -15q-25 0 -41.5 19.5t-16.5 44.5t17 43t45 18q31 0 55.5 -24.5t26.5 -62.5q4 -49 -21.5 -90.5t-69.5 -67.5q-29 -18 -60.5 -27t-56.5 -14z" />
    <glyph glyph-name="quotedblleft" unicode="&#x201c;" horiz-adv-x="446" 
d="M367 724l3 -28q-43 -3 -82 -24t-62 -65q-12 -22 -12 -40q0 -7 2.5 -8.5t3.5 -1.5q3 0 8 11q11 26 40 26q25 0 40.5 -16t15.5 -39q0 -29 -18.5 -47.5t-46.5 -18.5q-34 0 -52 23t-18 57q0 28 16 62q27 56 69.5 79.5t92.5 29.5zM582 724l3 -28q-43 -3 -82 -24t-62 -65
q-12 -22 -12 -40q0 -7 2.5 -8.5t3.5 -1.5q3 0 8 11q11 26 40 26q25 0 40.5 -16t15.5 -39q0 -29 -18.5 -47.5t-46.5 -18.5q-34 0 -52 23t-18 57q0 28 16 62q27 56 69.5 79.5t92.5 29.5z" />
    <glyph glyph-name="quotedblright" unicode="&#x201d;" horiz-adv-x="450" 
d="M358 471l-3 28q43 3 82 24.5t62 64.5q12 22 12 40q0 7 -2 8.5t-4 1.5q-3 0 -8 -11q-11 -26 -40 -26q-25 0 -40.5 16t-15.5 39q0 29 18.5 47.5t46.5 18.5q35 0 52.5 -23t17.5 -57q0 -28 -16 -62q-27 -56 -69.5 -79.5t-92.5 -29.5zM143 471l-3 28q43 3 82 24.5t62 64.5
q12 22 12 40q0 7 -2 8.5t-4 1.5q-3 0 -8 -11q-11 -26 -40 -26q-25 0 -40.5 16t-15.5 39q0 29 18.5 47.5t46.5 18.5q35 0 52.5 -23t17.5 -57q0 -28 -16 -62q-27 -56 -69.5 -79.5t-92.5 -29.5z" />
    <glyph glyph-name="quotedblbase" unicode="&#x201e;" horiz-adv-x="430" 
d="M358 -138l-3 28q43 3 82 24.5t62 64.5q12 22 12 40q0 7 -2 8.5t-4 1.5q-3 0 -8 -11q-11 -26 -40 -26q-25 0 -40.5 16t-15.5 39q0 29 18.5 47.5t46.5 18.5q35 0 52.5 -23t17.5 -57q0 -28 -16 -62q-27 -56 -69.5 -79.5t-92.5 -29.5zM143 -138l-3 28q43 3 82 24.5t62 64.5
q12 22 12 40q0 7 -2 8.5t-4 1.5q-3 0 -8 -11q-11 -26 -40 -26q-25 0 -40.5 16t-15.5 39q0 29 18.5 47.5t46.5 18.5q35 0 52.5 -23t17.5 -57q0 -28 -16 -62q-27 -56 -69.5 -79.5t-92.5 -29.5z" />
    <glyph glyph-name="dagger" unicode="&#x2020;" horiz-adv-x="489" 
d="M53 -280q54 149 90 260t59.5 188t40.5 124q20 55 42 97.5t38 80.5q-43 -2 -76 -15.5t-59 -13.5q-22 0 -36 10t-14 29q0 23 14 31.5t36 8.5q19 0 40.5 -7.5t47 -15.5t54.5 -8q7 18 10.5 36.5t3.5 37.5q0 9 -0.5 22t-0.5 23q0 39 20.5 70.5t57.5 31.5q17 0 25 -10.5
t8 -24.5q0 -25 -18 -53t-41 -57q-16 -20 -26.5 -38.5t-17.5 -37.5q30 1 55 8.5t46 15t39 7.5q22 0 36 -8.5t14 -31.5q0 -19 -13.5 -29t-36.5 -10q-18 0 -41 7t-49.5 14.5t-55.5 7.5q-12 -38 -20 -81.5t-29 -102.5q-27 -73 -84 -210.5t-136 -355.5h-23z" />
    <glyph glyph-name="daggerdbl" unicode="&#x2021;" horiz-adv-x="488" 
d="M247 254q10 28 17 57t12 53.5t10 37.5q8 22 22 44.5t24 46.5q-44 -1 -77 -14.5t-58 -13.5q-23 0 -37 10t-14 28q0 23 14.5 31t36.5 8q18 0 39 -7.5t46.5 -15t56.5 -7.5q4 15 5.5 28.5t1.5 25.5q0 8 -0.5 16t-0.5 16q0 27 7.5 53t22.5 42.5t39 16.5q37 0 37 -36
q0 -22 -14.5 -45.5t-32.5 -46.5q-11 -16 -22.5 -33t-19.5 -37q29 1 53 8.5t44 14.5t37 7q23 0 37 -8t14 -31q0 -18 -14 -28t-37 -10q-17 0 -38.5 7t-47 14t-55.5 7q-8 -25 -10.5 -47.5t-9.5 -42.5q-5 -14 -17 -38.5t-25 -53.5t-23 -57h-23zM-17 -126q-22 0 -36.5 8.5
t-14.5 30.5q0 18 14 28t37 10q18 0 39 -7t46.5 -14t56.5 -7q7 26 9.5 48t9.5 43q5 13 17.5 37.5t27 54t24.5 56.5h23q-9 -25 -16.5 -54t-14 -54.5t-12.5 -40.5q-7 -21 -21.5 -44t-24.5 -46q44 1 77 14.5t58 13.5q23 0 37 -10t14 -28q0 -22 -14 -30.5t-37 -8.5
q-17 0 -38.5 7.5t-47 15t-55.5 7.5q-7 -20 -8 -37.5t-1 -32.5q-3 -56 -20 -92t-52 -36q-14 0 -24.5 8.5t-10.5 24.5q0 25 17.5 51.5t34.5 49.5q11 14 21.5 29.5t18.5 34.5q-29 -1 -53 -8.5t-44 -14.5t-37 -7z" />
    <glyph glyph-name="bullet" unicode="&#x2022;" horiz-adv-x="296" 
d="M186 238q-37 0 -60.5 24.5t-23.5 58.5q0 33 23.5 57t60.5 24q34 0 57.5 -24t23.5 -57q0 -34 -23.5 -58.5t-57.5 -24.5z" />
    <glyph glyph-name="ellipsis" unicode="&#x2026;" horiz-adv-x="860" 
d="M369 -11q-26 0 -43 17.5t-17 42.5q0 23 17 40.5t43 17.5q24 0 41 -17.5t17 -40.5q0 -25 -17 -42.5t-41 -17.5zM676 -11q-26 0 -43 17.5t-17 42.5q0 23 17 40.5t43 17.5q24 0 41 -17.5t17 -40.5q0 -25 -17 -42.5t-41 -17.5zM61 -11q-26 0 -43 17.5t-17 42.5q0 23 17 40.5
t43 17.5q24 0 41 -17.5t17 -40.5q0 -25 -17 -42.5t-41 -17.5z" />
    <glyph glyph-name="perthousand" unicode="&#x2030;" horiz-adv-x="1049" 
d="M224 309q-52 0 -79 25t-27 68q0 34 16.5 67t44.5 59.5t64 42t74 15.5q53 0 80 -25t27 -65q0 -36 -16.5 -69.5t-45 -60t-64.5 -42t-74 -15.5zM61 0l682 575h55l-682 -575h-55zM229 336q30 0 55 16.5t43.5 42.5t28.5 54.5t10 52.5q0 57 -57 57q-29 0 -53.5 -16.5
t-42.5 -42.5t-28 -54.5t-10 -52.5q0 -57 54 -57zM550 -14q-52 0 -79 25t-27 68q0 34 16.5 67t44.5 59.5t64 42t74 15.5q39 0 64 -14t35 -38q27 24 61 38t70 14q53 0 80 -25t27 -65q0 -36 -16.5 -69.5t-45 -60t-64.5 -42t-74 -15.5q-76 0 -98 52q-28 -24 -62 -38t-70 -14z
M785 13q30 0 55 16.5t43.5 42.5t28.5 54.5t10 52.5q0 57 -57 57q-29 0 -53.5 -16.5t-42.5 -42.5t-28 -54.5t-10 -52.5q0 -57 54 -57zM555 13q30 0 55 16.5t43.5 42.5t28.5 54.5t10 52.5q0 57 -57 57q-29 0 -53.5 -16.5t-42.5 -42.5t-28 -54.5t-10 -52.5q0 -57 54 -57z" />
    <glyph glyph-name="guilsinglleft" unicode="&#x2039;" horiz-adv-x="273" 
d="M159 44q-52 15 -77.5 54t-25.5 81q0 40 17.5 75.5t46.5 65t63 50t66 29.5l9 -25q-37 -17 -71 -49.5t-55.5 -73t-21.5 -81.5q0 -33 13.5 -58.5t44.5 -42.5z" />
    <glyph glyph-name="guilsinglright" unicode="&#x203a;" horiz-adv-x="273" 
d="M115 399q53 -15 78 -54t25 -81q0 -40 -17.5 -75.5t-46.5 -65t-63 -50t-66 -29.5l-9 25q38 18 71.5 50t55 72.5t21.5 81.5q0 33 -13.5 59t-44.5 42z" />
    <glyph glyph-name="fraction" unicode="&#x2044;" horiz-adv-x="283" 
d="M-200 0l757 710h39l-758 -710h-38z" />
    <glyph glyph-name="uni2074" unicode="&#x2074;" horiz-adv-x="325" 
d="M139 294l8 20l22 1q25 1 37 5.5t19 16.5t16 36l8 22h-171l4 11q31 29 65 68.5t68 82.5t63.5 83t51.5 70h111l-323 -293h139l38 103q24 6 54 27h22l-48 -130h49l-8 -22h-49l-8 -22q-4 -11 -7.5 -21.5t-3.5 -16.5q0 -12 8.5 -15t24.5 -5l12 -1l-10 -20l-85 2z" />
    <glyph glyph-name="Euro" unicode="&#x20ac;" horiz-adv-x="686" 
d="M-22 259l11 32h96q7 43 22 86h-86l11 32h87q35 86 97.5 156.5t143.5 112.5t171 42q44 0 75 -8.5t52 -20t34.5 -20t23.5 -8.5q8 0 19 12t19 22h26l-42 -103l-38 -109h-26q6 32 6 58q0 73 -39 110t-103 37q-66 0 -131 -37.5t-117.5 -101.5t-84.5 -142h344l-25 -32h-330
q-14 -43 -20 -86h292l-25 -32h-270q-1 -12 -1 -25q0 -97 37 -155.5t119 -58.5q63 0 116 30.5t96 79.5q23 26 42.5 56t33.5 61h26q-7 -19 -28.5 -57.5t-56.5 -79.5q-27 -31 -62 -58.5t-80.5 -45t-106.5 -17.5q-62 0 -113.5 24.5t-82 75.5t-30.5 132q0 19 2 38h-104z" />
    <glyph glyph-name="trademark" unicode="&#x2122;" horiz-adv-x="1000" 
d="M517 346l7 19l11 1q18 2 27.5 5t16.5 13t14 32l74 226q2 7 5 17t3 16q0 10 -8 13t-25 4l-11 1l4 19l79 -2h42l34 -271l220 271h33l91 2l-4 -20l-11 -1q-29 -2 -41.5 -9.5t-23.5 -39.5l-74 -226q-3 -9 -4.5 -17.5t-1.5 -13.5q0 -11 9.5 -14t28.5 -5l11 -1l-7 -19l-95 2
l-82 -2l7 19l11 1q20 2 30.5 5t17.5 13t14 32l80 245l-255 -313h-11l-35 311l-79 -243q-3 -10 -4.5 -18.5t-1.5 -13.5q0 -10 8 -13t25 -5l11 -1l-7 -19l-67 2zM199 346l7 19l12 1q24 2 36.5 5t20 13t14.5 32l88 271h-70q-22 0 -38.5 -8t-34 -25.5t-43.5 -47.5l-10 2l33 63
l19 41l157 -2h52l158 2l-7 -41l-6 -63l-14 -3q-6 40 -15.5 61t-44.5 21h-73l-88 -271q-7 -19 -7 -29q0 -12 12 -15.5t35 -5.5l12 -1l-7 -19l-97 2z" />
    <glyph glyph-name="emptyset" unicode="&#x2205;" horiz-adv-x="729" 
d="M180 -42l-30 21l54 77q-52 42 -83.5 103.5t-31.5 134.5q0 62 23.5 116.5t65.5 96t96.5 65t117.5 23.5q87 0 158 -45l50 72l30 -19l-51 -73q53 -42 84 -103.5t31 -132.5q0 -63 -23.5 -118t-65 -97t-96.5 -65.5t-117 -23.5q-87 0 -158 45zM225 87l303 433q-29 18 -63.5 28
t-72.5 10q-73 0 -132.5 -35.5t-95 -95.5t-35.5 -133q0 -63 26 -117t70 -90zM392 27q73 0 132 35.5t94.5 96.5t35.5 135q0 62 -26.5 115.5t-70.5 89.5l-302 -434q30 -18 65 -28t72 -10z" />
    <glyph glyph-name="minus" unicode="&#x2212;" horiz-adv-x="556" 
d="M90 300l13 36h436l-13 -36h-436z" />
    <glyph glyph-name="uni2215" unicode="&#x2215;" horiz-adv-x="283" 
d="M-200 0l757 710h39l-758 -710h-38z" />
    <glyph glyph-name="infinity" unicode="&#x221e;" horiz-adv-x="792" 
d="M200 166q-38 0 -64 18.5t-39 48.5t-13 62q0 47 20.5 92t56 81t79.5 57.5t92 21.5q45 0 71.5 -20.5t38.5 -51.5t13 -64l35 35q48 49 97.5 75t98.5 26q64 0 94.5 -35t30.5 -85q0 -44 -18 -89.5t-50.5 -84t-76 -62t-93.5 -23.5q-47 0 -75 17.5t-42.5 45.5t-21.5 61l-14 -14
q-59 -60 -113 -86t-107 -26zM499 358l-34 -34q12 -52 39 -75.5t86 -23.5q48 0 91.5 25.5t71 66t27.5 84.5q0 36 -21 61t-58 25q-28 0 -57 -14t-56.5 -34.5t-50 -42.5t-38.5 -38zM114 314q0 -40 22.5 -64.5t58.5 -24.5t68 16.5t60 40.5t51 47l49 49q-4 50 -35.5 79.5
t-81.5 29.5q-49 0 -93 -23.5t-71.5 -62.5t-27.5 -87z" />
    <glyph glyph-name="approxequal" unicode="&#x2248;" horiz-adv-x="631" 
d="M58 172q4 11 16.5 33.5t33.5 46.5t49 41t62 17q28 0 57 -15t57 -33q29 -18 56.5 -32.5t49.5 -14.5q25 0 47 12t39 31t28 39h16q-14 -31 -38 -59.5t-51.5 -47t-52.5 -18.5q-31 0 -59.5 15t-53.5 32q-27 17 -54 32t-53 15q-38 0 -73 -23.5t-61 -70.5h-15zM58 353
q4 11 16.5 33.5t33.5 46.5t49 41t62 17q28 0 57 -15t57 -33q29 -18 56.5 -32.5t49.5 -14.5q25 0 47 12t39 31t28 39h16q-14 -31 -38 -59.5t-51.5 -47t-52.5 -18.5q-31 0 -59.5 15t-53.5 32q-27 17 -54 32t-53 15q-38 0 -73 -23.5t-61 -70.5h-15z" />
    <glyph glyph-name="notequal" unicode="&#x2260;" horiz-adv-x="600" 
d="M83 120l116 106h-136l15 35h159l105 96h-231l14 35h255l100 91h44l-99 -91h144l-14 -35h-168l-105 -96h240l-15 -35h-263l-116 -106h-45z" />
    <glyph glyph-name="lessequal" unicode="&#x2264;" horiz-adv-x="571" 
d="M471 493l-6 -41l-329 -130l245 -132l-8 -37l-303 163l8 21zM23 13l11 36h379l-11 -36h-379z" />
    <glyph glyph-name="greaterequal" unicode="&#x2265;" horiz-adv-x="553" 
d="M29 13l11 36h379l-11 -36h-379zM71 153l6 41l329 130l-245 132l8 37l303 -163l-8 -21z" />
    <glyph glyph-name="lozenge" unicode="&#x25ca;" horiz-adv-x="620" 
d="M528 746l100 -373l-378 -384h-50l-96 384l375 373h49zM230 18l358 367l-90 329l-354 -353z" />
    <glyph glyph-name="i.loclTRK" horiz-adv-x="279" 
d="M100 -14q-31 0 -43.5 15t-12.5 40q0 16 4 34.5t11 37.5l87 234q8 22 8 35q0 18 -11 25t-28.5 8t-36.5 1l7 24l162 3l-126 -358q-4 -15 -7 -26.5t-3 -19.5q0 -20 16 -20q22 0 43 23t34 45l18 -12q-19 -31 -49 -60t-73 -29zM240 553q-24 0 -39.5 16t-15.5 38q0 21 15.5 37
t39.5 16q21 0 36.5 -16t15.5 -37q0 -22 -15.5 -38t-36.5 -16z" />
    <glyph glyph-name="f.calt" horiz-adv-x="309" 
d="M-158 -290q-36 0 -63.5 7.5t-45.5 20.5l47 36q12 -17 30 -28t46 -11t49 14.5t36 36t25 44t16 39.5l178 547h-66l7 24h67l35 108q24 67 54 104t66 52.5t79 15.5q55 0 79.5 -22t24.5 -48q0 -20 -10.5 -36.5t-35.5 -16.5q-23 0 -32 14t-9 36q0 29 -7.5 40t-27.5 11
q-19 0 -44.5 -18t-43.5 -73l-55 -167h107l-7 -24h-108l-181 -552q-14 -42 -40.5 -77t-68.5 -56t-101 -21z" />
    <glyph glyph-name="j.calt" horiz-adv-x="278" 
d="M-136 -290q-36 0 -64.5 9.5t-52.5 31.5l48 40q20 -31 39 -43.5t44 -12.5q28 0 49 15t36.5 37.5t25.5 45t15 36.5l160 491q3 8 4 14t1 10q0 25 -24 28.5t-52 3.5l7 24l162 3l-188 -579q-22 -67 -71.5 -110.5t-138.5 -43.5zM263 553q-24 0 -39.5 16t-15.5 38q0 21 15.5 37
t39.5 16q21 0 36.5 -16t15.5 -37q0 -22 -15.5 -38t-36.5 -16z" />
    <glyph glyph-name="uni0237.calt" horiz-adv-x="278" 
d="M-136 -290q-36 0 -64.5 9.5t-52.5 31.5l48 40q20 -31 39 -43.5t44 -12.5q28 0 49 15t36.5 37.5t25.5 45t15 36.5l160 491q3 8 4 14t1 10q0 25 -24 28.5t-52 3.5l7 24l162 3l-188 -579q-22 -67 -71.5 -110.5t-138.5 -43.5z" />
    <glyph glyph-name="q.calt" horiz-adv-x="501" 
d="M195 -280l128 367q-36 -49 -76 -75t-85 -26q-47 0 -77 19.5t-44 52t-14 69.5q0 63 27 122t70.5 105t94.5 73t100 27q43 0 66 -26t30 -67l26 79h70l-247 -720h-69zM172 12q41 0 78 28t69 78.5t55 115.5q20 55 20 102q0 41 -17 66.5t-52 25.5q-40 0 -79.5 -30.5t-72 -79.5
t-52 -104.5t-19.5 -106.5q0 -47 19 -71t51 -24z" />
    <glyph glyph-name="a.sups" horiz-adv-x="443" 
d="M211 290q-59 0 -86 33.5t-27 76.5q0 49 22.5 94.5t59 81t79.5 56.5t84 21q43 0 62 -20t23 -53l25 64h63l-106 -277q-4 -11 -6 -20t-2 -16q0 -13 10 -13q17 0 35.5 18t29.5 35l16 -13q-16 -24 -41.5 -46t-58.5 -22q-29 0 -41 12t-12 31q0 9 2 20q-24 -29 -55 -46t-76 -17z
M219 312q52 0 96.5 47.5t72.5 124.5q15 42 15 79q0 31 -13.5 50.5t-41.5 19.5q-32 0 -64 -23.5t-58 -61.5t-42 -81.5t-16 -82.5q0 -72 51 -72z" />
    <glyph glyph-name="d.sups" horiz-adv-x="444" 
d="M219 290q-42 0 -68.5 17t-39 43.5t-12.5 54.5q0 47 22.5 91t59.5 79.5t80.5 56.5t84.5 21q76 0 84 -70l76 193q5 11 6.5 19t1.5 14q0 20 -18 23t-42 3l6 20l137 1l-186 -490q-4 -11 -6 -20t-2 -15q0 -13 10 -13q14 0 31.5 15t33.5 37l16 -12q-15 -23 -40.5 -45.5
t-63.5 -22.5q-49 0 -49 43q0 9 2 20q-23 -28 -53 -45.5t-71 -17.5zM223 312q47 0 91.5 45t73.5 126q8 22 12 42t4 36q0 33 -14 52.5t-40 19.5q-32 0 -64 -23.5t-58.5 -61.5t-42.5 -81.5t-16 -83.5q0 -71 54 -71z" />
    <glyph glyph-name="e.sups" horiz-adv-x="321" 
d="M236 290q-46 0 -75 18.5t-42.5 48t-13.5 61.5q0 48 20 90.5t53.5 74.5t73.5 50.5t80 18.5q41 0 64.5 -19t23.5 -50q0 -44 -44.5 -71.5t-126.5 -35.5l-66 -6q-10 -35 -10 -67q0 -34 15.5 -62.5t55.5 -28.5q25 0 49.5 16.5t52.5 43.5l15 -14q-8 -10 -20 -21
q-20 -18 -44.5 -32.5t-60.5 -14.5zM335 634q-27 0 -55 -20t-51.5 -53t-38.5 -71l42 5q58 8 86 26.5t37.5 39.5t9.5 34q0 39 -30 39z" />
    <glyph glyph-name="h.sups" horiz-adv-x="446" 
d="M100 299l185 471q9 24 9 37q0 20 -17.5 23.5t-41.5 3.5l6 20l137 1l-105 -274q27 29 64 50.5t83 21.5q43 0 59.5 -15t16.5 -38q0 -19 -10 -44l-75 -192q-7 -18 -7 -31q0 -15 10 -15q14 0 31 14.5t34 37.5l17 -12q-16 -24 -41.5 -46t-62.5 -22q-49 0 -49 43q0 22 12 55
l72 188q3 8 4 14.5t1 12.5q0 29 -28 29q-30 0 -63.5 -21t-60 -51t-37.5 -58v0l-78 -203h-65z" />
    <glyph glyph-name="m.sups" horiz-adv-x="647" 
d="M100 300l103 269q5 11 6.5 19.5t1.5 14.5q0 15 -15 18t-38 3l6 20l125 1l-24 -72q25 31 62 55.5t83 24.5q41 0 56 -16t15 -41q0 -7 -1 -15q26 29 62 50.5t79 21.5q74 0 74 -55q0 -17 -9 -40l-73 -191q-7 -18 -7 -31q0 -18 14 -18t30 16t29 33l17 -11q-15 -23 -40 -44.5
t-54 -21.5q-33 0 -46 12.5t-13 34.5q0 14 5 32t12 37l68 172q6 15 6 26q0 28 -29 28q-27 0 -56 -18.5t-53.5 -46.5t-37.5 -55l-82 -212h-67l108 278q6 15 6 26q0 28 -29 28q-26 0 -54.5 -18t-52.5 -44.5t-38 -53.5l-83 -216h-66z" />
    <glyph glyph-name="n.sups" horiz-adv-x="449" 
d="M106 301l-3 1l103 269q8 20 8 33q0 15 -17 18t-40 3l8 21l128 3l-23 -71q28 31 66.5 55t86.5 24q43 0 59.5 -15t16.5 -38q0 -19 -10 -44l-75 -196q-7 -18 -7 -31q0 -15 10 -15q17 0 34 16.5t28 33.5h4l15 -9l1 -1q-16 -24 -41.5 -46t-62.5 -22q-49 0 -49 43q0 22 12 55
l72 192q3 8 4 14.5t1 12.5q0 29 -28 29q-30 0 -63.5 -21.5t-60 -52.5t-37.5 -60v0l-77 -200l-3 -1h-60z" />
    <glyph glyph-name="o.sups" horiz-adv-x="399" 
d="M240 290q-67 0 -101 37.5t-34 86.5q0 47 19 90t52 76.5t76 53t90 19.5q68 0 101.5 -37.5t33.5 -88.5q0 -46 -19 -88.5t-52 -76t-75.5 -53t-90.5 -19.5zM240 313q36 0 67 24.5t53.5 62t35.5 77.5t13 72q0 84 -65 84q-37 0 -68 -25t-54 -63t-35.5 -79t-12.5 -74
q0 -79 66 -79z" />
    <glyph glyph-name="r.sups" horiz-adv-x="339" 
d="M106 299l-2 1l103 269q8 22 8 33q0 16 -17.5 18.5t-40.5 2.5l8 21l120 3l-31 -98q25 43 58.5 73.5t76.5 30.5q22 0 44 -13t22 -40q0 -12 -9 -24t-29 -12q-14 0 -22.5 7.5t-16.5 26.5q-5 14 -10 18.5t-13 4.5q-15 0 -32.5 -13.5t-37.5 -44.5q-15 -22 -31.5 -55.5
t-34.5 -78.5l-1 -3l-49 -126l-3 -1h-60z" />
    <glyph glyph-name="s.sups" horiz-adv-x="290" 
d="M197 290q-44 0 -70 14t-37 33.5t-11 35.5q0 20 12 31.5t31 11.5q14 0 23 -8t9 -21t-5.5 -21.5t-5.5 -22.5q0 -15 14 -24.5t36 -9.5q36 0 55.5 22t19.5 48q0 15 -6 27.5t-25 31.5l-31 31q-37 37 -37 86q0 24 12.5 46.5t39 37t68.5 14.5q40 0 60.5 -10.5t28.5 -24t8 -24.5
q0 -16 -11.5 -26t-28.5 -10q-14 0 -23 8t-9 21q0 9 -1.5 20t-9 19t-25.5 8q-25 0 -40.5 -16.5t-15.5 -39.5q0 -33 24 -57l35 -35q16 -16 32 -37.5t16 -51.5q0 -26 -17 -50.5t-46.5 -40.5t-68.5 -16z" />
    <glyph glyph-name="t.sups" horiz-adv-x="278" 
d="M189 290q-53 0 -53 43q0 22 12 53l93 237h-54l7 20h54l27 68h61l-26 -68h75l-7 -20h-75l-99 -259q-6 -16 -6 -27q0 -19 16 -19q14 0 32.5 14.5t34.5 35.5l16 -12q-16 -23 -42 -44.5t-66 -21.5z" />
    <glyph glyph-name="zero.lf" horiz-adv-x="630" 
d="M249 -14q-78 0 -122 55.5t-44 151.5q0 75 23.5 151t64 144t93 121.5t111.5 84t118 30.5q90 0 133.5 -53.5t43.5 -150.5q0 -75 -22.5 -151.5t-62.5 -145t-93.5 -122t-115.5 -84.5t-127 -31zM256 13q49 0 97.5 35t91.5 94t76 131.5t51.5 149.5t18.5 147q0 59 -21 93t-75 34
q-41 0 -82 -26.5t-78 -71.5t-68.5 -102t-54.5 -119.5t-36 -123.5t-13 -113q0 -57 20.5 -92.5t72.5 -35.5z" />
    <glyph glyph-name="one.lf" horiz-adv-x="374" 
d="M-32 -3l9 25l21 2q38 4 61 10.5t39.5 28t33.5 70.5l151 428q9 24 9 40q0 18 -14 28t-50 13l-33 3l11 30q40 5 68 11t52 14.5t51 18.5h38l-207 -586q-9 -25 -14 -42t-5 -28q0 -20 17.5 -27t57.5 -12l19 -2l-9 -25l-153 3z" />
    <glyph glyph-name="two.lf" horiz-adv-x="564" 
d="M-4 0l12 36l254 200q40 31 83 69t80.5 81t61 91t23.5 99q0 47 -31 75t-90 28q-44 0 -80.5 -18t-58 -43.5t-21.5 -50.5q0 -13 6.5 -20t13.5 -15q8 -8 16 -17.5t8 -26.5q0 -25 -15 -40t-38 -15q-31 0 -43 24t-12 53q0 31 17.5 67.5t51 70t81.5 55t109 21.5
q83 0 129.5 -38.5t46.5 -103.5q0 -57 -28.5 -108t-74.5 -96t-98 -84.5t-100 -74.5l-209 -153l224 3q38 0 60 5t34.5 15t21.5 26.5t21 41.5l10 20h27l-55 -148l-10 -29h-427z" />
    <glyph glyph-name="three.lf" horiz-adv-x="537" 
d="M170 -14q-40 0 -75 11.5t-56.5 36.5t-21.5 66q0 26 14.5 44.5t42.5 18.5q11 0 26.5 -9.5t15.5 -35.5q0 -16 -7.5 -25.5t-15.5 -17t-8 -21.5q0 -13 20 -26t63 -13q47 0 90.5 22.5t78 61t54.5 86t20 97.5q0 46 -25 69t-70 23q-19 0 -40 -4.5t-44 -12.5l14 35q46 14 91 34.5
t81.5 48t58 62.5t21.5 78q0 36 -24.5 57.5t-74.5 21.5q-34 0 -63 -10.5t-46.5 -26.5t-17.5 -34q0 -8 5.5 -13.5l10.5 -10.5q5 -4 8.5 -10t3.5 -18q0 -22 -15.5 -34.5t-38.5 -12.5q-27 0 -39 18.5t-12 35.5q0 34 30.5 67.5t84.5 56t125 22.5q41 0 75.5 -11.5t56 -36
t21.5 -63.5q0 -40 -22.5 -73.5t-59 -60t-80 -46.5t-84.5 -34q9 1 14 1q68 0 102 -34.5t34 -93.5q0 -55 -24.5 -106t-68.5 -91.5t-102.5 -64.5t-126.5 -24z" />
    <glyph glyph-name="four.lf" horiz-adv-x="509" 
d="M105 -3l10 25l21 2q39 4 62 12.5t38.5 30.5t31.5 66l14 38h-272l9 25l65 63q108 106 207.5 224.5t183.5 226.5h130l-6 -14l-546 -498h238l67 188q14 4 34.5 16t35.5 31h24l-83 -235h92l-9 -27h-93l-13 -38q-8 -23 -13 -40t-5 -28q0 -21 18 -28.5t59 -12.5l17 -2l-8 -25
l-153 3z" />
    <glyph glyph-name="five.lf" horiz-adv-x="497" 
d="M143 -14q-67 0 -108.5 30t-41.5 81q0 29 16.5 45t38.5 16q24 0 34.5 -13.5t10.5 -24.5q0 -18 -7.5 -26.5t-15.5 -16t-8 -23.5q0 -15 19 -27t55 -12q49 0 92.5 24.5t77 66.5t53 94.5t19.5 108.5q0 24 -7 47.5t-25 39.5t-52 16q-35 0 -65 -16t-49 -35v0v0l-6 -6h-26
l141 355h194q25 0 53 1.5t59 5.5l5 -2q-18 -43 -46.5 -61.5t-63.5 -22t-74 -3.5h-131l-87 -221q29 20 60.5 29.5t62.5 9.5q77 0 111.5 -41t34.5 -100q0 -65 -24.5 -123t-68.5 -102t-103 -69t-128 -25z" />
    </font>
</defs>
</svg>
